<?xml version="1.0" encoding="utf-8"?>
<!-- Generator: Adobe Illustrator 26.1.0, SVG Export Plug-In . SVG Version: 6.00 Build 0)  -->
<svg version="1.2" baseProfile="tiny" id="Capa_1" xmlns="http://www.w3.org/2000/svg" xmlns:xlink="http://www.w3.org/1999/xlink"
	 x="0px" y="0px" viewBox="0 0 627 894" overflow="visible" xml:space="preserve">
<g>
	<linearGradient id="SVGID_1_" gradientUnits="userSpaceOnUse" x1="196.4097" y1="767.2421" x2="887.6279" y2="76.0239">
		<stop  offset="0" style="stop-color:#EC4899"/>
		<stop  offset="1" style="stop-color:#6366F1"/>
	</linearGradient>
	<path fill="url(#SVGID_1_)" d="M403.1,676.8c11.5,14,17.5,32.6,14.1,52.4c-10.4-41.1-36.1-66.8-77.3-77.2
		c16.9-2.5,33.4,1.7,46.7,10.3c-3.8-7.1-7.1-14-10-20.9c-27.9-66.3-13.7-121-2.3-148.5l-55.6-23.1c-28.3,68.2-86.7,98.7-139.3,112
		c15,6,28,17.2,35.3,33.5C183,587,147.4,580,107.4,594.4c15.2-13.9,35.3-19.3,54.3-17.1c-14.3-9.9-31.6-15.9-50.3-15.9
		c-49,0-88.8,39.8-88.8,88.8c0,46.7,36,84.9,81.8,88.4c2.3,0.2,4.6,0.4,7,0.4c3.2,0,6.4-0.2,9.6-0.5c10.3,20.4,28.3,36.3,50.1,43.9
		c-7.9-12.9-11.6-28.4-8.7-44.9c10.4,41.1,36.1,66.9,77.2,77.2c-23.5,3.5-46-5.9-60.8-22.2c-0.6,4.1-1,8.3-1,12.6
		c0,46.5,35.8,84.7,81.4,88.4c2.4,0.2,4.9,0.4,7.4,0.4c37.4,0,69.4-23.2,82.5-56c14.5,10.2,32.1,16.3,51.1,16.3
		c49.1,0,88.8-39.8,88.8-88.8C489,717.3,450.8,678.3,403.1,676.8z M226.6,753.6c-35.8-26.6-37.4-83,0-109.2
		C205,680.8,204.8,717.1,226.6,753.6z"/>
	
		<linearGradient id="SVGID_00000057109135955443281970000001318396175057279892_" gradientUnits="userSpaceOnUse" x1="87.5546" y1="658.387" x2="778.7722" y2="-32.8306">
		<stop  offset="0" style="stop-color:#EC4899"/>
		<stop  offset="1" style="stop-color:#6366F1"/>
	</linearGradient>
	<path fill="url(#SVGID_00000057109135955443281970000001318396175057279892_)" d="M554.6,13.4c-4.6-11.1-17.4-16.4-28.4-11.8
		c-72.5,30-141,62-183.9,124.6c-22.7,33-36.7,71.9-44.4,112.1c-49,23.9-97.6,122.3-97.6,122.3s29,9.1,56.3,16.5
		c14.7,4,28.9,7.5,37.8,8.7c1.9,14.9,4.3,29.1,7.2,42.2c1.5,6.9,6.4,12.6,12.9,15.4l77.3,32c5.4,2.2,11.4,2.2,16.7,0
		c1.1-0.5,26.4-17.2,38.3-26.4c3.6,2.7,8.6,6,14.4,9.6c26.7,16.6,69.9,39.2,69.9,39.2s35.3-104,17.5-155.5
		c23-33.9,40.6-71.3,47.9-110.6C610.3,157.1,583.4,82.9,554.6,13.4z M460.2,240.3c-22.5,0-40.8-18.3-40.8-40.8
		c0-22.5,18.3-40.8,40.8-40.8c22.5,0,40.8,18.3,40.8,40.8C501,222,482.8,240.3,460.2,240.3z"/>
</g>
</svg>
