<?xml version="1.0" encoding="utf-8"?>
<!-- Generator: Adobe Illustrator 26.1.0, SVG Export Plug-In . SVG Version: 6.00 Build 0)  -->
<svg version="1.2" baseProfile="tiny" id="Capa_1" xmlns="http://www.w3.org/2000/svg" xmlns:xlink="http://www.w3.org/1999/xlink"
	 x="0px" y="0px" viewBox="0 0 2122.2 639.6" overflow="visible" xml:space="preserve">
<g>
	<path fill="#FF3399" stroke="#EC4899" stroke-width="5" stroke-miterlimit="10" d="M460.9,542.3c44.8-44.8,69.9-115,75.2-210.5
		L553.8,2.7h79.6l-17.7,332.6c-4.1,77.8-17.8,139.8-41.1,185.8c-23.3,46-61.8,85.5-115.4,118.5c-47.2-33.6-79.9-75-98.2-124.3
		c-18.3-49.2-32.4-116-42.5-200.4h-3.5c-4.7,87.9-16.1,153.3-34.1,196.4c-18,43.1-53.5,85.8-106.6,128.3
		C120.6,606.6,82.1,567,58.8,521c-23.3-46-37-107.9-41.1-185.8L0,2.7h79.6l17.7,329.1c5.3,95.5,30.4,165.7,75.2,210.5
		c28.9-24.8,50.4-61.8,64.6-111c14.2-49.2,27.4-127.2,39.8-234h79.6c16.5,92,31.5,163.4,45.1,214.1c13.6,50.7,24,82.9,31.4,96.4
		C440.4,521.4,449.7,532.9,460.9,542.3z"/>
	<path fill="#FF3399" stroke="#EC4899" stroke-width="5" stroke-miterlimit="10" d="M813.8,621.9h-78.7V232.7
		c0-63.7,20.5-117.9,61.5-162.8c41-44.8,93.9-67.2,158.8-67.2H1158v619.2h-83.2V80.5H955.4c-43.1,0-77.4,12.7-103.1,38
		c-25.7,25.4-38.5,65.8-38.5,121.2v75.2c33-34.8,80.2-52.2,141.5-52.2h80.5v77.8h-80.5c-34.2,0-62.1,4.1-83.6,12.4
		c-21.5,8.3-40.8,22.4-57.9,42.5V621.9z"/>
	<path fill="#FF3399" stroke="#EC4899" stroke-width="5" stroke-miterlimit="10" d="M1624.2,544v77.8H1495
		c-24.2,0-43.2-0.4-57.1-1.3c-13.9-0.9-31.1-4.4-51.7-10.6c-20.7-6.2-38-15.5-52.2-27.9c-21.8-20-36-44.1-42.5-72.1
		c-6.5-28-9.7-60.9-9.7-98.6V2.7h83.2v406.9c0,34.2,3.8,61,11.5,80.5c15.3,36,47.5,54,96.4,54H1624.2z"/>
	<path fill="#FF3399" stroke="#EC4899" stroke-width="5" stroke-miterlimit="10" d="M1778.1,621.9h-78.7V232.7
		c0-63.7,20.5-117.9,61.5-162.8c41-44.8,93.9-67.2,158.8-67.2h202.6v619.2H2039V80.5h-119.4c-43.1,0-77.4,12.7-103.1,38
		c-25.7,25.4-38.5,65.8-38.5,121.2v75.2c33-34.8,80.2-52.2,141.5-52.2h80.5v77.8h-80.5c-34.2,0-62.1,4.1-83.6,12.4
		c-21.5,8.3-40.8,22.4-57.9,42.5V621.9z"/>
</g>
</svg>
