<?xml version="1.0" encoding="utf-8"?>
<!-- Generator: Adobe Illustrator 26.1.0, SVG Export Plug-In . SVG Version: 6.00 Build 0)  -->
<svg version="1.2" baseProfile="tiny" id="Capa_1" xmlns="http://www.w3.org/2000/svg" xmlns:xlink="http://www.w3.org/1999/xlink"
	 x="0px" y="0px" viewBox="0 0 2122.2 639.6" overflow="visible" xml:space="preserve">
<g>
	<path fill="#FF3399" stroke="#EC4899" stroke-width="5" stroke-miterlimit="10" d="M641.1,539.7c44.6-44.6,69.5-114.3,74.8-209.3
		L733.5,3.2h79.2L795,333.9c-4.1,77.4-17.7,139-40.9,184.7c-23.2,45.7-61.4,85-114.8,117.9c-46.9-33.4-79.5-74.6-97.6-123.6
		c-18.2-49-32.3-115.4-42.2-199.2H496c-4.7,87.4-16,152.5-33.9,195.3c-17.9,42.8-53.2,85.3-106,127.5
		c-53.4-32.8-91.6-72.1-114.8-117.9c-23.2-45.7-36.8-107.3-40.9-184.7L182.9,3.2H262l17.6,327.2c5.3,95,30.2,164.8,74.8,209.3
		c28.7-24.6,50.1-61.4,64.2-110.4c14.1-49,27.3-126.5,39.6-232.6h79.2c16.4,91.5,31.4,162.4,44.9,212.9
		c13.5,50.4,23.9,82.4,31.2,95.9C620.7,518.9,630,530.3,641.1,539.7z"/>
	<path fill="#FF3399" stroke="#EC4899" stroke-width="5" stroke-miterlimit="10" d="M1148.6,370.8V450c-22.3-17-49.6-25.5-81.8-25.5
		c-27.6,0-49,5.4-64.2,16.3c-15.3,10.9-22.9,26.2-22.9,46.2c0,38.7,28.7,58.1,86.2,58.1H1182V377c0-70.9-34.6-106.4-103.8-106.4
		H937.5v-73.9h145.1c56.9,0,100.6,14.1,131.1,42.2c30.5,28.1,45.7,68.6,45.7,121.4v258.6h-196.1c-49.8,0-89.4-11.1-118.7-33.4
		c-29.3-22.3-44-54.8-44-97.6c0-42.8,15.5-75.3,46.6-97.6c31.1-22.3,70.1-33.4,117-33.4C1090.6,356.7,1118.7,361.4,1148.6,370.8z"/>
	<path fill="#FF3399" stroke="#EC4899" stroke-width="5" stroke-miterlimit="10" d="M1356.2,451.7V3.2h79.2v448.6
		c0,21.1,2.5,38.3,7.5,51.5c5,13.2,12.8,22.6,23.3,28.1c10.6,5.6,20.8,9.2,30.8,11c10,1.8,23.2,2.6,39.6,2.6v73.9
		c-65.7,0-112.1-12.6-139.4-37.8C1369.8,555.8,1356.2,512.7,1356.2,451.7z"/>
	<path fill="#FF3399" stroke="#EC4899" stroke-width="5" stroke-miterlimit="10" d="M1828.5,370.8V450c-22.3-17-49.6-25.5-81.8-25.5
		c-27.6,0-49,5.4-64.2,16.3c-15.3,10.9-22.9,26.2-22.9,46.2c0,38.7,28.7,58.1,86.2,58.1h116.1V377c0-70.9-34.6-106.4-103.8-106.4
		h-140.7v-73.9h145.1c56.9,0,100.6,14.1,131.1,42.2c30.5,28.1,45.7,68.6,45.7,121.4v258.6h-196.1c-49.8,0-89.4-11.1-118.7-33.4
		c-29.3-22.3-44-54.8-44-97.6c0-42.8,15.5-75.3,46.6-97.6c31.1-22.3,70.1-33.4,117-33.4C1770.5,356.7,1798.6,361.4,1828.5,370.8z"/>
</g>
</svg>
