<?xml version="1.0" encoding="utf-8"?>
<!-- Generator: Adobe Illustrator 26.1.0, SVG Export Plug-In . SVG Version: 6.00 Build 0)  -->
<svg version="1.2" baseProfile="tiny" id="Capa_1" xmlns="http://www.w3.org/2000/svg" xmlns:xlink="http://www.w3.org/1999/xlink"
	 x="0px" y="0px" viewBox="0 0 190 190" overflow="visible" xml:space="preserve">
<g transform="translate(0.000000,305.000000) scale(0.100000,-0.100000)">
	<path d="M178,2511.4c-68.1-18.4-116.7-72.7-127.4-142c-2.7-16.8-3.8-99.1-3.1-230c1.1-198.6,1.1-203.6,9.2-213.9
		c14.5-19.9,39.4-21.4,57.4-3.4l9.2,9.2v119v118.6h95.7h95.3l1.1-118.2c1.1-118.2,1.1-118.2,9.9-127.8
		c11.9-12.2,24.9-15.7,41.3-10.3c24.9,8.4,24.5,2.7,24.5,242.6c0,200.9-0.4,217.4-7.3,239.2c-3.8,12.6-11.5,30.6-16.8,39.4
		c-12.2,20.7-46.3,53.2-67,63.9C263.3,2516.3,216.6,2521.7,178,2511.4z M259.5,2431.4c22.6-10.3,44.4-34.4,50.5-55.5
		c2.7-8.4,4.6-39.8,4.6-72.7v-57.8h-95.7h-95.7v54.7c0,29.8,1.9,61.2,4.2,69.3C143.5,2426.8,205.9,2456.3,259.5,2431.4z"/>
	<path d="M433.6,2511.8c-18-9.9-24.1-32.1-14.2-51.7c8.4-15.7,21-19.5,67.4-19.5h42.1v-122.1v-122.5l9.2-10.7
		c7.7-8.8,12.2-10.7,27.2-10.7c14.9,0,19.5,1.9,27.2,10.7l9.2,10.7v122.5v122.1h41.3c47.1,0,57,3.4,67,23.7
		c6.1,12.6,6.1,15.3,1.5,27.2c-11.1,26-9.9,25.6-146.2,25.6C471.1,2516.7,440.9,2515.6,433.6,2511.8z"/>
	<path d="M926.9,2511.8c-62.4-13.4-115.6-66.2-129.7-129c-2.3-9.9-4.2-79.6-4.2-166.5c0-123.6-1.1-152.3-5.7-166.5
		c-18.4-53.6-79.2-79.6-130.1-55.5c-31.8,14.5-50.9,42.5-54.3,78.4c-2.3,29.1-8,41.7-20.7,48.2c-28.7,14.9-57-3.8-57-37.9
		c0-44.8,23.3-98.3,55.5-127.8c98-89.5,249.5-44,283.2,85.3c3.8,14.9,5.7,40.6,5.7,75.4v52.8h95.7h95.7v-116.7v-116.7l10.7-11.5
		c13.8-15.3,29.5-18,45.9-7.7c6.9,4.2,14.2,12.2,16.1,17.6c5.4,13.4,5,414.8,0,442c-12.6,66.6-64.7,120.2-130.1,135.1
		C972.8,2518.3,956,2518.3,926.9,2511.8z M1012.6,2427.6c38.6-22.6,48.2-47.5,48.2-125.1v-57h-95.7h-95.7v60.5c0,52,1.1,62.4,8,77.3
		c10.3,23,24.5,37.5,47.5,48.6C951,2444.4,986.9,2442.5,1012.6,2427.6z"/>
	<path d="M1286.2,2511.4c-5.4-3.1-11.9-10.3-14.5-16.1c-3.1-8-4.2-77.7-3.4-263.3c1.1-250.7,1.1-252.6,9.6-267.9
		c9.6-18,28.3-36.4,47.1-46.3c11.1-6.1,21.8-7.3,62.4-7.3c49.4,0,49.4,0,58.5,10.7c15.3,18,9.9,47.8-10.3,58.5
		c-6.9,3.4-23,5.4-44.8,5.4c-27.9,0-35.2,1.1-40.2,6.9c-5.7,6.1-6.5,31.8-7.3,254.9l-1.1,248l-12.6,11.1
		C1315.7,2518.3,1301.9,2520.2,1286.2,2511.4z"/>
	<path d="M1529.2,2513.3c-21-8.4-20.7-2.7-20.7-239.2c0-231.9,0.4-237.3,19.1-273.6c11.5-23,45.5-57.8,68.1-70
		c94.1-51.3,206.3-8.8,245.3,92.6l9.6,25.3l1.5,214.7c1.5,234.2,1.5,234.6-19.9,248.4c-12.6,8.4-34.8,5.4-45.9-5.7
		c-8-7.7-8-12.2-9.9-228.8l-1.9-220.8l-11.1-20.3c-37.1-67-126.3-67.7-167.6-1.5l-8.8,14.2l-1.9,223.1l-1.9,223.5l-12.6,11.1
		C1557.9,2517.5,1544.9,2519.8,1529.2,2513.3z"/>
	<path d="M791.4,1814.9c-13.8-20.7-1.5-29.8,13-9.6c4.6,6.1,6.9,13,5.7,15.3C805.9,1827.2,797.9,1824.9,791.4,1814.9z"/>
	<path d="M1526.1,1814.9c-13.8-20.7-1.5-29.8,13-9.6c4.6,6.1,6.9,13,5.7,15.3C1540.7,1827.2,1532.6,1824.9,1526.1,1814.9z"/>
	<path d="M546.1,1816.1c-1.1-3.1-1.5-26.8-1.1-53.2c1.1-44.4,1.5-47.5,8.8-47.5c7.3,0,7.7,2.7,7.7,51.7c0,45.9-0.8,51.7-6.9,52.8
		C551.1,1820.6,547.3,1818.7,546.1,1816.1z"/>
	<path d="M1082.6,1818c-5-4.6-2.7-16.8,3.1-18.8c9.2-3.8,18,5.4,13,14.2C1094.9,1820.6,1087.2,1822.9,1082.6,1818z"/>
	<path d="M377,1806.5c-2.7-1.1-5-6.1-5-11.1c0-6.5-2.3-9.2-7.7-9.2c-4.6,0-7.7-2.7-7.7-6.1c0-3.4,3.4-6.9,7.7-8
		c6.5-1.9,7.7-5.4,7.7-24.1c0-16.1,1.9-23.3,6.9-27.9c8.8-8,28.7-8.4,35.2-0.8s1.1,13.8-10.7,12.6c-9.9-1.1-10.3-0.4-11.5,18.8
		c-1.1,19.1-0.8,19.9,9.6,21c14.2,1.5,14.2,12.2,0.4,13.8c-8.4,1.1-10.7,3.4-10.7,10.3C391.1,1805,385,1809.2,377,1806.5z"/>
	<path d="M88.8,1786.6c-3.1-2.3-10.3-2.7-16.1-1.5l-10.7,2.3v-52.4c0-49.4,0.4-52,7.7-52c6.5,0,7.7,2.7,7.7,17.2v17.2l17.2-2.7
		c21.4-2.7,34.1,4.6,40.2,23.7C145.1,1769.4,114.1,1802.3,88.8,1786.6z M114.1,1761.3c6.9-10.7,4.2-23-6.5-29.1
		c-19.5-10.3-36.4,16.1-21.8,34.1C92.3,1774,107.2,1771.7,114.1,1761.3z"/>
	<path d="M185.2,1786.2c-20.7-8.4-25.3-47.5-7.3-64.3c7.7-7.3,12.6-8.4,35.6-7.3l26.4,1.1l1.1,33.7c1.1,34.8-2.7,45.2-13.4,36.4
		c-3.1-2.7-6.9-2.7-12.2,0C206.7,1790.8,197.1,1790.8,185.2,1786.2z M218.2,1766.3c11.5-11.5,1.1-37.5-14.5-37.5
		c-8,0-19.1,13.8-19.1,23.7C184.5,1767.5,207.4,1777,218.2,1766.3z"/>
	<path d="M284.7,1783.9c-9.6-6.5-11.5-24.9-3.4-31.4c2.7-2.3,11.9-6.5,19.9-9.2c8.4-2.7,14.9-6.5,14.5-8.8
		c-1.1-5.4-18.4-6.9-27.2-2.3c-11.1,5.7-18-2.7-9.6-11.9c7.7-8.4,38.3-9.6,48.6-1.9c7.3,5.4,9.6,23.7,3.8,29.5
		c-1.9,1.9-10.3,6.1-18.8,8.8c-22.2,7.7-20.3,16.5,3.1,14.9c9.9-0.8,18,0.4,18,2.7c0,6.5-16.5,15.7-28.7,15.7
		C298.5,1790,289.3,1787.4,284.7,1783.9z"/>
	<path d="M455.8,1784.3c-21.4-11.5-24.1-47.8-4.6-63.1c16.5-13,54.7-8.8,54.7,6.1c0,4.6-3.1,5.4-17.2,3.1
		c-13.8-1.9-19.1-1.1-24.9,4.2c-4.2,3.8-7.7,8.4-7.7,10.3c0,1.5,12.2,3.1,26.8,3.1c25.6,0,26.8,0.4,26.8,9.2
		c0,14.5-3.8,21.4-15.7,27.2C480.7,1791.6,468.8,1791.2,455.8,1784.3z M486,1770.1c8-8,5-10.7-13.4-10.7c-17.2,0-17.6,0-10.7,7.7
		C469.6,1775.9,479.1,1777,486,1770.1z"/>
	<path d="M610,1780.5c-14.9-12.6-19.1-30.6-10.7-47.1c8-15.3,16.8-19.9,37.5-19.9c17.2,0,26,5,26,14.5c0,3.8-3.8,4.6-17.2,2.3
		c-18-2.7-28.7,1.9-28.7,12.2c0,3.4,7.3,5.4,26,6.1l25.6,1.1l-0.8,11.1c-1.1,15.3-12.2,25.3-30.6,27.9
		C624.9,1790.4,620.3,1788.9,610,1780.5z M642.9,1770.1c8-8,5-10.7-10.7-10.7c-8.4,0-15.3,1.5-15.3,3.1c0,5.4,8.8,12.2,15.3,12.2
		C635.7,1774.7,640.2,1772.8,642.9,1770.1z"/>
	<path d="M705.7,1786.6c-3.4-1.9-4.6-13-3.8-37.1c1.1-31,1.9-34.1,8.8-34.1c6.9,0,8,3.1,9.6,26.8l1.9,26.8l13.4,1.9
		c8.8,1.1,13.8,4.2,14.5,8.8c1.5,8.4-8.8,12.6-19.9,7.3c-4.6-1.9-11.1-2.3-14.2-0.8C713,1788.1,708,1788.1,705.7,1786.6z"/>
	<path d="M844.6,1781.2c-7.7-6.1-10.7-13.4-12.2-26c-1.5-14.5-0.4-19.1,8.4-29.5c8.4-9.9,13-12.2,24.9-12.2c8,0,16.1,1.9,17.2,3.8
		c1.9,3.1,4.2,2.7,8-0.4c2.7-2.3,8-3.4,11.1-1.9c8,3.1,8.4,69.3,0.4,72.3c-2.7,1.1-6.9,0.4-9.2-1.9c-2.7-2.7-6.1-2.3-11.5,0.4
		C869.1,1792.3,855.3,1790.8,844.6,1781.2z M884,1766.3c10.7-10.7,0.4-37.5-13.8-37.5c-8.4,0-19.9,11.5-19.9,19.9
		C850.3,1767.8,871.4,1778.9,884,1766.3z"/>
	<path d="M997.7,1780.5c-5.4-5-9.6-11.5-9.6-14.5c0-8,12.6-18,28.3-22.2c15.7-4.2,19.1-14.9,4.6-14.9c-5.4,0-13.8,1.5-19.5,3.8
		c-8,3.1-10.3,2.7-12.2-2.7c-3.4-9.2,9.2-16.5,29.5-16.5c38.6,0,42.1,37.1,4.6,44.4c-14.2,3.1-18.8,8-12.6,14.2
		c2.7,2.7,8,2.7,17.6,0c11.5-3.8,14.2-3.4,16.1,1.5C1050.9,1790.4,1013,1796.2,997.7,1780.5z"/>
	<path d="M1083.8,1784.3c-2.3-3.1-3.8-17.6-3.1-37.1c1.1-28.7,1.9-31.8,8.8-31.8c6.9,0,7.7,3.1,8.8,34.8c0.8,27.9,0,35.6-4.6,37.1
		C1090.7,1788.5,1086.1,1787.4,1083.8,1784.3z"/>
	<path d="M1141.9,1786.6c-3.4-1.9-4.6-12.6-3.8-37.1c1.1-31,1.9-34.1,8.8-34.1s8,3.1,9.6,26.8c1.9,24.9,2.7,26.8,11.1,27.9
		c13.4,1.9,19.5-8.4,19.5-32.5c0-15.3,1.5-21,6.1-23c8.8-3.4,13,5.7,13,28.3c0,37.1-14.5,53.6-39,44c-7.7-2.7-13.8-3.1-16.5-0.8
		C1148.4,1788.1,1144.6,1788.1,1141.9,1786.6z"/>
	<path d="M1297.7,1778.9c-9.2-9.2-11.1-14.5-11.1-29.1c0-23.3,12.2-36.4,34.1-36.4c8.4,0,16.5,1.9,17.6,3.8c1.9,3.1,4.2,2.7,8-0.4
		c2.7-2.3,8-3.4,11.1-1.9c4.6,1.5,5.7,9.2,5.7,34.1c0,33.7-3.8,43.2-15.3,37.1c-3.4-1.9-8.4-1.9-11.9,0.4
		C1325.2,1793.5,1309.2,1790.4,1297.7,1778.9z M1337.9,1764.8c7.7-7.7,7.7-16.5,0-27.6c-6.9-9.9-17.6-10.7-26-2.3
		c-7.3,6.9-8,24.9-1.5,31.4C1316.8,1772.8,1331,1772,1337.9,1764.8z"/>
	<path d="M1494.4,1787.4c-3.4-1.1-5-10.7-5-28.3c0-23.3,1.1-27.9,9.6-36c13-13.4,36.7-13.4,49.7,0c8.4,8,9.6,12.6,9.6,35.6
		c0,18.8-1.5,27.2-5,28.7c-9.9,3.8-13.8-3.4-14.9-27.6c-0.8-18.4-2.7-25.6-7.7-28.7c-12.6-8-20.3,1.5-21.4,27.6
		C1508.1,1781.6,1503.6,1790.4,1494.4,1787.4z"/>
	<path d="M1604.6,1780.1c-14.5-12.2-18.8-30.6-10.3-46.7c3.4-6.5,9.6-13.8,13.4-16.1c11.5-5.7,37.1-4.6,44,2.3
		c9.6,9.2,3.4,13.8-14.9,11.1c-14.2-2.3-17.2-1.5-22.6,6.1c-13.8,19.9-2.7,36.4,23,32.5c19.1-2.3,25.6,5.4,11.9,14.9
		C1636.3,1793.1,1618,1791.6,1604.6,1780.1z"/>
	<path d="M1691.8,1778.9c-9.2-9.2-11.1-14.5-11.1-29.1c0-23.3,12.2-36.4,34.1-36.4c8.4,0,16.5,1.9,17.6,3.8c1.9,3.1,4.2,2.7,8-0.4
		c2.7-2.3,8-3.4,11.1-1.9c4.6,1.5,5.7,9.2,5.7,34.1c0,33.7-3.8,43.2-15.3,37.1c-3.4-1.9-8.4-1.9-11.9,0.4
		C1719.4,1793.5,1703.3,1790.4,1691.8,1778.9z M1731.2,1764.4c3.8-3.4,6.9-9.2,6.9-13.4c0-8-13-22.2-20.7-22.2
		c-14.5,0-23.7,26.8-13,37.5C1711,1772.8,1722.8,1772,1731.2,1764.4z"/>
	<path d="M1797.8,1787.4c-1.1-1.1-2.3-18.4-2.3-38.3c0-32.9,0.4-35.6,7.7-35.6c6.9,0,7.7,2.7,7.7,24.1c0,26.8,3.8,33.3,19.5,33.3
		c12.2,0,16.8,8.8,8.8,15.7c-4.6,3.8-8.8,3.8-16.5,0.8c-6.1-2.3-13.4-2.7-16.5-0.8C1802.8,1788.5,1799.4,1788.9,1797.8,1787.4z"/>
	<path d="M781.5,1749.9c0-33.7,0.4-36.4,7.7-36.4c7.3,0,7.7,2.7,7.7,36.4s-0.4,36.4-7.7,36.4
		C781.8,1786.2,781.5,1783.5,781.5,1749.9z"/>
	<path d="M1395.6,1782.4c-4.2-7.3,2.3-11.5,17.6-11.5c8,0,14.9-1.1,14.9-2.3c0-1.5-8-11.1-17.6-21.4c-24.9-26.8-22.6-31.8,15.7-31.8
		c26,0,30.6,1.1,31.8,6.9c1.1,5.4-1.5,6.5-18,6.5c-10.7,0-19.5,1.5-19.5,3.1s7.7,10.7,17.2,19.9c10.3,10.3,17.2,20.3,17.2,25.6
		c0,8.4-1.5,8.8-28.3,8.8C1410.9,1786.2,1396.8,1784.7,1395.6,1782.4z"/>
</g>
</svg>
