<?xml version="1.0" encoding="utf-8"?>
<!-- Generator: Adobe Illustrator 26.1.0, SVG Export Plug-In . SVG Version: 6.00 Build 0)  -->
<svg version="1.2" baseProfile="tiny" id="Capa_1" xmlns="http://www.w3.org/2000/svg" xmlns:xlink="http://www.w3.org/1999/xlink"
	 x="0px" y="0px" viewBox="0 0 190 190" overflow="visible" xml:space="preserve">
<g>
	<path fill="#FFFFFF" d="M142,139.1c-1.6,0-3.2-0.3-4.6-0.9c-1.2,0.6-2.4,0.8-3.7,0.8c-1,0-2.1-0.2-3-0.7c-1.1,0.4-2.1,0.7-3.3,0.7
		c-1.1,0-2.2-0.3-3.2-0.7c-1.3,0.5-2.7,0.8-4.1,0.8c-1.5,0-3-0.3-4.3-0.7c-1,0.5-2.2,0.7-3.4,0.7c-2.5,0-4.5-1.1-5.8-3.1
		c-0.1,0-0.2,0-0.4,0c-1.5,0-2.9-0.6-3.9-1.7H83.7v-11.5c-2.9,1.4-6.1,2.1-9.4,2.1c-4.6,0-8.8-1.3-12.3-3.7v3.1h-58V96.8
		c0-6.6,2-12,5.9-15.9c4-4,9.3-6,15.9-6c3.2,0,6,0.5,8.6,1.4c0-0.2,0.1-0.4,0.1-0.6c0.6-1.9,1.8-3.6,3.5-4.9c0.5-0.4,1-0.8,1.7-1
		c1.3-0.7,2.8-1,4.4-1c1.1,0,2.3,0.2,3.6,0.5c0.8,0.2,1.6,0.3,2.2,0.3c0,0,0.1,0,0.1,0l0.8-0.7h1.6c2.1,0,3.9,1.3,4.5,3.3
		c0.3,1,0.4,2.1,0.2,3.1c1,0.1,1.9,0.4,2.6,1c1.4-0.8,3-1.2,4.6-1.2c1.6,0,3.2,0.4,4.5,1.2c0.9-0.8,2-1.2,3.2-1.2
		c0.6,0,1.1,0.1,1.6,0.3c0.6-0.2,1.3-0.4,2-0.4c1.8,0,3.4,0.5,4.6,1.5c1.5-1,3.2-1.5,5-1.5c2.1,0,3.6,0.6,4.6,1.4
		c1.5-0.9,3.2-1.4,5-1.4c2.2,0,4.3,0.8,5.8,2.2c0.9,0,1.8,0.3,2.5,0.8c1.7-1.9,4.1-3,6.7-3c0.4,0,0.8,0,1.2,0.1
		c0.6-1.4,1.4-2.7,1.7-3c0.6-0.9,1.7-1.9,3.8-2.1l0.1-0.2c0,0,0-0.1,0.1-0.1c0.6-0.9,1.1-1.6,1.8-2.2c-0.1-0.3-0.2-0.6-0.2-0.9
		c-0.1-1.2,0.5-2.4,1.5-3.1c1.4-0.9,3-1.3,4.4-1.6c0.3-0.1,0.5-0.1,0.7-0.2c0.8-0.2,2.3-0.5,3.8-0.6c0,0,0.1,0,0.1-0.1
		c0.5-0.5,1-1,1.5-1.3c0-0.2-0.1-0.5-0.1-0.8c-0.1-0.5,0-1,0.1-1.5l0-0.2c0-0.1,0-0.1,0-0.2l0.2-0.9c0.4-1.7,2-2.8,3.8-2.5
		c1.3,0.2,2.5,0.8,3.8,1.3c0.7,0.3,1.4,0.7,2,0.8c1-0.3,2-0.4,3.3,0.2c0.5,0,0.9,0.1,1.4,0.3c0.1,0,0.1-0.1,0.2-0.1
		c0.4-0.2,1.8-0.7,3-1.1c0.2-0.3,0.3-0.6,0.5-0.9c0.3-0.6,0.7-1.3,1.2-1.9c0.9-1.1,2.4-1.5,3.8-1c1.3,0.5,2.2,1.8,2.2,3.3
		c0,0.3,0,0.7-0.1,1c1.4,0.7,2.5,1.9,3.4,2.9c0.4,0.5,1.2,1.2,1.9,1.9c0.4-0.1,0.9-0.2,1.4-0.2c0.6,0,1.2,0.1,1.7,0.4
		c0.7-0.3,1.3-0.4,1.9-0.5c0.2,0,0.4-0.1,0.7-0.1c0.1,0,0.2-0.1,0.3-0.1c0.6-0.2,1.3-0.2,2-0.1c1.7,0.5,2.8,2.2,2.4,4l-0.1,0.6
		c1.8,0.9,3.7,2.1,4.4,4.6c0,0.1,0.1,0.2,0.1,0.4c0.3,0.4,0.6,1,0.8,1.6c0.1,0.4,0.2,0.8,0.2,1.2c0.1,0,0.2,0.1,0.2,0.1
		c0.5,0.2,0.9,0.4,1.2,0.6c0.3,0.2,0.5,0.3,0.8,0.4c1.2,0.5,1.9,1.6,2,2.8c0,0.4,0,0.8-0.1,1.2c0.6,0.7,1.1,1.5,1.3,2.4
		c0.2,0.2,0.4,0.4,0.6,0.7c0.5,0.8,0.6,1.7,0.4,2.6c0,0,0,0.1,0,0.1c0.1,0.2,0.1,0.4,0.1,0.5c0.2,1.1,0.3,2.1,0.3,3.1
		c0.6,0.1,1.3,0.4,1.8,0.8c1,0.9,1.4,2.2,0.9,3.5c-0.1,0.3-0.2,0.5-0.2,0.8c-0.1,0.5-0.3,1-0.5,1.6c0,0.3-0.1,0.5-0.2,0.7l0,0.1
		c-0.1,0.5-0.3,0.9-0.5,1.2c0,0.1-0.1,0.1-0.1,0.2c0,0,0,0.1-0.1,0.1c-0.2,0.3-0.3,0.7-0.5,1.1c-0.4,0.9-0.9,1.8-1.5,2.6
		c0,0.1,0,0.1,0.1,0.2c0.1,0.3,0.2,0.6,0.4,1c0.1,0.3,0.2,0.6,0.3,0.9c0.8,2.1,0.8,4,0.2,6c0.1,1.1-0.2,2-0.6,2.8
		c-0.2,0.5-0.5,1-0.7,1.5c-0.2,0.3-0.4,0.7-0.5,1c-0.2,0.3-0.3,0.7-0.5,1c-1.3,2.7-3,6.3-7.4,5.4c-0.4,0-0.7,0-1-0.1
		c-1,1.5-2,2.7-2.9,3.5c0.5,0.5,0.9,1.2,1.1,1.9c1.5,0.2,2.9,1,3.8,2.2c1.1,1.4,1.4,3.2,0.9,5l-0.1,0.4l-0.2,0.4
		c-2.3,4.6-5.3,6.9-9,6.9c-0.8,0-1.6-0.1-2.3-0.4c-0.7,0.2-1.4,0.4-2.2,0.4c-1.2,0-2.5-0.2-3.6-0.7c-1,0.5-2.2,0.7-3.3,0.7
		c-1.2,0-2.3-0.3-3.3-0.8c-0.9,0.5-1.9,0.8-3,0.8c-1.1,0-2-0.2-2.9-0.5C144.3,138.9,143.2,139.1,142,139.1"/>
	<path fill-rule="evenodd" d="M183.8,88.5c-0.5-0.4-1.1-0.5-1.7-0.3c-0.2,0.1-0.4,0.2-0.5,0.3c-0.1-0.1-0.2-0.1-0.3-0.2c0,0,0,0,0,0
		c0.2-1.7,0.3-3-0.1-4.7c-0.1-0.3-0.2-0.7-0.2-1c0-0.1,0.1-0.3,0.1-0.3c0.1-0.5,0.1-0.9-0.2-1.3c-0.2-0.3-0.4-0.5-0.7-0.6
		c-0.2-1.3-0.9-2.3-2-3.1c0.4-0.3,0.7-0.8,0.6-1.4c0-0.6-0.4-1.1-1-1.4c-0.7-0.3-1.2-0.8-2-1.1c-0.4-0.2-0.8-0.4-1.3-0.5
		c0-0.6,0-1.3-0.1-1.9c-0.1-0.5-0.4-1-0.8-1.3c0-0.2,0-0.4-0.1-0.7c-0.6-2.3-2.8-3.1-4.7-4.1c0.1-0.2,0.1-0.4,0.1-0.7l0.3-1.3
		c0.2-0.8-0.3-1.7-1.1-1.9c-0.3-0.1-0.7-0.1-1,0c-0.1,0-0.2,0.1-0.3,0.1c-1.2,0.3-2.2,0.4-3.4,1.1c-0.3-0.5-0.8-0.8-1.4-0.8
		c-0.8,0-1.2,0.2-1.7,0.6c-1-0.7-2.4-2.1-3-2.8c-1.1-1.3-2.4-2.6-4-2.9c0.2-0.7,0.3-1.5,0.3-2.2c0-0.7-0.4-1.3-1-1.6
		c-0.7-0.2-1.4-0.1-1.8,0.5c-0.8,1-1.1,2-1.7,2.9c-0.1,0.1-0.2,0.3-0.3,0.4c-1.1,0.3-2.7,0.9-3.3,1.1c-0.2,0.1-0.7,0.3-0.9,0.3
		c-0.7-0.3-1.1-0.4-1.8-0.4l-0.1,0c0,0,0,0-0.1,0c-1-0.5-1.7-0.4-2.6,0c-1.7-0.3-4.1-1.9-6.1-2.2c-0.8-0.1-1.6,0.4-1.8,1.2l-0.2,0.9
		c0,0,0,0.1,0,0.1l-0.1,0.3c-0.1,0.4-0.1,0.7-0.1,1c-0.1,0.5,0.1,1,0.5,1.5c0,0,0,0.1,0,0.1c-0.2,0.1-0.5,0.2-0.7,0.4
		c-0.7,0.5-1.4,0.9-1.9,1.6l-0.1,0c-0.1,0.1-0.2,0.1-0.3,0.2c-0.1,0.1-0.1,0.1-0.2,0.2c-1.3,0-3.1,0.4-4,0.6
		c-1.5,0.4-3.3,0.8-4.6,1.6c-0.5,0.3-0.8,0.9-0.7,1.5c0,0.6,0.4,1.1,0.9,1.4c0,0,0,0,0,0c-1.2,0.5-2.2,1.6-2.9,2.7c0,0,0,0,0,0
		l-0.6,1.1c-0.1,0-0.2,0-0.3,0c-1.2,0-2.4,0.3-3.1,1.4c-0.7,1-1.7,2.8-1.9,4.2c-0.7-0.3-1.5-0.5-2.4-0.5c-2.9,0-5.4,1.7-6.6,4.1
		c-0.4-1.1-1.3-1.9-2.6-1.9c-0.2,0-0.4,0-0.6,0.1c-1.3-1.4-3.2-2.3-5.2-2.3c-2,0-3.8,0.8-5.2,2c-0.9-1.3-2.4-2-4.4-2
		c-2.1,0-3.9,0.8-5.2,2.1c-0.1-0.1-0.2-0.3-0.3-0.4c-1-1.3-2.5-1.8-4.1-1.8c-0.7,0-1.4,0.2-2,0.5c-0.4-0.3-1-0.5-1.6-0.5
		c-0.8,0-1.6,0.4-2.2,0.9c-0.3,0.3-0.6,0.5-0.9,0.7c-1.3-1.1-2.9-1.7-4.6-1.7c-1.8,0-3.5,0.6-4.8,1.7c-0.6-0.9-1.7-1.5-2.9-1.5
		c-0.4,0-0.8,0.1-1.2,0.2c-0.4,0.1-0.9,0.2-1.3,0.3c-0.1-0.1-0.1-0.1-0.2-0.2c2.4-1.8,2.1-6.7-1.5-6.7h-1l-0.7,0.6
		c-0.1,0-0.6,0.1-0.8,0.1c-0.9,0-1.8-0.2-2.6-0.4c-1-0.3-2.1-0.5-3.2-0.5c-1.3,0-2.5,0.3-3.7,0.8c-0.5,0.2-0.9,0.5-1.3,0.8
		c-1.3,1-2.4,2.4-2.9,4c-0.3,0.9-0.3,1.8-0.1,2.7c-3.1-1.7-6.6-2.4-10.2-2.4c-5.5,0-10.7,1.5-14.7,5.5c-3.9,4-5.4,9.2-5.4,14.7v25.9
		h54.6v-5c3.9,3.7,8.7,5.6,14.1,5.6c4.1,0,7.8-1.2,11.2-3.4v12.7h18c0.6,1,1.8,1.7,3,1.7c0.5,0,0.9-0.1,1.3-0.2
		c0.8,1.9,2.3,3.2,4.8,3.2c1.2,0,2.3-0.3,3.3-0.9c1.4,0.6,2.9,0.9,4.4,0.9c1.5,0,2.9-0.3,4.2-1c0.9,0.6,1.9,1,3.1,1
		c1.2,0,2.3-0.3,3.3-0.9c0.8,0.6,1.8,0.9,2.9,0.9c1.3,0,2.5-0.4,3.6-1c1.4,0.7,3,1.1,4.6,1.1c1.2,0,2.4-0.2,3.5-0.7
		c0.8,0.5,1.8,0.6,2.8,0.6c1.2,0,2.3-0.4,3-1.2c0.8,0.7,1.9,1.2,3.4,1.2c1.2,0,2.3-0.3,3.3-0.9c1.1,0.6,2.4,0.9,3.6,0.9
		c0.8,0,1.5-0.2,2.2-0.5c0.7,0.4,1.5,0.5,2.3,0.5c3.7,0,6-2.9,7.5-6l0.1-0.2l0.1-0.2c0.8-2.5-1.1-5-3.7-5c-0.3,0-0.5,0-0.7,0.1
		c0-0.1,0-0.3,0-0.4c-0.1-1.9-1.4-2.9-2.9-3.2c0.5-0.2,0.9-0.4,1.4-0.7c1.4-0.9,3-3,4.2-4.9c0.1,0.1,0.2,0.1,0.3,0.2
		c0.5,0.2,1,0.4,1.5,0.3c3.7,0.9,4.7-2.3,6.3-5.4c0.4-0.8,0.9-1.6,1.3-2.4c0.4-0.8,0.6-1.4,0.4-2.2c0-0.1,0-0.1,0.1-0.2
		c0.6-1.8,0.6-3.3-0.1-5.1c-0.2-0.6-0.5-1.2-0.7-1.9c-0.1-0.4-0.2-0.7-0.3-1.1l0.1-0.2c1-1,1.6-2.8,2.3-4c0,0,0,0,0,0
		c0.2-0.4,0.4-0.6,0.5-1.1c0.1-0.3,0.2-0.6,0.2-0.9c0.4-0.8,0.5-1.5,0.8-2.4C184.5,89.6,184.3,89,183.8,88.5"/>
	<path fill-rule="evenodd" fill="#8B1913" d="M167.2,66.1c1.9,1,4.3,1.7,4.8,3.5c0.1,0.5,0,0.8,0.2,1.2c0.6,1.1,0.4-0.3,0.7,0.8
		c0.1,0.4,0,1.9,0.1,2.5c0.8,0.4,1.4,0.6,2.2,0.9c1,0.5,0.9,0.6,2,1.1l-1,0.6l-0.9,0.8l0.6,0.3c2.1,1,3,2.1,2.8,3.8l0.5,0.2l0.4,0.1
		c-0.3,1-0.1,1.1,0.1,2.1c0.3,1.5,0.3,2.6,0.1,4.2c-0.2,1.5-0.3,1,1.1,1.8c-0.6,0.7-1.1-0.2-1.3,2.2l0.4,0.2c0.5-0.3,0.8-1,1.3-1.5
		c0.5-0.4,0.3-0.2,0.8-0.6l0.6-0.5c0-0.1,0.1-0.1,0.1-0.1c-0.3,0.9-0.4,1.9-1,2.8c0.2,0.4,0.2-0.2,0,0.6c-0.1,0.2-0.2,0.5-0.3,0.7
		c-0.5,0.9-1.4,3.1-2.1,3.7l-0.7,1c0.2,0.4,0.4,1.3,0.6,1.8c0.6,1.9,1.7,3.3,0.8,6c-0.5,1.6,0.4,0.7-0.4,2.2
		c-0.4,0.8-0.9,1.6-1.2,2.4c-2.1,4.2-2.4,5.4-5.2,4.4c-0.4,0.1,0.3,0.4-0.5,0l0.4-1l1.1-2.4c0-0.1-0.1-0.2-0.2-0.3
		c0-0.1-0.1-0.1-0.1-0.1c0,0-0.1,0-0.2-0.1c-1.1,0-1.1,0.5-1.8,1.7c-1.1,2-3.5,6-5.2,7.1c-0.8,0.5-1.3,0.7-2.1,1
		c-3.7,1.4-2.2,1.7-6.2,2.7c-0.9-0.2-0.4-0.2-1.1,0.3c-0.5-0.1-4.2,1.3-5.1,1.4c-0.4,0-1,0-1.4,0.1c-1.3,0.3-2.3,0.5-4,0.3
		c-10,0.8-14.2-2.5-20.2-5.5c-0.6-0.1-4.3-3.9-7.8-7.9c0.3-0.2-0.1,0.2,0.5-0.4c-0.2-0.7-0.1-0.3-0.3-0.7l-0.4-0.4l-1.4-4.3
		c0-0.4,0-0.1-0.1-0.5l-1.3-3.2c-0.2-0.5-0.4-0.8-0.7-1.2l0-0.2c0-0.8-0.1-1.5-0.5-2.3c0.1-0.5,0-0.9-0.2-1.2
		c0.1-1.2-0.3-1.7-0.4-2.9l-0.3-2.8c0.3-1.3-0.3-2.2,0-3.3c0.1-0.6,1.1-2.8,0.8-3.4c-0.9-0.2-1.2,0.1-2-0.1c1.2-2.3,2.5-4.2,3.9-6.2
		l0.6-0.9l0.1-0.5l-0.6-0.3l-0.8-0.3l3.7-6.2c0.6-0.9,1.3-1.8,2.2-2.1c2.1-0.9,0.9-1.4,2.2-1.3c0.2-0.5-0.3-0.5-0.9-0.9
		c-0.5-0.3-0.8-0.5-1.4-0.8c1.1-0.7,2.9-1.1,4.2-1.4c0.8-0.2,3.5-0.7,4.3-0.5c0.3-0.3,0.3-0.3,0.5-0.5c0,0,0.1-0.1,0.1-0.1l0.4-0.2
		c0.3-0.6,1.1-1.1,1.6-1.4c0.6-0.4,1.3-0.4,1.6-0.8l0.1-0.2l-0.4-0.3c0.1-0.6,0.3-0.6,0-1.3c-0.5-0.5-0.6-0.4-0.2-1.1
		c-0.2-0.2-0.4,0.2-0.2-0.2l0.1-0.5l0.2-0.9c2,0.3,4.5,2.2,6.6,2.3c0.7-0.3,1-0.5,1.7-0.2l0.4,0.2c2-0.1,1.2,1,3.7-0.1
		c0.5-0.2,3-1.1,3.3-1.1c1.4-0.9,1.6-2.5,2.6-3.7c0,0.6-0.1,1.3-0.3,2c-0.4,1.8-0.2,1.6,0.1,1.9c1.7-0.6,3.3,1.1,4.3,2.3
		c0.7,0.8,2.9,2.9,3.8,3.5c0.6,0,0.1,0.1,0.7,0c0.5-0.4,0.8-0.7,1.3-0.7l-0.8,1.3c0.1,0.4,0.1,0,0,0.5c-0.1,0.5-0.5,0.7-0.6,1.4
		l0.6-0.8c0.3-0.3,2.4-1.6,3-1.9c1.2-0.8,3.1-0.9,3.2-1c0,0,0.1,0,0.1,0l-0.3,1.4C167.4,65.4,166.8,64.8,167.2,66.1"/>
	<path fill-rule="evenodd" fill="#FFFFFF" d="M126.1,75.3c-1.2,0.4-1.8,1.3-3,2c-0.9,0.5-1.8,2-2.6,2.7c-1.6,1.3-3.1,5.2-3.9,7.2
		c-0.9,2.2-1.1,9.9-0.4,12.7l0.3,0.6c1.4,1,1.7,3,3.6,5.1c1.6,1.7,0.1,1.2,3.1,4.3c0.7,0.7,1.6,3,4.6,3.8c1.3,0.3,0.8,0.4,1.6,0.3
		c1-0.1,0.1-0.1,1.4,0.1c0.7,0.1,1.1,0,1.5,0c1.2,0.1,1.5,1.6,5,2.3l-0.6-1c-0.5-0.7-0.6-0.5-0.5-1.5l-1.3-0.8c0,0,0-0.2,0-0.2
		c0,0,0-0.1,0-0.1l-0.1-0.3c0,0,0-0.1-0.1-0.1l-0.4-0.5l0,0l-2-1.4c0.3-0.8,0.1-1,0.2-1.8l-1.5-1.6c0.7-0.5,0.1,0,1-0.4
		c-0.3-0.5-0.9-1-1.4-1.5l-0.9-1c-0.3-0.5-0.2-0.2-0.3-0.5c0.7-0.4,0.3,0.1,0.9-0.4c-0.3-0.5-0.8-0.8-1.5-2.1
		c-0.6-0.4-0.6-0.2-0.6-0.7l-0.4-0.4l0.7-0.4c-0.3-0.2-0.8-0.4-1-0.6l-0.4-0.9c-1-0.4-1.8-1.4-2.6-2.3c0.5-0.3-0.1,0,0.4-0.4
		l-0.1-0.2c-0.4-0.8-0.7-0.8-1.6-1.4l0.3-0.7l0-0.2c0-0.1,0-0.1,0-0.2c-0.4-1.6-0.4-0.4,0.2-1.9c-0.8-0.6-0.4-0.4-0.7-1
		c-0.4-0.5-0.8-0.6-1.4-1c0.3-0.3,0.4,0.2,1-0.7l-0.4-0.4l0.5-0.1l0.7,0.1c0.1-0.8,0.1-0.2-0.4-0.9c1.9,0.8,4.2,2.4,5.5,3.8
		c-0.2,0.9-0.2-0.4-0.4,0.3c1.5,1.2,5.1,4.4,4.8,6.7c-0.1,0.6,0.2,0.6,1.1,1.5c1,1,0.6,0.4,0.7,1.5c0.8,0.6,1.5,1,1.2,1.9
		c0.6,0.4,0.6,0.6,0.8,1.2c0.3,0.7,0.5,0.6,0.9,1.3c1.3,2,0,1,0.9,2.5c0.3,0.5,0.3,0.6,0.4,1.3c0.6,2-0.4,1.2,1.3,4.3
		c-0.4,0.7,0.2-0.4-0.3,0.3c0,0-0.1,0.1-0.1,0.1c0,0,0,0.1-0.1,0.1c-0.2,0.5,0.1,0.9,0.3,1.2l-1.1,0.6c0,0-0.1,0.1-0.1,0.1
		c-0.2,0,0,0-0.4,0c-0.1,0-0.3,0-0.4,0c-0.5,0-0.1,0.1-0.8,0c-0.1,0.7-0.3,0,0.9,0.7c1.1,0.6,0.2,0,0.7,0.9c0.5,1,1.4,1,2.2,1.4
		c0.7,0.4,1.3,1.2,2.4,1.4c1,0.2,0-0.3,1.1,0.1c0.6,0.2,0.6,0.3,1.3,0.5c0.5,0.1,2,1.5,4.4,0.9c1.5-0.4,0.4-0.6,1.9-1.3
		c1.2-0.5,1-1.2,1.5-2.2c0,0,0.1-0.1,0.1,0l0.6,0c1.4,0.1,3.7,1.6,5.6,2.2c0.7-0.4,0.2-0.1,0.7-0.1c1.2-1.1,2.1-1.1,3.3-2.2
		c1.4-1.4,1.8-0.3,3.3-2.9c0.5-0.9,0.9-1.3,1.5-2c0.6-0.7,0.8-1.3,1.3-2.1c0.5-0.7,1-1,1.6-1.7c2-2.4,1.5-2.6,2.7-6.2
		c0.6-1.8,0.9-2.5,0.4-4.2c-0.4-1.3-0.5-2.6-1.2-3.7c-0.5-0.8-0.7-0.8-0.9-1.7c-0.3-1.8-0.5-0.9-0.4-1.8c-0.4-0.5-0.6-0.6-0.7-1.3
		c-0.8-0.6-0.6-1.1-1-1.8c-0.2-0.5-0.9-1.5-1.2-1.9c-0.1,0.4,0,0.2-0.2,0.4c-0.1-0.2-0.3-0.3-0.4-0.4c-0.2-0.3-0.4-1.2-1-1.8
		c-0.3-0.3-0.4-0.4-0.8-0.6L155,77.2c-0.4-0.1-0.1,0.1-0.6,0.1l-1.1-0.1c-1.8-0.6-2.3-0.2-2.3-0.2c0,0-0.1,0-0.1,0
		c-0.8,0-2-0.9-2.8-1.3c-0.7,0.4-0.1,0.4-1.3,0.3l-2.9-0.3c-0.4,0,0.1,0-0.4,0c0,0-0.1,0-0.1,0c0,0-0.1,0-0.1,0
		c-0.6-0.1-0.3-0.2-1.2-0.2c-1.2,0.1-1.4-0.4-2.4,0.3c-0.5,0.3-0.4,0.4-1.1,0.4c-1,0.1,0.3,0-0.3,0c-0.6,0-0.9-0.3-1.5-0.4
		c-0.7-0.1-0.4-0.1-0.8,0.1l-1.3,0.5c-2.8,1.1-2.1,0.3-3.4,0.9c-0.7,0.3-0.6,0.4-1.4,0.6l-1.4,0.5c0,0-0.1,0-0.1,0.1l-2,0.8
		c0,0-0.1,0.1-0.1,0.1c0,0-0.1,0-0.1,0.1l-0.1-0.2c-0.2-0.3-0.3-0.4-0.9-0.5c-0.8-0.2-0.4,0.1-1.4-0.4c0.9-1.4,0.6,0.5,1.2-1.5
		c0,0,0-0.1,0-0.1c0,0,0-0.1,0-0.1C125.1,76.3,125.8,76.2,126.1,75.3 M159.8,99.8c-0.7-0.4-1.3-0.7-1.8-1.4c-0.6-1,0.3-0.2-1.1-1.3
		c-0.8-0.7-1.3-1.9-1.2-2.8c0.1-1.5,0-0.5-0.7-1.5c-0.5-0.7,0-0.6-0.7-1.4c-1.4-1.5-1.5-3.1-2.6-4c-2-1.7,0.1-0.2-1.7-3l-0.3-0.5
		c-0.2-0.6,0,0-0.1-0.7c-0.1-0.9-0.3-0.9-0.9-1.5c-0.9-0.8-0.4-0.5-0.6-1.3l-0.5-1.4c-0.1-0.1-0.9-1.1-1-1.2l0.4,0
		c0.8,0,0.8,0.5,0.8-0.2c0-0.3-0.5-0.8,1.4,0c4,1.6,2.2,1.1,4.3,2.3c1.9,1.2,0.5,0.7,1.3,1.6c0.6,0.6,1.8,0.7,2.2,1.5
		c0.4,0.7-0.3,0.4,0.7,1.7c1.4,1.8,1.4,2.9,2.9,4.2c1.3,1.2,0.5,0.7,1.2,1.7c1.8,2.4,0,1.1,1.2,2.6l1.7,2.6c0.2,0.5-0.1,0.3,0.2,0.9
		c0.1,0.4,0.3,0.5,0.4,0.9c0.2,0.7-0.1,0.3,0,1c0.1,0.8,0.6,0.6,0.6,1.8c0,1.4-0.6,1,0.1,1.9c-0.4,0.3-0.5,0.3-0.8,0.7
		c0.3,1.3,0.3,0.3,0.3,1.6c0,1.2,0.4,0.9-0.3,1.6c-0.9-0.1-1.1-0.9-1.6-1.9c-0.4-0.8-0.5-0.5-1-1.1c-0.6-0.7-0.1-0.3-0.5-1.1
		c-0.3-0.4-1.1-0.1-1.8-1.2c0,0,0-0.1-0.1-0.1c0,0-0.1-0.1-0.1-0.1C159.7,99.9,159.7,100.3,159.8,99.8 M141.7,84.8l1.3,0.4l0,0.5
		c0,0.1-0.1,0.3-0.1,0.5l0,0.5c0,0.3-0.1,0,0.2,0.6c0.8,0.5,1.8,1.9,2.6,2.6c0,1.1,0.2-1-0.1,0.5c-0.2,0.8,2.2,3.9,2.4,4.1
		c0.4,0.5,1.1,0.9,1.3,1.4c0.2,0.5-0.2,0.8,0,1.4c0.1,0.3,0.7,0.7,0.9,0.9c0.1,0.5,0.2,0-0.2,0.4c-0.1,0.2-0.1,0.1-0.4,0.1
		c0.2,0.5,0.4,0.7,1,0.8l0.3,0.5c-0.4,1.1-0.5,0.3-0.1,1.4c0.4,0.9,0.1,0.4,0.3,1.2c0.1,0.4,0,0,0.1,0.4c0.9,1.8-0.4,0.9,1.1,2
		l-0.6,1.1c0.5,0.5,1.1,1.5,1.3,2.1c0.5,1.5-0.3,0.8,0.2,1.8l0.2,0.2c-0.9,1.2-0.4-0.5-0.7,0.7c1,0.8,1.6,0.8,2,1.8
		c-0.2,0.4-0.8,0.6-1.4,1.1l-0.8-0.3l-0.5,0.2c-0.6-0.3-1.2-0.6-1.9-0.9c-0.5-0.2-1.7-1.7-1.8-2.2c-0.1-0.5,0.3-0.2-0.7-1.2
		c0.4-1.4,0.9-0.4-1.2-3.7c-0.6-1-1.6-1.6-1.9-2.4c-0.5-1.3,1,0.1-2.1-2.7l-0.1-0.5l0.6,0c0.6-0.1,0.2,0.2,0.6-0.5
		c-0.5-0.6-1.2-1-1.8-1.7c-0.8-0.9-1.4-0.9-1.3-2l0.4-0.2c0.1-0.1,0.1,0,0.2,0c-0.3-0.3-0.3,0.1-0.1-0.5c-0.4-0.5-0.3-0.5-0.5-1
		c-0.1-0.3-0.3-0.6-0.5-0.9c-0.8-0.9,0.1-0.4-1.3-1.4l0.2-0.6c-0.6-0.4-0.3-0.5-0.7-0.9c-0.3-0.3-0.6-0.5-0.9-0.7l0.4-0.7l-0.2-0.1
		c-0.3-0.9,0.1-0.5-0.8-1.4c-0.5-0.5-0.6-0.6-1.2-1c0.8-0.3,0.5,0.2,1.1-0.6l-0.6-0.3l-0.8-0.8c0-0.4,0.4-0.4,0.2-0.9
		c-0.2-0.4-1.3-1.1-1.5-2.5c0.8,0,0.6,0.4,1.1-0.1c-0.3-0.5-0.2-0.4-0.3-1l0.3,0c0,0,0.1,0,0.2,0c0.7,0.1,0.4,0.2,0.7-0.1
		c0.4-0.3-0.3-0.6,0.8-0.6c1.2,0.1,1.1,1.1,1.5,1.7c0.8,1.2,2.6,1.6,3.1,2.8l0.2,0.4C141.5,84.6,141.3,84.5,141.7,84.8"/>
	<path fill-rule="evenodd" d="M163.9,73.5c-0.7-0.2-0.9-0.4-1.4-0.6c-0.5-0.1-0.4,0-1-0.1c-0.4,0.1,0.3,0.5-0.6-0.1
		c-0.4-0.3-0.1-0.1-0.4-0.5l-0.3,0.2c0,0-0.1,0-0.2,0c-0.7,0.2,0.7,0.2-0.4-0.1c0-0.8,0-0.4-0.5-1.1c0.7,0,0.1,0.1,0.5-0.2
		c-1-0.5-0.2,0.2-1.1-0.5l0.4-0.7c-0.5-0.1-0.2,0-0.3-0.3c-1.2,0-0.2,0.4-1.2-0.1c-0.4-0.2-0.6-0.4-1.2-0.5
		c-0.8-0.2-1.8,0.2-2.5,0.3c-1.2,0.3-2.5-1.5-3.6-2.1c-1-0.5-1.7-0.3-2.5-0.6c-0.7-0.3-1.5-0.9-2.3-0.7c-0.7,0.7-0.3,0.4-0.4,0.3
		c1.1,0.5,3.1,0.8,3.8,2.1c-0.7,0.6-5.7-0.5-6.6-0.2c-0.9,0.4-1.1,0.3-2.2,0.3l-2,0.2c-2.9,0.2-0.5,1-2.1,0.3
		c-0.4-0.2-0.5-0.5-0.7-0.7c0.1-0.9,0.6-0.9,1.3-1.3c-0.3-0.3-0.2,0-0.1-0.5l-0.3,0.1c-1.1,0.4-0.7,0.5-1.3-0.1l-0.1,0.6l-1.4,0.2
		l0.9,0.3l0.3,1.5c-0.9,0.3-1.7,0.3-2.7,0.6c-0.9,0.3-1.8,1-2.8,1.3c-0.3,0.3-1,0.6-1.6,0.6c-0.6,0.2-0.3,0.2-0.9-0.1l0,0.4
		c0,0.4,0,0.1-0.1,0.5l-0.9,0.2c0.4,0.5,0.4-0.1,0.1,0.6c0,0-0.5,0.5-0.5,0.5c-0.9,0.6-0.3,0.7-1.3,0.3c-0.5,0-0.3,0.2-1.1,0.1
		l1-1.9l-0.1-0.3c-0.7,0.4-0.9,0.6-1.6,1.3c-1.7,1.7-1.6,0.8-3.4,3.2c-0.7,0.9-0.8,1.1-1.7,1.3l0.1,0.2c-0.9-0.5,0.1-0.1-0.5,0.1
		l1.2,0.3c0.2-0.4,0.3-0.8,0.8-0.9c0.7-1.2,2.4-3.2,3.5-3.7c0.1,0.8-0.5,1-1,1.7c-0.5,0.8-0.4,1.2-1,2c-0.7,1.1-1.9,2.1-2.7,3.1
		c-0.5,0.6-0.1,0.2-0.4,0.2l0.1-0.5l0.5-1.2l-0.1-0.4c-0.6,0.8-0.4,0.4-0.6,0.5l-0.6,0.9l0.9-0.5c-0.4,1-2.4,3.1-3.1,4.8l0.3-0.2
		c0.8-0.8,1.4-2.3,2.1-3.1c0,0,0.3,0.1-0.2,1.2c-0.2,0.5-0.5,0.8-0.8,1.3c-0.5,1.1-0.2,1.7-1.1,2.2l0.4,0.2l-0.3,0.3
		c0.3,0.5-0.7,2.7-0.8,3.4c-0.2,1.1,0.4,2,0,3.3l0.3,2.8c0.1,1.2,0.5,1.7,0.4,2.9c0.2,0.4,0.4,0.8,0.2,1.2c0.4,0.7,0.5,1.4,0.5,2.3
		l0,0.2c0.3,0.4,0.5,0.7,0.7,1.2l1.3,3.2c0.1,0.4,0,0.1,0.1,0.5l1.4,4.3l0.4,0.4c0.3,0.4,0.2-0.1,0.3,0.7c-0.5,0.6-0.2,0.2-0.5,0.4
		c3.5,4,7.1,7.7,7.8,7.9c6,3.1,10.2,6.3,20.2,5.5c1.7,0.2,2.7,0,4-0.3c0.4-0.1,0.9,0,1.4-0.1c0.9-0.1,4.6-1.4,5.1-1.4
		c0.7-0.5,0.2-0.5,1.1-0.3c4-1,2.6-1.3,6.2-2.7c0.8-0.3,1.3-0.5,2.1-1c1.7-1.1,4.1-5,5.2-7.1c0.6-1.2,0.7-1.7,1.8-1.7l0.4-0.4
		l0.5-0.1c-0.2,1,0.2-0.4-0.1,0.4l-0.3,0.6l-1.1,2.4c0.5,0,0.1,0.2,0.5-0.2c0.2-0.2,0.3-0.5,0.4-0.7l1.5-2.7
		c-0.1-0.6,0.4-1.2,0.7-2.2c0.5-1.3,0.1-1.5,0.1-2.1c0-0.7,0.7-1.5,1.1-2.2c0.2-0.4,0.4-0.8,0.6-1.2c0.1-0.2,0.2-0.4,0.2-0.6
		c0.2-1,0.1-0.1,0-0.6l-0.5,0.9L177,104l-0.5,0.4l0-0.7c-0.3,0.1-0.9-0.3,0.1-0.9l0.1-0.8c-0.4-0.4-0.4-0.3-0.2-0.8l0-0.6
		c0-0.4,0.1-0.1,0-0.6c-0.1-0.6-0.2-0.7,0-1.5l0.1-0.6l-0.2-0.3l0.1-0.5c-0.1-0.5-0.1-0.8-0.1-1.4c0-0.4,0-0.5,0.3-0.8
		c0.9,0.3,0.2,0.1,0.3,0.4l0.6,0.7l0.2,0.1c-0.1-0.5,0-0.1-0.2-0.5c0,0-0.1-0.1-0.1-0.2c0-0.1,0-0.1-0.1-0.2l-0.6-1
		c-0.3-0.5-0.2-0.4-0.6-0.7l-0.5-0.5c0,0.7,0.2,0.9-0.2,1.5c-0.6-0.9-0.4-1.3,0.1-2.3l0.1-0.2c-0.2-0.3,0-0.1-0.3-0.3
		c-0.5-0.4,0.2,0.3-0.4-0.3c0.2-1.3-0.1-1.2,0.7-2.1c-0.2-0.8-0.2-1.6-0.4-2.3c-0.1-0.5-0.3-1.7-0.3-2.2l-0.1-0.2
		c-0.1-0.7-0.8-1.7-1.3-2.3c-0.5-0.7-0.5-0.4-1.1-1c-0.3-0.3-0.5-0.7-0.7-1l-0.6-0.4c-0.5,0.2-0.2,0-0.3,0.3c0,0.3,0,0.6-0.1,0.9
		l0.1,1c-0.7-0.6-0.5-0.2-0.6-0.9l-1.1-1c-1.2-1.1-2.4-3-3.4-3.7l-1-0.5c1.5-0.1,1.3,0.4,3.6,1.8c0.3-0.2,0.3,0.1,0-0.4l0.6,0.4
		l0.9,0.5l0.5-0.7l-1.5-0.9c-0.4,0.1,0,0.1-0.5,0c-0.1,0-0.2-0.1-0.3-0.1c-0.1,0-0.3-0.2-0.5-0.3c-0.3,0.1,0,0.5-0.8,0
		c-0.3-0.2-0.4-0.3-0.9-0.6l-0.7-0.4c0.5-0.7,1.2-0.9,2-1l1.5,0l0-0.2c-0.5-0.6-1-0.4-1.8-0.2c-0.9,0.2-0.7,0.2-1.6,0.7
		C164.8,74.4,165.2,74.1,163.9,73.5 M163.8,74.5c0.6,0.3,0.8,0.4,0.7,1l-2-1.2l-0.7-0.7c0,0,0.4-0.4,1.2,0
		C164,74,163.8,74.5,163.8,74.5 M154.1,69.5c0.6-0.3,0.5-0.3,1.4-0.2c1.6,0.2,3.4,1.9,3.6,2.8C157.9,71.5,154.9,70.3,154.1,69.5
		 M149.3,67.3c0.5,0.1,0.6,0.1,0.9,0.5c0.7,0.8,0.3,0.3,0.2,0.8c-0.7,0-0.6,0.1-1.1-0.5c-0.2-0.3-0.3-0.4-0.6-0.7L149.3,67.3z
		 M172.6,82.8c0.6,0.9,0.3,1.5,0.7,2.3c0,0.4,0.5-0.3-0.2,0.9c-0.5-0.5-1-1.3-1.3-1.9c-0.3-0.6-0.6-1.5,0.1-2
		C172.3,82.3,172.3,82.2,172.6,82.8 M174.8,88.1c0.4,0.6-0.1,1.1-0.4,1.7c-0.2-0.3-0.4-0.6-0.4-1l-0.1-1.3c-0.5-0.8-0.2-1,0-2.1
		C174.6,86.1,175.2,87.2,174.8,88.1 M169.6,84.5c0.5,0,0.9,0.7,0.9,0.8c0.2,0.6,0.1,0.3,0,0.6c-0.5,0,0,0.2-0.4-0.1
		C169.8,85.6,169.7,84.8,169.6,84.5 M121.1,76.2c0.5-1.1,1.1-1.8,2.2-1.8c-0.4,0.6-0.6,0.7-1.1,1.1c-0.2,0.1-0.3,0.3-0.5,0.4
		L121.1,76.2z M175.5,105.1c0.2,0.5,0.3-0.2,0.1,0.5c-0.1,0.8-0.2,0.3-0.3,0.4C175.3,105.3,175.3,105.7,175.5,105.1 M175.7,107.9
		c-0.1,1-1.1,3.3-2.4,3l1.5-4c-0.1-0.5-0.3,0,0.1-0.8c0.2,0.1,0.2,0.1,0.3,0.3C175.5,106.8,175.7,107.4,175.7,107.9 M161.1,120.5
		c-0.6,0.7-3,1.9-4,2.3c-0.5,0.3-1.5,0.7-2,0.8l-2.3,0.4c-0.6,0.5-1.3,0.9-2.2,0.5c-0.8,0.2-1.6-0.2-2.5-0.3c-1-0.2-1.4,0.2-2.6,0.1
		c-0.7-0.1-1.2,0.1-1.8,0c-0.5,0.3-1.1,0.2-1.7,0c-0.7-0.1-1.1-0.1-1.7-0.2c-1.1-0.1-2.8-0.6-3.9-1.1c-3.5-1.8-6.1-3.7-9.4-5.7
		c-1.3-0.8-3.2-2.1-4.1-3.2c-0.4-0.4-2.4-3.2-2.5-3.5c-0.5-0.5-0.7-0.7-0.9-1.4c-0.5-0.4-1.1-2-1.4-2.6c-0.6-1.3-1-1.7-1-2.9
		c-0.4-0.1-0.1,0-0.2-0.2c-0.1-0.3,0-0.2,0-0.5c-0.3-0.5-0.1-0.1-0.2-0.6c0-0.2,0-0.3,0-0.6c0-0.6-0.1-0.6-0.1-1.2l-0.3-0.6
		c-0.6-2.8-0.4-10.5,0.5-12.7c0.8-2,2.3-5.9,3.9-7.2c0.8-0.7,1.7-2.2,2.6-2.7c1.2-0.7,1.8-1.6,3-2c0.5-1.1,0.4-0.3,1.2-1
		c0.7-0.6,0.4-0.6,1.3-1.1l2.9-1.3c5.4-2.5,2.9-1,5.8-2c1.3-0.4,1.4-0.6,2.9-0.8c2.3-0.3,7.3,0.2,9.8,0.5c3.3,0.4,3.9,0.6,6.9,2.1
		c7.2,3.8,5.4,3,8.4,7.1c0.7,0.9,1.5,1.7,2.1,2.6c0.9,1.5-0.7-0.3,1.5,2.8c0.5,0.7,1.4,2,1.4,2.7c0.3,0.4,1,1.4,1.2,1.9
		c0.3,0.8,0.1,1.2,1,1.8c0.6-0.4,0.7,1.1,0.7,1.3c-0.1,0.9,0.1,0,0.4,1.8c0.1,0.9,0.4,0.9,0.9,1.7c0.7,1.1,0.8,2.4,1.2,3.7
		c0.4,1.7,0.2,2.3-0.4,4.2c-1.2,3.6-0.7,3.8-2.7,6.2c-0.6,0.7-1.1,1-1.6,1.7c-0.5,0.7-0.8,1.4-1.3,2.1c-0.6,0.7-1,1.1-1.5,2
		c-1.5,2.6-1.9,1.5-3.3,2.9C163.2,119.5,162.3,119.4,161.1,120.5"/>
	<path fill-rule="evenodd" fill="#FFFFFF" d="M126.1,75.3c-0.3,0.9-1,1-1.2,1.3c0,0,0,0.1,0,0.1c0,0,0,0.1,0,0.1
		c-0.6,2-0.3,0.1-1.2,1.5c1,0.5,0.6,0.2,1.4,0.4c0.6,0.1,0.7,0.2,0.9,0.5l0.1,0.2c0,0,0.1-0.1,0.1-0.1c0,0,0.1,0,0.1-0.1l2-0.8
		c0,0,0.1,0,0.1-0.1l1.4-0.5c0.8-0.2,0.6-0.3,1.4-0.6c1.3-0.6,0.6,0.2,3.4-0.9l1.3-0.5c0.4-0.2,0.1-0.3,0.8-0.1
		c0.6,0.1,0.9,0.4,1.5,0.4c0.6,0-0.7,0,0.3,0c0.8,0,0.6-0.1,1.1-0.4c1-0.7,1.2-0.2,2.4-0.3c0.9,0,0.5,0.1,1.2,0.2c0,0,0.1,0,0.1,0
		c0,0,0.1,0,0.1,0c0.5,0,0,0,0.4,0l2.9,0.3c1.2,0.1,0.6,0.1,1.3-0.3c0.8,0.4,2,1.3,2.8,1.3c0,0,0.1,0,0.1,0c0,0,0.4-0.3,2.3,0.2
		l1.1,0.1c0.5-0.1,0.2-0.3,0.6-0.1l12.8,7.3c0.4,0.3,0.5,0.3,0.8,0.6c0.6,0.6,0.8,1.5,1,1.8c0,0,0.2,0.2,0.4,0.4
		c0.2-0.1,0.1,0,0.2-0.4c0-0.7-0.9-2-1.4-2.7c-2.2-3-0.6-1.3-1.5-2.8c-0.6-0.9-1.4-1.8-2.1-2.6c-3-4-1.1-3.3-8.4-7.1
		c-2.9-1.5-3.6-1.7-6.9-2.1c-2.5-0.3-7.5-0.7-9.8-0.5c-1.5,0.2-1.6,0.4-2.9,0.8c-2.8,0.9-0.3-0.5-5.8,2l-2.9,1.3
		c-0.9,0.5-0.6,0.5-1.3,1.1C126.5,75,126.6,74.2,126.1,75.3"/>
	<path fill-rule="evenodd" d="M134.8,81c0.4,0.6,0.5,0.6,0.9,1.2c0.7,0.9,0.3,0.2-0.1,1.1c0.5,0.5,1.1,0.8,1.4,1.3
		c-0.6,0.7-0.3-0.1-1.1,0.6l0.6,0.3l1.7,1.9l-0.8,1.1l0.2,0.1l0.9,0.7c0.5,0.5,0.5,0.7,0.3,1.3c0.1,0.4,0.1,0-0.1,0.3
		c0.8,0.3,0.9,0.8,1.3,1.3l-0.3,0.7c0.2,0.3,0.4,0.6,0.5,0.9c0.2,0.5,0.1,0.6,0.5,1l0.8,0.8c-0.3,0.3,0.2,0.3-0.5,0.3
		c-0.2,0-0.7-0.3-0.9-0.4c-0.1,1.1,0.5,1.1,1.3,2c0.6,0.7,1.3,1.1,1.8,1.7c-0.4,0.7,0,0.4-0.6,0.5c-0.4,0.2-0.1,0.1-0.4,0.4
		c3.1,2.7,1.6,1.4,2.1,2.7c0.3,0.9,1.3,1.4,1.9,2.4c2.2,3.3,1.6,2.3,1.2,3.7c1,1,0.6,0.7,0.7,1.2c0.1,0.5,1.3,2,1.8,2.2
		c0.6,0.3,1.3,0.6,1.9,0.9l0.5-0.2c0.6-0.5,0,0,0.4-0.3c0.3-0.2,0,0.1,0.5-0.4c-0.2-1.1-0.5-1-1.6-1.7l-0.4-0.5
		c0.1,0,0.2-0.1,0.2-0.1l0.6,0c0.5-1,0.1-0.2,0.1-0.6l0-0.6c0,0,0-0.1,0-0.1l-1.2-3.3l0.6-0.9c-0.6-0.7-0.5-0.4-0.6-1
		c-0.2-1.5,0-0.3-0.3-1.1c-0.4-0.9,0.2-1-0.7-2.2c0.4-0.5,0.5-0.4,0.6-1c-0.6-0.1-0.8-0.4-1-0.8c0.4-0.3,0.1-0.2,0.5-0.4
		c-0.2-0.2-0.8-0.6-0.9-0.9c-0.2-0.6,0.2-1,0-1.4c-0.3-0.5-0.9-0.9-1.3-1.4c-0.2-0.3-2.6-3.3-2.4-4.1c0.3-1.4,0.2,0.7,0.1-0.5
		c-0.8-0.7-1.9-2.1-2.6-2.6l-0.7-0.4c0.4-0.3-0.1-0.2,0.6-0.1l0-0.5l-0.5-0.3c0,0,0-0.1,0-0.1l0.3-0.4c0-0.1,0-0.1,0-0.1l-1.1-0.4
		c-0.4-0.3-0.2-0.1-0.4-0.5l-0.2-0.4c-0.6-1.2-2.3-1.6-3.1-2.8c-0.4-0.6-0.3-1.6-1.5-1.7c-1.1-0.1-0.4,0.2-0.8,0.6
		c-0.3,0.2,0,0.1-0.7,0.1c0,0-0.1,0-0.2,0l-0.3,0C134.6,80.6,134.5,80.5,134.8,81 M149.6,101c0.5,0.7,0.4,0.3,1,0.8
		c-0.7,0.8-0.5,0.5-1.6-0.1L149.6,101z M149.9,104c0.8,0,0.8,0.2,1.4,0.7c-0.5,0.3-0.3,0.5-1,0.1C150,104.7,149.9,104.1,149.9,104"
		/>
	<path fill-rule="evenodd" fill="#FFFFFF" d="M137.6,116.1l-0.9-0.5l0.6,1c-3.5-0.7-3.8-2.2-5-2.3c-0.5,0-0.8,0.1-1.5,0
		c-1.3-0.2-0.5-0.2-1.4-0.1c-0.8,0.1-0.3,0.1-1.6-0.3c-3-0.8-3.9-3.1-4.6-3.8c-3-3.1-1.5-2.6-3.1-4.3c-1.9-2.1-2.1-4.1-3.6-5.1
		c0,0.6,0.1,0.6,0.1,1.2c0,0.2,0,0.3,0,0.6c0.1,0.5-0.1,0.1,0.2,0.6c0.4-0.1,0.1-0.5,0.7,0.3l0.5,1.1c0.4,0.9,0.4,0.4,0.4,1.1
		c-0.7-0.5-0.9-1-1.4-1.8c0,1.3,0.4,1.7,1,2.9c0.3,0.6,0.9,2.2,1.4,2.6c0.5,0.2,0.4,0.2,0.8,0.3c0,0.5,0,0.5,0,1.1
		c0.1,0.3,2.1,3.1,2.5,3.5c0.9,1.1,2.8,2.3,4.1,3.2c3.2,2.1,5.9,4,9.4,5.7l0.9-0.2c0.4,0,0.5,0.1,0.9,0.2c2.9,1,4.6,0.7,5.5,1.2
		c0.7,0.1,1.1-0.1,1.8,0c0-0.2-0.3-0.3,0.7-0.5c0.9-0.2,2.6-0.2,4.2-0.6l6.4-2.1c0.5-0.3,0.3-0.3,1.2-0.3c0.3,0,0.1,0,0.4,0l0,0.6
		c0,0,0,0.1,0,0.1c0.6-0.4,1.1-0.4,1.5-0.5c0,0,0.1,0,0.1-0.1l0.4-0.2c-1.9-0.6-4.2-2.1-5.6-2.2l-0.6,0c0,0-0.1,0-0.1,0
		c-0.5,1-0.3,1.7-1.5,2.2c-1.5,0.7-0.4,0.9-1.9,1.3c-2.5,0.7-4-0.8-4.4-0.9c-0.6-0.2-0.7-0.3-1.3-0.5c-1.2-0.4-0.2,0.1-1.2-0.1
		c-1.1-0.2-1.7-1-2.4-1.4c-0.8-0.4-1.7-0.4-2.2-1.4c-0.4-0.8,0.4-0.3-0.7-0.9C137.3,116.1,137.6,116.8,137.6,116.1"/>
	<path fill-rule="evenodd" d="M148,77.6c0.3,0.3,0.7,0.7,0.9,1c0.2,0.5,0,0,0.1,0.5c0.8,3.2,0,0.9,1.3,2.7c0.2,0.3,0.3,0.7,0.3,1
		c0.1,1.1-0.1,0.2,0.4,1.2c0.5,1,0.7,2.3,0.8,2.4c0.2,0.3,1.3,0.7,2.2,3.4c0.4,1.1,0.8,1,1.2,1.8c0.2,0.5,0,0.4,0.3,0.9
		c0.2,0.4,0.4,0.5,0.7,0.9c0.1,0.8-0.3,1.5,0.4,2.2c0.7,0.2,0.9,0.2,1.4,0.8c-0.7,0.8,0.3-0.1-0.7,0.6c0.1,0.1,0.5,0.4,0.7,0.6
		c0.7,0.8,0,0,0.4,0.7c0.5,0.9,1.2,0.7,1.5,1.6c-0.1,0.6-0.1,0.2,0.4,1c0,0,0.1,0.1,0.1,0.1c0,0,0,0.1,0.1,0.1
		c0.6,1.1,1.5,0.8,1.8,1.2c0.4,0.8-0.2,0.4,0.5,1.1c0.5,0.6,0.6,0.3,1,1.1c0.5,1,0.6,1.8,1.6,1.9c0.7-0.7,0.3-0.3,0.3-1.6
		c0-1.4,0.1-0.4-0.3-1.6c0.3-0.4,0.4-0.4,0.8-0.7c-0.7-0.9-0.1-0.5-0.1-1.9c0-1.2-0.5-1-0.6-1.8c-0.1-0.7,0.2-0.3,0-1
		c-0.1-0.3-0.3-0.4-0.4-0.9c-0.2-0.7,0-0.4-0.2-0.9l-1.7-2.6c-1.1-1.4,0.6-0.2-1.2-2.6c-0.7-0.9,0.1-0.5-1.2-1.7
		c-1.5-1.3-1.5-2.4-2.9-4.2c-1-1.3-0.3-1-0.7-1.7c-0.4-0.8-1.6-0.9-2.2-1.5c-0.8-0.9,0.6-0.4-1.3-1.6c-2.1-1.3-0.3-0.8-4.3-2.3
		C147.5,76.8,148,77.2,148,77.6 M153.4,83.9c1,0.5,2.8,1.5,3.2,2.2c-0.1,0-0.1,0-0.2,0l-1-0.2c-2.6-0.8-1.2-0.4-3.2-1.5
		c0.5-0.4,0.3-0.2,0.5-0.3L153.4,83.9z M159.3,94.7c0.6-0.4,0.1-0.6,1,0.1l0.9,1C160.5,95.8,159.7,95.5,159.3,94.7"/>
	<path fill-rule="evenodd" d="M122.9,88l-0.1,0.4c2.1,1.3,0.6,0.9,1.8,1.9c0.4,0.6,0.1,0.3,0.1,0.9c0,0.5,0,0.4,0.3,0.7
		c-0.5,0-0.3-0.1-0.3,0.3c0.1,0.6-0.1,0.5,0.1,1.1c0.2,0.5,0.4,0.4,0.8,0.9l0,0.7c-0.6,0.5-0.2-0.1-0.8,0.4l0.1,0.2l0.5,0.3
		c0.8,0.1,1.9,0.5,2.7,1c-0.8,0.7-0.1,0.3-1.2,0.3c0.7,0.5,0.6,0.4,0.7,0.9l-0.3,0.7c0,0,0.8,0.4,0.8,0.4c0.5,0.4,0.2,0.1,0.4,0.6
		l-0.7,0.4l0.4,0.4c0.9,0.1-0.2-0.2,0.6-0.1l0.6,0.4c-0.1,0.5-0.4,0.4-0.7,0.5c0.7,1.3,1.2,1.5,1.5,2.1c-0.5,0.5-0.1,0-0.9,0.4
		c0.1,0.3-0.1,0.1,0.3,0.5l0.9,1c0.5,0.5,1.1,0.9,1.4,1.5c-0.9,0.4-0.3-0.1-1,0.4l1.5,1.6c0.4,0.5,0.2,0.4,0.8,0.8
		c-0.6,0.2-0.2,0.2-0.6,0.8c0.3,0.3,0.4,0.4,0.7,0.6c0.5,0.4,0.6,0.2,0.9,1l0,0l0.8,0.5l-0.2,0.7l1.3,0.8l0.9,0.4
		c0.2,0.8,0.1,0.5-0.4,1.1l0.9,0.5c0.6,0.1,0.3,0,0.8,0c0.1,0,0.3,0,0.4,0c0.3,0,0.1,0,0.4,0c-0.1-0.4-0.1-0.8-0.3-1.2
		c0.4-0.6,0.2-0.1,0.7-0.6c-0.4-0.6-1-2.4-0.9-3.2c0.1-1.4,0-2.3-0.9-3.2c0.3-0.7,0.7-0.8,0.1-1.3c-0.5,0.5-0.1,0.2-0.4,0.3
		c-0.4-0.6-0.2-0.8-0.7-1.2c-0.5-0.5-0.5-0.5-1-1c0.9-0.3,0.2,0.2,1-0.2c0-0.2,0-0.1,0-0.3c0-0.2-0.1-0.2-0.2-0.4
		c-0.3-0.6-0.3,0-0.3-0.8c0.3-1-0.4-1.3-1.2-1.9c-0.1-1,0.3-0.5-0.7-1.5c-0.9-0.9-1.2-0.9-1.1-1.5c0.3-2.2-3.3-5.5-4.8-6.7
		c0.2-0.7,0.2,0.5,0.4-0.3c-1.4-1.4-3.6-3-5.5-3.8c0.5,0.8,0.5,0.1,0.4,0.9L122.9,88z M126,93.2l-0.3-1.7c0-0.1,0-0.1,0-0.2
		c0.4,0.2,0.9,0.5,1.1,0.9c0,0,0,0.1,0.1,0.1l0.1,0.8c-0.3,0.1,0,0.1-0.5,0.1C126.4,93.2,126,93.2,126,93.2 M131.1,96
		c0.6-0.1,1.1,0.5,1.5,1c-0.3,0.1-0.2,0.2-0.6,0.1C131.3,96.9,131.1,96.5,131.1,96 M135,103.1c-0.7,0.4-2-0.2-2.6-0.7l0.3-0.5
		c-1.6-0.4-0.9-0.4-1-0.6C132.5,101.3,134.7,102.4,135,103.1 M136.3,110.2c0.1-0.1,0.3-0.2,0.7-0.2c0.6,0,0.1-0.1,0.8,0.3l-0.5,0.2
		c0,0-0.1,0-0.1,0C136.3,110.7,136.5,110.5,136.3,110.2"/>
	<path fill-rule="evenodd" d="M167.2,66.1l-0.5-0.3l-0.5-0.4l-0.1,0l-1.3-0.7c-0.5,1.1-0.2,0.9-0.4,2c-0.2,0.8-0.7,1.3-0.5,2
		c0.2,0.7,0.4,0.2-0.1,0.8c-0.5,0.6-0.2,0.3-0.8,0.1c-0.5-0.2,0.1,0-0.4-0.1c-0.1,0-0.3,0-0.4,0c-0.5,0-0.3,0.1-0.8,0
		c-0.3,0.1,0.1,0-0.5,0.1c0,0-0.1,0-0.1,0l-2.2,0l0,0c0,0.3-0.3,0.2,0.3,0.3l0.5,0.1c1.8,0.5,4.2-0.3,6.1,0.4
		c1.6,0.6,3.6,3.5,3.5,4.1c-0.1,0.8,0-0.1-0.3,0.4l0,0.2c1,0.8,3.3,2.2,2.8,3.5l-1.1-0.3l-0.5,0.7l0.8,0.9l0.4,0.3
		c-0.1-0.4-0.3-0.1,0.1-0.5c0.3-0.3,0.5-0.2,0.6-0.2l1,0.1c-0.1-0.6-0.4-1.1-0.8-1.7l-0.6-1.3c0.4,0,0.2-0.2,0.6,0.3
		c1,0.6,2,1,2.9,1.6c0.9,0.6,1.2,1.2,2.1,1.6l0.4-0.2c0.1,0.4,0.1,0.8,0.4,1.1c-0.5,0.5-0.2-0.1-0.4,0.6c0,0.4,0.3,1,0.4,1.8
		l0.4,3.5c0.1,0.7,0.2,1.2,0.1,1.8l-0.2,3.8c-0.1,0.8-0.1,1.1,0,1.8c0,0.5-0.1,1.3-0.3,1.9c-0.2,0,0.2,0.2-0.4,0l-0.2-0.1
		c-0.2,0.7,0,0.3,0.1,1.1c0.3,0.4,0.3,0.5,0.4,1.1c0.1,0.4,0.1,0.6,0.3,0.9c0.2,0.7,0,0.3,0.4,0.9l-0.4,0.3c0.9,0.6,0.4,0.2,0.7,0.8
		c0,0,0,0.1,0,0.1l0.1,0.9l0,1.1c0.1,0.3,0.1,0.2,0.2,0.4c0,0.1,0.1,0.2,0.1,0.3c0.1,0.3,0,0.3,0,0.6l0.1,0l0.5,0.5l-0.8,1.6
		c-0.6,1.2-0.8,2.6-1.4,4.1c-0.4,1-1.6,3.3-2.3,4.2l-1.6-0.1c0,0-0.1,0-0.1,0l-0.3,0.3c2.8,1,3.1-0.2,5.2-4.4
		c0.4-0.8,0.9-1.6,1.2-2.4c0.7-1.5-0.2-0.7,0.4-2.2c0.9-2.7-0.2-4.1-0.8-6c-0.2-0.5-0.4-1.4-0.6-1.8c-0.1-0.5-0.1-0.5-0.2-1
		c0.7,0-0.1,0.7,0.4,0.2c0,0,0,0,0,0c0.3-0.8,0-0.2,0.4-0.3c0.7-0.7,1.6-2.8,2.1-3.7c-0.7,0.3-0.7,0.9-1.1,1.8
		c-0.4,0.8-0.6,1.1-1.3,1.8l-0.2-0.6c0.3-0.5,0.4-1.2,0.4-1.6c-0.3-1.3,0.3-1.7,1.1-2.1c0.4-0.8,0.6-1,1.2-1.2
		c0.1,0.5,0.1,0.5-0.2,1.1l0.4-0.5c0.6-0.9,0.7-1.8,1-2.8c0,0-0.1,0-0.1,0.1l-0.6,0.5c-0.4,0.4-0.3,0.2-0.8,0.6
		c-0.5,0.5-0.8,1.1-1.3,1.5c-0.1,0.1-0.1,0.3-0.6,0.5l0.2-0.7c0.2-2.4,0.6-1.5,1.3-2.2c-1.4-0.8-1.3-0.3-1.1-1.8
		c0.2-1.5,0.2-2.6-0.1-4.2c-0.2-1-0.4-1.1-0.1-2.1l-0.4-0.1l-0.4,0.3l-0.1-0.5c0.2-1.7-0.7-2.8-2.8-3.8c-0.5,0.1-0.6,0-1-0.5
		c0.3-0.2,0.2-0.2,0.5-0.4l0.9-0.3l1-0.6c-1.1-0.5-1-0.6-2-1.1c-0.8-0.4-1.4-0.5-2.2-0.9c0-0.6,0.1-2.1-0.1-2.5
		c-0.3-1.1-0.1,0.3-0.7-0.8c-0.2-0.4-0.1-0.7-0.2-1.2C171.5,67.8,169.1,67.1,167.2,66.1 M170.9,69.8c0,0.2,0.1,0.2,0,0.5
		c0,0-0.1,0.6-0.1,0.6c0.7,0.5,1,3.6,1.1,4.4l-1.1,0.3c0,0-0.1,0-0.1,0c-0.4-0.6-0.6-1.5-0.8-2c-0.2-0.7-0.6-1.2-0.8-1.9
		c-0.8-2.3-0.8-1.2-1.3-1.4c-0.7-0.3-0.4-0.7-1.9-1.2c-0.9,0.3-0.8,0-1.4-0.6l0.3-0.8c0.1-0.6,0-1,0.6-1.9c0.7,0.4,0.6,0.5,1.4,1
		C169.2,68.2,168.6,67.7,170.9,69.8 M175.2,76.1l0.1,0.5l-1.1,0.5l-1.2-0.7l0-0.9l0.1-0.3l2,0.6L175.2,76.1z"/>
	<path fill-rule="evenodd" fill="#110C0A" d="M142.5,59.3c0,0.3-0.2,0.3,0.5,0.5l0.9,0.4c1-0.1,0.4,0,1.2,0.3
		c0.6,0.3,0.1,0.1,0.9,0.2c0.5-0.6,1-0.6,1.5-0.6c0.2-0.1,0.3-0.2,0.6-0.3c0,0.3,0.2-0.1,0,0.4c-0.3,0.7-0.2,0.2-0.4,0.3l-0.6,0.9
		c-0.5,0.5-0.2,0.3-0.6,0.7l-0.4,0.4c-1.2,0.1-2.4-1.3-3.2-1.8c-0.9-0.5-1.2-0.7-1.6-1.3c-0.3,0-0.6,0-0.9-0.1
		c-2.1-0.1-4.6-2-6.6-2.3l-0.2,0.9c0.1,0.1,0.3,0.4,0.3,0.4l0.4,0.7l0.2-0.6c0.4-0.6,0.1-0.2,0.4-0.4l5.4,2.6
		c-1.3,1.3-0.8,0-2.3,0.8c0,0-0.4,0.2-0.4,0.2c-0.3,0.1-0.1,0.1-0.4,0.1c0-0.9,0.1-0.5,0.6-1.1c-0.6-0.1-1.2,0.1-1.6,0.5l-0.4,0.3
		c0.4,0.5,0.5,0.8-0.5,1.2c-1.2,2-3.5,2.3-4.3,3.6c-1.3,0.3,0-0.1-1.1,0.5c-0.9,0.5-1.4,0.5-2.4,0.6c-0.6,0.1-0.6,0.2-1.2,0.3
		c-0.5,0-0.7-0.1-1.2,0c-0.9,0.3,0,0.1-0.9,0.5l-0.3,0.1c-1.3-0.1-0.1,0.4-2.2,1.3c-0.9,0.4-1.6,1.2-2.2,2.1l-3.7,6.2l0.8,0.3
		l0.2-0.3c0.6-0.2-0.4-0.6,0.5-0.1l-0.1-0.2l-0.5-0.5l3.1-4.5c0.3-0.5,0.8-1.1,1.2-1.6c0.4-0.5,0.2-0.4,0.7-0.6
		c0.2-0.1,0.7-0.1,1-0.1c0.3-0.5,1.3-0.9,1.9-1.1c0.3-0.2,0.7-0.3,1-0.4c0.5-0.2,0.7-0.1,1-0.3l0.3-0.3c0.2-0.3,0-0.2,0.4,0l6.2-1
		l1.4-0.2l0.1-0.6c-0.5-0.1-2.3,0.2-3.4,0.3c1.4-1.5,4.3-2.9,6.2-3.7c0.8-0.3,1.5-0.5,2.1-0.8c0.6-0.5,0.4-0.2,0.8-0.9
		c0.4,0.7-0.2,0.2,0.8,0.6c0.5,0.2,1,0.2,1.7,0.5c0.6,0.3,1.3,0.6,1.9,0.9c-1.4,1.2-3.8,1.8-5.5,2.1c-1.7,0.3-2.4-0.1-3,1
		c-0.1,0.5-0.2,0.2,0.1,0.5c0.4-0.1,0.3-0.1,0.8-0.3c0.7-0.3-0.2-0.2,0.7-0.2l0-0.1c0.8-0.5,1.8,0.1,2.6,0l0.7-0.3
		c0.1-0.1,0.1-0.1,0.1-0.1c0.9-0.6,1-0.5,1.8-0.8c0.6-0.3,1-0.5,1.7-0.8c0.7-0.3,2.7-1.2,3.6-1.3c0.9,0.2,0,0,0.7,0.1
		c0.4,0.1,0.2,0,0.7,0.1c2.2,0.7,2.7,0.8,4.9,2.2c0,0,3.8,3.4,3.9,3.4c0.6,0.4,0.4,0.4,1.3,0.4c0.4,0,0.3,0,0.6-0.1
		c-0.8-0.3-0.9-0.5-1.7-1.2l-0.5-0.5c-0.2-0.5,0,0-0.1-0.4l0.5-0.7c-0.3,0.3-0.2,0.1-0.6,0.2c-0.6,0.1-0.5-0.2-1.1-0.6
		c-0.6-0.4-1-0.4-1.3-1.1c-0.7-0.7-2-1.7-2.8-2.1c-0.6-0.3-1-0.5-1.5-0.8c-0.7,0.5-0.3,0.4-1.3,0.2l-0.8-0.3c-0.5-0.2-0.9,0-1.3,0
		c-0.6,0.2,0.3,0.4-0.7,0.1l0.8-0.7l0.4-1.1c0.3-0.5,0.7-1.1,1.1-1.8l-0.4-0.1c-0.3,0-2.8,0.9-3.3,1.1
		C143.7,60.2,144.6,59.1,142.5,59.3"/>
	<path fill-rule="evenodd" fill="#FFFFFF" d="M172.2,77.9c0.3,0.5,0.7,1.1,0.8,1.7l-1-0.1c-0.5,0.6-0.2,0.1-0.1,0.5
		c0,0.1,0.1,0.2,0.1,0.3c0.1,0.4,0.1,0,0.1,0.5c0.2,0.3,0.4,0.7,0.7,1c0.6,0.6,0.5,0.3,1.1,1c0.5,0.6,1.2,1.6,1.3,2.3
		c0.3-0.2-0.1-0.6,0.4,0c-0.1,0.8,0,0.1-0.3,0.2c0,0.4,0.2,1.6,0.3,2.2c0.1,0.7,0.1,1.5,0.4,2.3c0.1,1,0.1,1.6,0,2.7l-0.1,0.2
		l0.4,0.8c0.2,0.5,0.1,0.1,0.2,0.5c0.4,0.3,0.2,0.2,0.6,0.7c0.3-0.2,0.4-0.1,0.6,0.3c0.1,0.1,0.2,0.3,0.2,0.4c0.1,0.9,0,0.2-0.2,0.3
		c0,0,0.1,0.1,0.1,0.2c0,0.1,0,0.1,0.1,0.2c0.1,0.4,0,0,0.2,0.5c0.5,0.2,0.1,0,0.4,0c0.2-0.6,0.3-1.4,0.3-1.9c0-0.7,0-1,0-1.8
		l0.2-3.8c0-0.6-0.1-1.1-0.1-1.8l-0.4-3.5c-0.1-0.7-0.4-1.3-0.4-1.8c-1.2-1.2,0-0.4-0.4-1.6c-0.9-0.4-1.2-1-2.1-1.6
		c-0.9-0.6-1.9-1-2.9-1.6c0,0,0.4,0.6,0.4,0.7c0,0.1,0,0.1-0.1,0.2C172.1,78.7,173.5,77.8,172.2,77.9"/>
	<path fill-rule="evenodd" fill="#FFFFFF" d="M149.9,63c-0.7,0.3-0.6,0.1-1.2,0.2c-0.2-0.3-0.3,0.3-0.1-0.5c-0.9,0.1-2.9,1-3.6,1.3
		c-0.8,0.3-1.1,0.5-1.7,0.8c-0.8,0.4-0.8,0.2-1.8,0.8c-0.2,0.8-0.1,0.2,0,1c0.8,0.3,1-0.2,1.8-0.5c0.8-0.3,1.3-0.5,2.2-0.3
		c0.8-0.2,1.5,0.4,2.3,0.7c0.8,0.3,1.5,0.2,2.5,0.6c0.3-0.2,0-0.4,1,0.2l2.4,1.4c0.6,0.6,0.1,0.1,0.3,0.5c0.7-0.1,1.6-0.4,2.5-0.3
		c0.6,0.1,0.8,0.3,1.2,0.5c1,0.5,0,0,1.2,0.1l0,0c0.2-1.2,0.1,0.6,0-0.5c0,0-0.1-0.1-0.1-0.2c0-0.1,0-0.1-0.1-0.2
		c0,0-3.8-3.4-3.9-3.4C152.6,63.8,152.1,63.7,149.9,63"/>
	<path fill-rule="evenodd" fill="#FFFFFF" d="M141.4,61.7c-0.6,0.2-0.6-0.1-1.2,0.4l-0.4-0.1c-0.5,0.3-1.3,0.4-2.1,0.8
		c-1.8,0.8-4.8,2.2-6.2,3.7c1.1-0.1,2.9-0.4,3.4-0.3c0.6,0.6,0.2,0.5,1.3,0.1l0.3-0.1c0.6-1.1,1.3-0.6,3-1c1.7-0.3,4.1-0.9,5.5-2.1
		c-0.6-0.3-1.3-0.7-1.9-0.9C142.4,61.8,141.9,61.9,141.4,61.7"/>
	<path fill-rule="evenodd" fill="#FFFFFF" d="M177.9,101.5l-0.3,1.2l0.5-0.9c0.1,0.5,0.2-0.3,0,0.6c0,0.2-0.1,0.4-0.2,0.6
		c-0.2,0.4-0.4,0.8-0.6,1.2c-0.4,0.7-1.1,1.5-1.1,2.2c0,0.6,0.4,0.8-0.1,2.1c-0.3,1-0.9,1.6-0.7,2.2l0.6-1.1c-0.1,0.7-0.6,2-0.9,2.8
		c-0.6,1.4-0.6,2.3-1.4,2.7l1.6,0.1c0.7-1,1.9-3.2,2.3-4.2c0.6-1.4,0.8-2.9,1.4-4.1c-0.4-1.2,0.2-1.2,0.4-2.1l-0.1,0
		c-0.1-0.2-0.2-0.2-0.3-0.7c-0.1-0.4,0-0.3,0-0.6l0-1.1c-0.2-0.4-0.3-0.5-0.5-1L177.9,101.5z"/>
	<path fill-rule="evenodd" fill="#FFFFFF" d="M159.4,69.9l-0.4,0.6c0.7,0.4,0.4,0.1,0.6,0.6c0.4,0.2,0.3,0.3,0.8,0.5
		c0.1,0,0.5,0.3,0.5,0.3c0.6,0.4,0.2,0,0.4,0.5c1.4-0.2,2.1,0.1,3.7,1.1c-0.4,0.1-0.1,0.1-0.6,0.1c-0.1,0-0.3,0-0.4,0
		c1.3,0.6,0.9,0.9,1.4,1.7c0.8-0.4,0.7-0.5,1.6-0.7c0.9-0.1,1.3-0.4,1.8,0.2c0.3-0.5,0.2,0.4,0.3-0.4c0.1-0.6-2-3.5-3.5-4.1
		C163.6,69.5,161.2,70.4,159.4,69.9"/>
	<path fill-rule="evenodd" fill="#FFFFFF" d="M164.7,67.8c0.4,0.5,0.4,0.5,0.5,1.2l0.6,0.2c1.6,0.5,1.3,0.9,1.9,1.2
		c0.5,0.3,0.5-0.8,1.3,1.4c0.2,0.7,0.6,1.2,0.8,1.9c0.2,0.5,0.4,1.4,0.8,2c0,0,0.1-0.1,0.1,0l1.1-0.3c-0.1-0.8-0.5-3.9-1.1-4.4
		l-0.6-0.9c0,0,0.1,0,0.1,0l0.3,0c0,0,0.1,0,0.1,0c0,0,0.1,0,0.1,0c-2.3-2.1-1.8-1.6-4.2-3c-0.8-0.5-0.7-0.6-1.4-1
		C164.8,66.7,164.9,67.2,164.7,67.8"/>
	<path fill-rule="evenodd" fill="#FFFFFF" d="M122.5,70.2c-0.6,0.4-1,0.7-1.5,1.1c-0.3,0.2-0.4,0.3-0.6,0.5
		c-0.4,0.4-0.3,0.4-0.7,0.6l-3.1,4.5l0.5,0.5c0.9-0.2,1.1-0.4,1.7-1.3c1.8-2.4,1.6-1.5,3.4-3.2c0.7-0.7,1-0.9,1.6-1.3
		c0.7-1.2,0.8-0.9,1.5-1.7c1.5-1.7,1.6-1.1,1.1-1.6c-0.3,0.3-0.5,0.2-1,0.3c-0.3,0.1-0.7,0.3-1,0.4
		C123.9,69.3,122.8,69.6,122.5,70.2"/>
	<path fill-rule="evenodd" fill="#FFFFFF" d="M127.2,68c-0.4,0.9-0.1,0.6-0.7,1.6c-0.4,0.6-0.6,1-0.8,1.7l0.3,0.2l0.7-0.3
		c0.6,0.4,0.3,0.3,0.9,0.1l-0.3-0.3c0.6-0.2,0.4-0.3,0.9-0.5c0.5-0.3,0.4-0.1,1-0.2l0,0.4c0.9-0.3,1.8-1,2.8-1.3
		c0.9-0.3,1.8-0.3,2.7-0.6l-0.3-1.5l-0.9-0.3L127.2,68z"/>
	<path fill-rule="evenodd" fill="#FFFFFF" d="M160.3,120.6l-0.4,0.2c0,0-0.1,0-0.1,0c-0.4,0.1-0.9,0.1-1.5,0.5c0,0,0-0.1,0-0.1
		l0-0.6c-0.2,0,0,0-0.4,0c-0.9,0-0.6,0-1.2,0.3l-6.4,2.1c-1.5,0.4-3.2,0.4-4.2,0.6c-0.9,0.2-0.7,0.3-0.7,0.5
		c1.2,0.1,1.6-0.3,2.6-0.1c0.9,0.2,1.7,0.5,2.5,0.3l-0.7-0.6l2.9,0.1l2.3-0.4c0.5-0.1,1.5-0.5,2-0.8c0.9-0.5,3.3-1.6,4-2.3
		C160.5,120.5,161,120.2,160.3,120.6"/>
	<path fill-rule="evenodd" fill="#FFFFFF" d="M159.8,99.8c-0.3-0.9-1-0.7-1.5-1.6c-0.4-0.7,0.3,0-0.4-0.7c-0.2-0.2-0.6-0.4-0.7-0.6
		c-0.6-0.6-0.7-0.6-0.7-1.3c-0.7-0.7-0.3-1.4-0.4-2.2c-0.3-0.4-0.5-0.5-0.7-0.9c-0.2-0.5,0-0.4-0.3-0.9c-0.4-0.7-0.9-0.7-1.2-1.8
		c-0.9-2.7-2-3.1-2.2-3.4c-0.1-0.1-0.3-1.4-0.8-2.4c-0.5-0.9-0.3-0.1-0.4-1.2c0-0.4-0.1-0.8-0.3-1c-1.4-1.8-0.5,0.4-1.3-2.7
		c-0.1-0.5,0.1,0-0.1-0.5c-0.2-0.3-0.6-0.8-0.9-1c0,0.7,0.1,0.2-0.8,0.2l-0.4,0c0.1,0.1,0.9,1.1,1,1.2l0.5,1.4
		c0.2,0.8-0.3,0.5,0.6,1.3c0.6,0.6,0.8,0.6,0.9,1.5c0.1,0.7-0.2,0.1,0.1,0.7l0.3,0.5c1.7,2.8-0.3,1.3,1.7,3c1.1,0.9,1.2,2.5,2.6,4
		c0.7,0.8,0.2,0.7,0.7,1.4c0.7,1,0.8,0.1,0.7,1.5c-0.1,0.9,0.4,2.1,1.2,2.8c1.3,1.1,0.5,0.3,1.1,1.3
		C158.5,99.1,159.1,99.4,159.8,99.8"/>
	<path fill-rule="evenodd" fill="#D1B78A" d="M152.3,110.5c-0.3,0.4-0.3,0.2-0.3,0.6c1.1,0.7,1.4,0.7,1.6,1.7
		c-0.5,0.5-0.2,0.2-0.5,0.4c-0.5,0.3,0.2-0.2-0.4,0.3l0.8,0.3c0.6-0.5,1.1-0.6,1.4-1.1c-0.4-1-1-1.1-2-1.8c0.3-1.2-0.1,0.5,0.7-0.7
		l-0.2-0.2c-0.5-1,0.3-0.3-0.2-1.8c-0.2-0.5-0.7-1.6-1.3-2.1l0.6-1.1c-1.5-1-0.3-0.2-1.1-2c-0.2-0.4-0.1,0-0.1-0.4
		c-0.2-0.8,0.1-0.3-0.3-1.2c-0.5-1.1-0.4-0.3,0.1-1.4l-0.3-0.5c-0.1,0.6-0.2,0.6-0.6,1c0.9,1.2,0.3,1.3,0.7,2.2
		c0.3,0.8,0.1-0.4,0.3,1.1c0.1,0.7,0.1,0.3,0.6,1l-0.6,0.9l1.2,3.3c0,0,0,0.1,0,0.1l0,0.6C152.4,110.3,152.8,109.5,152.3,110.5"/>
	<path fill-rule="evenodd" fill="#301A11" d="M135.4,60.9l-0.3,0.2c-0.1,0-0.4,0.1-0.4,0.1c-0.1,0-0.3,0.1-0.3,0.1c0,0-0.1,0-0.2,0
		c-0.4,0.3-1.1,0.4-1.6,0.8c-0.6,0.4-1.4,0.9-1.6,1.4c-0.2,0.6-0.3,0.7-1,0.9c-0.8-0.2-3.5,0.3-4.3,0.5c-1.3,0.3-3.1,0.7-4.2,1.4
		c0.6,0.3,0.9,0.5,1.4,0.8c0.6,0.4,1.1,0.4,0.9,0.9l0.3-0.1c0.9-0.5,0-0.2,0.9-0.5c-0.9-0.2-1.5-0.2-2.2-0.9l0.4-0.3
		c0.4-0.1,0.8-0.3,1.3-0.4c0.4-0.1,0.7-0.1,1.1-0.3c0.1,0,0.1,0,0.2-0.1l0.3-0.1c0,0,0.1,0,0.2,0c0.2,0,0.3,0,0.6,0
		c0.3-0.3,0.2-0.2,0.6-0.2c0.3,0,0.2,0,0.6,0c0.7,0,0.5-0.2,1.2,0.1l1,0c-0.2,0.7,0,0.6-0.4,1.3c1.1-0.6-0.1-0.3,1.1-0.5
		c-0.3-0.3-0.5-0.2-0.3-1c0.1-0.3,0.4-0.7,0.6-1c0.8-1.1,3.1-2.2,4.3-2.6l0.2-0.1l0.4-0.3l-0.2-0.2L135.4,60.9z"/>
	<path fill-rule="evenodd" fill="#1A0C08" d="M152,58.2l-0.5,0.3c-0.5,0.4,0.1-0.2-0.2,0.3c0.2,0.5-0.7,0.1,0.7,0.6l0.2,0.2l0.2-0.1
		c0-0.6,0.2,0.1,0-0.5l0.9-0.2l0.1,0.5c0,0,0.4,0.2,0.4,0.2c0.5,0.5,0.2,0.1,0.3,0.5l1.9,1.1l-0.4,0.1c0.2,0.2,0.4,0.2,0.7,0.4
		c0,0,0.5,0.3,0.5,0.3c0.4,0.5,0.1,0.1,0.3,0.6c0.3,0.5,1.1,1.8,1.4,2l0.2,0l-0.2-1l1.4,0.9l0.2-0.5c-0.9-0.6-3.1-2.7-3.8-3.5
		C155.2,59.4,153.7,57.6,152,58.2"/>
	<path fill-rule="evenodd" fill="#FFFFFF" d="M153.1,62.5c0.8,0.5,2.1,1.5,2.8,2.1c0.2,0.2,0.4,0.3,0.7,0.4c0.1,0,0.2,0.2,0.3,0.2
		c0.2,0.2,0.2,0.3,0.3,0.4c0.6,0.4,0.5,0.7,1.1,0.6l0.4-0.7c-0.1-0.2-0.1-0.2-0.2-0.4c-0.1-0.3-0.1-0.2-0.1-0.5
		c-0.4-0.2-1.1-1.5-1.4-2c-2.1-1.4-2-0.9-3.7-0.7L153.1,62.5z"/>
	<path fill-rule="evenodd" fill="#D1B78A" d="M136.6,104.4c0.6,1.1,1,1.1,1.1,2.1c0.6,0.5,0.2,0.6-0.1,1.3c0.9,0.9,1,1.8,0.9,3.2
		c0,0.7,0.6,2.5,0.9,3.2c-0.6,0.5-0.3,0-0.7,0.6c0.2,0.4,0.3,0.9,0.3,1.2c0,0,0.1-0.1,0.1-0.1l1.1-0.6c-0.2-0.4-0.5-0.8-0.3-1.2
		c0,0,0-0.1,0.1-0.1c0,0,0.1-0.1,0.1-0.1c0.4-0.7-0.1,0.4,0.3-0.3c-1.6-3.1-0.7-2.3-1.3-4.3c-0.2-0.6-0.1-0.7-0.4-1.3
		c-0.9-1.5,0.4-0.6-0.9-2.5c-0.4-0.6-0.6-0.5-0.9-1.3c-0.3-0.6-0.3-0.8-0.8-1.2c0,0.8,0,0.2,0.3,0.8c0.1,0.2,0.1,0.2,0.2,0.4
		C136.7,104.4,136.6,104.3,136.6,104.4"/>
	<path fill-rule="evenodd" fill="#FFFFFF" d="M134.5,58.3c0.2,0.8,0,1.5,0.8,2.3l-0.2,0.3c0.3,0.1,0.3,0,0.1,0.2l0.3-0.2l0.3-0.4
		l0.4,0.2l0.2,0.2c0.4-0.4,1-0.6,1.6-0.5c-0.6,0.6-0.6,0.2-0.6,1.1c0.3,0,0.1,0,0.4-0.1c0,0,0.4-0.2,0.4-0.2
		c1.6-0.8,1.1,0.5,2.3-0.8l-5.4-2.6C134.6,58,134.9,57.6,134.5,58.3"/>
	<path fill-rule="evenodd" fill="#FFFFFF" d="M145,66.1c-0.7,0.3-0.9,0.1-1.6,0.4c-0.5,0.2-1,0.6-1.5,0.9l-0.2,0.4l0.5,0.1
		c0.9-0.3,5.9,0.9,6.6,0.2C148.1,67,146,66.6,145,66.1"/>
	<path fill-rule="evenodd" fill="#28170F" d="M161.3,65.8l0.2,0.5l-0.8,0.9c0.1,0.6-0.2,0.1,0.4,0.5c0.5,0,0.8,0.1,1.3,0.5
		c0.6,0.4,0.7,0.7,0.6,1.3c0.6,0.2,0.2,0.4,0.8-0.1c0.5-0.6,0.3-0.1,0.1-0.8c-0.2,0.9,0,0.2-0.3,0.3c-0.7-1.1-0.8-1.3-2.2-1.5
		c1.7-1.3,3.8-3.7,5.1-3.9c0.5,0.4,0.5,0.1,0.2,0.9c-0.1,0.2-0.3,0.7-0.5,1l0.5,0.4l0.6-1.5l0.3-1.4c0,0-0.1,0-0.1,0
		c-0.1,0.2-2,0.3-3.2,1C163.8,64.2,161.6,65.5,161.3,65.8"/>
	<path fill-rule="evenodd" fill="#FFFFFF" d="M129.2,65.2c-0.2,0.4-0.4,0.2-1,0.3c-0.5,0-0.8,0.2-1.2,0.3c-0.5-0.4-0.2-0.1-0.2-0.4
		c-0.3,0-0.4,0-0.6,0c0,0-0.1,0-0.2,0l-0.3,0.1c0,0-0.1,0-0.2,0.1c0,0,1.1,0.4-1,0.7c-0.6,0.1-0.9,0-1.4,0.6c-0.3-0.6-0.2,0.1,0-0.6
		l-0.4,0.3c0.7,0.7,1.3,0.7,2.2,0.9c0.5-0.1,0.7,0,1.2,0c0.6,0,0.6-0.2,1.2-0.3c1-0.2,1.5-0.2,2.4-0.6c0.4-0.6,0.2-0.6,0.4-1.3
		L129.2,65.2z"/>
	<path fill-rule="evenodd" fill="#402113" d="M141.4,65.6c-0.1,0-0.1,0-0.1,0.1l-0.7,0.3c-0.8,0.1-1.8-0.4-2.6,0
		c0.5,0,0.2-0.5,0.5,0.2c0.2,0.6-0.3,0.3-0.3,0.4c-0.5-0.3-0.2,0-0.2-0.4c-0.9,0.1,0,0-0.7,0.2c-0.4,0.2-0.4,0.2-0.7,0.3l1.8,0.5
		c-0.3,0.3-0.9,0.7-1.3,0.9c-0.5,0.3,0,0.2-0.8,0.2c-0.4,0-0.6,0-1-0.3c0.1,0.2,0.3,0.5,0.7,0.7c1.6,0.7-0.8,0,2.1-0.3
		c-0.1-0.3-0.8,0,0.3-0.5c0.2-0.1,0.4-0.2,0.6-0.3c0.5-0.2,0.7-0.3,1.2-0.5c0,0,0.4-0.6,0.9,0.3c0.1,0.2,0,0.5-0.1,0.6
		c0.5-0.2,0.6-0.4,1-0.7c0.5-0.3,1-0.7,1.5-0.9c0.7-0.3,0.9-0.1,1.6-0.4c0.1,0-0.2,0.4,0.4-0.4c-0.8-0.2-1.4,0-2.2,0.3
		c-0.8,0.3-1.1,0.7-1.8,0.5C141.3,65.8,141.2,66.4,141.4,65.6 M138.7,66.7c0.7-0.7,0.9-0.8,1.5-0.3c-0.1,0.2,0.2,0.3-0.7,0.4
		C139.1,66.8,139.1,66.8,138.7,66.7"/>
	<path fill-rule="evenodd" fill="#FFFFFF" d="M130.9,66c0.8-1.3,3.1-1.6,4.3-3.6l0.5-0.7c0-0.3,0.3-0.1-0.3-0.3
		c-1.2,0.4-3.5,1.5-4.3,2.6c-0.2,0.2-0.5,0.7-0.6,1C130.4,65.8,130.6,65.7,130.9,66"/>
	<path fill-rule="evenodd" fill="#FFFFFF" d="M152.2,59.6l-0.2-0.2c-0.1,0-0.1,0-0.2,0l-0.7,0.1c-0.4,0.9-0.9,1.4-0.8,2.2
		c1,0.2,0.6,0.3,1.3-0.2c0.1,0,0.1,0,0.2,0c1.3,0.1,0.2,0,1.8-0.3c0.7-0.1,1.1-0.2,1.9,0l0.4-0.1l-1.9-1.1l-0.9-0.6
		c0.4,0.6,0.4,0.1,0.4,0.7L152.2,59.6z"/>
	<path fill-rule="evenodd" fill="#FFFFFF" d="M167.2,75c-0.6,0.8,1,1.6,1.8,2.3l1.5,0.9l1.1,0.3c0.5-1.4-1.8-2.7-2.8-3.5L167.2,75z"
		/>
	<path fill-rule="evenodd" fill="#FFFFFF" d="M118.7,77.2l-0.9,1.6l-0.5,1.2l0.3,0.3c0.8-1,2-2,2.7-3.1c0.6-0.8,0.5-1.3,1-2
		c0.4-0.7,1-0.9,1-1.7C121.1,74,119.4,76,118.7,77.2"/>
	<path fill-rule="evenodd" fill="#FFFFFF" d="M163.9,68.6c-0.1-0.6,0.4-1.1,0.5-2c0.2-1.1-0.2-0.8,0.4-2l1.3,0.7
		c-0.1-0.6,0.2-1.2,0.3-1.8c-1.3,0.2-3.4,2.6-5.1,3.9c1.4,0.2,1.5,0.3,2.2,1.5C164,68.8,163.8,69.5,163.9,68.6"/>
	<path fill-rule="evenodd" fill="#FFFFFF" d="M176.9,100.4l-0.4,0.9c0.6,0.9-0.1-0.8,0.2,0.2c0.1,0.4,0.1,0,0.1,0.5l-0.1,0.8
		c0.1,0.3,0.2,0.1,0.1,0.5c0,0.2-0.1,0.2-0.2,0.5l0.5,0.2l0.6-1.4l0.3-1.2l0.4-1c-0.2-0.6-0.2-0.6,0-1.3c-0.2-0.3-0.2-0.5-0.3-0.9
		c-0.1-0.6-0.1-0.7-0.4-1.1l-0.3-0.1L176.9,100.4z"/>
	<path fill-rule="evenodd" fill="#FFFFFF" d="M149.5,58l0.4,0.1c-0.5,0.7-0.8,1.3-1.1,1.8c1-0.1,1-0.6,1.6-1.3l0.6-0.5
		c-0.3,1.3-0.6,2.1-1.5,3.3l0.8,0.3c-0.1-0.9,0.3-1.3,0.8-2.2l0.7-0.1c0,0,0.1,0,0.2,0c-1.4-0.5-0.5-0.2-0.7-0.6
		c0.3-0.5-0.3,0.1,0.2-0.3l0.5-0.3c-0.3-0.3-0.5-0.1-0.1-1.9c0.2-0.7,0.2-1.3,0.3-2C151.1,55.6,150.9,57.1,149.5,58"/>
	<path fill-rule="evenodd" fill="#FFFFFF" d="M135.9,85.3c0.8-0.7,0.4,0.1,1.1-0.6c-0.3-0.5-0.9-0.9-1.4-1.3
		c0.4-0.9,0.8-0.2,0.1-1.1c-0.4-0.6-0.5-0.6-0.9-1.2c-0.5,0.5-0.3,0.1-1.1,0.1c0.1,1.4,1.3,2.1,1.5,2.5c0.2,0.5-0.2,0.5-0.2,0.9
		L135.9,85.3z"/>
	<path fill-rule="evenodd" fill="#180A09" d="M116.4,79.8c-1.4,2-2.8,3.9-3.9,6.2c0.8,0.2,1.1-0.1,2,0.1l0.3-0.3l-0.4-0.2
		c-0.1,0-0.3-0.1-0.4-0.1c-0.4-0.2-0.1,0-0.3-0.3l0.4-1c0.7-1.7,2.7-3.8,3.1-4.8L116.4,79.8z"/>
	<path fill-rule="evenodd" fill="#FFFFFF" d="M154.1,69.5c0.7,0.8,3.8,2,5,2.6c-0.2-0.9-2-2.6-3.6-2.8
		C154.7,69.2,154.8,69.2,154.1,69.5"/>
	<path fill-rule="evenodd" fill="#FFFFFF" d="M123.8,93.2c0.5-0.4,0.3-0.2,0.4-0.3c0.5-0.3-0.2,0.3,0.6-0.5l-0.6-0.4l-0.1-0.6
		l0.5-0.9c-1.2-1,0.3-0.7-1.8-1.9c-0.7,0.8-0.7,0.3-1,0.7c0.5,0.4,1,0.5,1.4,1c0.3,0.5-0.1,0.4,0.7,1c-0.6,1.5-0.5,0.3-0.2,1.9
		C123.8,93,123.8,93.1,123.8,93.2"/>
	<path fill-rule="evenodd" fill="#FFFFFF" d="M169.4,80.7l1.1,1L171,82l0.1-0.4c0.1-0.4,0.1-0.6,0.1-0.9c-0.3-0.5-0.2-0.3-0.3-0.8
		l-0.8-0.9l-0.9-0.5l-0.3,0.4L169.4,80.7z"/>
	<path fill-rule="evenodd" fill="#FFFFFF" d="M143.1,59.7c-0.5,0.2-0.5,0-1.2,0l0.9,0.7c0,0,0,0.2,0.1,0.1c0,0,0.1,0.1,0.1,0.1
		c0.8,0.5,2,1.9,3.2,1.8c0-1-1-1.9-2.2-2.3L143.1,59.7z"/>
	<path fill-rule="evenodd" fill="#FFFFFF" d="M174.7,106.9l-1.5,4c1.3,0.3,2.3-2.1,2.4-3l-0.6-0.2c0-0.2-0.1-0.6-0.1-1L174.7,106.9z
		"/>
	<path fill-rule="evenodd" fill="#FFFFFF" d="M180.3,93.1c-0.5,1-0.8,1-1.1,2.1c0.1,0.5-0.1,1.1-0.4,1.6c0.5,0,0.1,0.1,0.5-0.2
		c0.1-0.1,0.2-0.3,0.3-0.5l1.6-3.1c0.3-0.6,0.3-0.6,0.2-1.1C180.9,92.1,180.7,92.4,180.3,93.1"/>
	<path fill-rule="evenodd" fill="#482817" d="M126.5,68.3c0.5,0.6,0.4-0.1-1.1,1.6c-0.8,0.9-0.8,0.6-1.5,1.7l0.1,0.3
		c0.1,0,0.2-0.1,0.2-0.1c0,0,0.1,0,0.2,0c0.4,0,0-0.1,0.5,0c0.5-0.2-0.2,0.3,0.4-0.2c0.1-0.1,0.3-0.3,0.3-0.4l0.3,0.2
		c0.3,0.2,0.2,0.2,0.4-0.1l-0.3-0.2c0.2-0.7,0.4-1.1,0.8-1.7c0.6-0.9,0.3-0.7,0.7-1.6c-0.4-0.2-0.3-0.3-0.4,0L126.5,68.3z"/>
	<path fill-rule="evenodd" fill="#FFFFFF" d="M161.1,67.7l-1.1,0.1c-0.2,0.6,1,1.3,1.4,1.5c0.4,0.1,0.3,0,0.8,0c0.1,0,0.3,0,0.4,0
		c0.5,0.1-0.1-0.1,0.4,0.1c0.1-0.6,0-0.9-0.6-1.3C161.9,67.8,161.6,67.7,161.1,67.7"/>
	<path fill-rule="evenodd" fill="#C69505" d="M176.2,95.8c0,0.7,0,0.9,0.1,1.4l0.1,0.7l-0.1,0.6c0.1,0.3,0,0,0.1,0.4
		c0,0.2,0,0.2,0.1,0.4c0.1,0.5,0.1,0.5,0.3,0.9l0.3-3.2l0.3,0.1c0-0.8-0.2-0.4-0.1-1.1l-0.6-0.7l-0.3-0.2L176.2,95.8z"/>
	<path fill-rule="evenodd" fill="#FFFFFF" d="M148.8,60l-0.4,1.1l-0.1,0.5c0.4,0,0.8-0.2,1.3,0c0.9-1.2,1.1-2,1.5-3.3l-0.6,0.5
		C149.8,59.4,149.8,59.9,148.8,60"/>
	<path fill-rule="evenodd" fill="#A48866" d="M136.3,123c1.1,0.5,2.8,0.9,3.9,1.1c0.6,0.1,1,0.1,1.7,0.2c0.6,0.1,1.2,0.2,1.7,0
		c-1-0.5-2.6-0.2-5.5-1.3c-0.4-0.1-0.5-0.2-0.9-0.2L136.3,123z"/>
	<path fill-rule="evenodd" fill="#654C2F" d="M153.4,83.9l-0.6,0.2c-0.2,0.1,0-0.1-0.5,0.3c2.1,1,0.6,0.7,3.2,1.5l1,0.2
		c0,0,0.1,0,0.2,0C156.1,85.4,154.4,84.5,153.4,83.9"/>
	<path fill-rule="evenodd" fill="#FFFFFF" d="M169.4,80.7l-0.6-2l0.3-0.4l-0.6-0.4c0.2,0.5,0.2,0.2,0,0.4c-2.3-1.4-2.1-1.9-3.6-1.8
		l1,0.5C167,77.7,168.2,79.6,169.4,80.7"/>
	<path fill-rule="evenodd" fill="#964F2A" d="M114.2,84.1l-0.4,1c0.2,0.3-0.1,0.1,0.3,0.3c0,0,0.3,0.1,0.4,0.1
		c0.9-0.6,0.6-1.2,1.1-2.2c0.2-0.5,0.5-0.9,0.8-1.3c0.6-1.1,0.2-1.2,0.2-1.2c-0.7,0.9-1.3,2.3-2.1,3.1L114.2,84.1z"/>
	<path fill-rule="evenodd" fill="#FFFFFF" d="M136.6,66.7c-0.7,0.4-1.2,0.5-1.3,1.3c0.4,0.2,0.6,0.3,1,0.3c0.8,0,0.2,0,0.8-0.2
		c0.4-0.2,1-0.6,1.3-0.9L136.6,66.7z"/>
	<path fill-rule="evenodd" fill="#D1B78A" d="M137.5,88.6l0.8-1.1l-1.7-1.9c-0.6,0.8-0.3,0.3-1.1,0.6c0.6,0.4,0.7,0.6,1.2,1
		C137.6,88.1,137.1,87.7,137.5,88.6"/>
	<path fill-rule="evenodd" fill="#FFFFFF" d="M165.9,76.3c0.3-0.1,0-0.2,0.5-0.1c0.4,0.1,0.2,0,0.4,0.2c0.4,0.2,0,0.2,0.9,0.5
		c0.2,0.1,0.4,0.2,0.5,0.3c0.1,0.1,0.2,0.1,0.3,0.1c0.5,0.1,0.1,0.1,0.5,0c-0.7-0.7-2.4-1.5-1.8-2.3c-0.9,0-1.5,0.3-2,1L165.9,76.3z
		"/>
	<path fill-rule="evenodd" fill="#1F0F0A" d="M160.8,64l-0.8,1l0,0.1c0.9,0.2-0.1,1.3-0.4,2c0.1,0.6-0.2,0.6,0.7,0.3l-0.1-1
		c0.7-0.9,0.6-0.8,1.1-1.8l0.8-1.3C161.5,63.4,161.3,63.7,160.8,64"/>
	<path fill-rule="evenodd" fill="#7C6547" d="M125.6,96c0.1,0.4-0.1,0.1,0.2,0.6c0,0.1,0.4,0.5,0.4,0.6c0.5,0.6,0.9,0.7,1.5,1
		c-0.1-0.5,0.1-0.4-0.7-0.9c1.1,0,0.4,0.4,1.2-0.3C127.6,96.5,126.5,96.1,125.6,96"/>
	<path fill-rule="evenodd" fill="#FFFFFF" d="M175.4,110.7l-1.5,2.7c0,0.7,0,0.6-0.5,1.3l0.2,0.3c0.8-0.4,0.8-1.3,1.4-2.7
		c0.3-0.8,0.8-2.1,0.9-2.8L175.4,110.7z"/>
	<path fill-rule="evenodd" fill="#352515" d="M151.6,61.6c0.5,0.3,0.9,0.5,1.5,0.8l0.2-0.5c1.7-0.2,1.6-0.7,3.7,0.7
		c-0.2-0.5,0.1-0.1-0.3-0.6c0,0-0.5-0.3-0.5-0.3c-0.4-0.2-0.5-0.2-0.7-0.4c-0.8-0.2-1.2-0.1-1.9,0c-1.6,0.3-0.5,0.4-1.8,0.3
		C151.7,61.6,151.7,61.6,151.6,61.6"/>
	<path fill-rule="evenodd" fill="#7C6547" d="M131.8,101.3c0.1,0.2-0.6,0.2,1,0.6l-0.3,0.5c0.6,0.6,1.9,1.2,2.6,0.7
		C134.7,102.4,132.5,101.3,131.8,101.3"/>
	<path fill-rule="evenodd" fill="#D1B48A" d="M128.6,99.9c-0.1-0.5,0.1-0.2-0.4-0.6c0,0-0.7-0.4-0.8-0.4l0.3-0.7
		c-0.6-0.4-1-0.5-1.5-1c-0.1-0.1-0.4-0.5-0.4-0.6c-0.3-0.5-0.1-0.2-0.2-0.6l-0.5-0.3c-0.5,0.5,0.1,0.1-0.4,0.4
		c0.7,0.9,1.5,1.9,2.6,2.3l0.4,0.9C127.8,99.5,128.3,99.7,128.6,99.9"/>
	<path fill-rule="evenodd" fill="#FFFFFF" d="M173.8,87.5c0.3,0.3,0.5,0.7,1,0.6c0.4-0.9-0.2-2-1-2.7
		C173.6,86.5,173.3,86.7,173.8,87.5"/>
	<path fill-rule="evenodd" fill="#FFFFFF" d="M173.4,85.1c-0.4-0.8-0.1-1.3-0.7-2.3l-0.7-0.5c-0.2,1,0.1,1.7,0.8,2.5
		C173.3,85.7,173,85.3,173.4,85.1"/>
	<path fill-rule="evenodd" fill="#301A11" d="M133.9,58.2l-0.2,0.3l0.2,1.1c0.3,0.6,0.1,0.7,0,1.2l0.4,0.3l0.7-0.3l0.2-0.3
		c-0.8-0.7-0.6-1.5-0.8-2.3l-0.2,0.6L133.9,58.2z"/>
	<path fill-rule="evenodd" fill="#693B25" d="M158.6,68.6c0,0.1,0.1,0.1,0.1,0.2c0,0.1,0,0.1,0.1,0.2c0.1,1.1,0.2-0.7,0,0.5l2.2,0
		c0,0,0.1,0,0.1,0c0.5-0.1,0.2,0,0.5-0.1c-0.5-0.3-1.6-0.9-1.4-1.5l-0.9-0.5l-0.7-0.2l0.5,0.5c0.7,0.7,0.9,0.9,1.7,1.2
		c-0.3,0.1-0.3,0.1-0.6,0.1C159,69,159.2,69,158.6,68.6"/>
	<path fill-rule="evenodd" fill="#FFFFFF" d="M138,68.4l2-0.2c0.3-0.2,0.5-0.4,0.8-0.8l-0.7-0.3c-0.5,0.2-0.6,0.2-1.2,0.5
		c-0.2,0.1-0.5,0.2-0.6,0.3C137.2,68.4,137.9,68.1,138,68.4"/>
	<path fill-rule="evenodd" fill="#FFFFFF" d="M153.8,69.2c-0.1-0.4,0.3,0.1-0.3-0.5l-2.4-1.4c-1-0.6-0.6-0.5-1-0.2
		C151.3,67.7,152.6,69.5,153.8,69.2"/>
	<path fill-rule="evenodd" fill="#FFFFFF" d="M161.2,72.3l-0.4,0.2l0.6,0.3c0.6,0.1,0.6-0.1,1,0.1c0.5,0.2,0.8,0.4,1.4,0.6
		c0.1,0,0.4,0,0.4,0c0.5,0,0.1,0,0.6-0.1C163.4,72.4,162.6,72.1,161.2,72.3"/>
	<path fill-rule="evenodd" fill="#462814" d="M159.6,67.1l-0.2,0l-0.3,0.3l0.9,0.5l1.1-0.1c-0.5-0.4-0.3,0.1-0.4-0.5l0.8-0.9
		l-0.2-0.5l-0.6,0.8c0.1-0.7,0.4-0.9,0.6-1.4c0.1-0.5,0.1-0.1,0-0.5c-0.5,1-0.4,0.9-1.1,1.8l0.1,1C159.4,67.6,159.7,67.6,159.6,67.1
		"/>
	<path fill-rule="evenodd" fill="#FFFFFF" d="M173,75.4l0,0.9l1.2,0.7l1.1-0.5l-0.1-0.5C174.4,76,173.6,75.8,173,75.4"/>
	<path fill-rule="evenodd" fill="#FFFFFF" d="M146,60.6c0.1,0.5,0.2,0.5,0.4,1l0.6-0.2l0.6-0.9L148,60l-0.4,0
		C147,59.9,146.5,60,146,60.6"/>
	<path fill-rule="evenodd" fill="#7C6547" d="M137.8,106.6c-0.2-1.1-0.5-1-1.1-2.1c-0.8,0.4-0.1-0.1-1,0.2c0.4,0.5,0.5,0.5,1,1
		c0.5,0.5,0.3,0.6,0.7,1.2C137.7,106.8,137.3,107.1,137.8,106.6"/>
	<path fill-rule="evenodd" fill="#846B48" d="M123.8,93.2l0,0.2l2,1.7l0-0.7c-0.4-0.4-0.6-0.4-0.8-0.9c-0.3-0.6,0-0.5-0.1-1.1
		c-0.8,0.8-0.2,0.1-0.6,0.5C124.1,93,124.3,92.7,123.8,93.2"/>
	<path fill-rule="evenodd" fill="#493117" d="M161.5,72.8l-0.6-0.3l0.4-0.2c-0.1-0.5,0.2-0.1-0.4-0.5c0,0-0.4-0.3-0.5-0.3
		c-0.4-0.3-0.4-0.3-0.8-0.6c-0.4,0.3,0.2,0.2-0.5,0.2c0.5,0.7,0.5,0.3,0.5,1.1c1.1,0.3-0.3,0.2,0.4,0.1c0,0,0.1,0,0.2,0l0.3-0.2
		c0.3,0.4,0,0.3,0.4,0.5C161.7,73.3,161.1,72.9,161.5,72.8"/>
	<path fill-rule="evenodd" fill="#D2B692" d="M125,95.5c0.6-0.5,0.2,0.1,0.8-0.4l-2-1.7l-0.3,0.7C124.3,94.6,124.6,94.7,125,95.5"/>
	<path fill-rule="evenodd" fill="#FFFFFF" d="M160,65.1l-0.8,0.9l-0.7,1l0.9,0.1l0.2,0C159.9,66.4,160.9,65.2,160,65.1"/>
	<path fill-rule="evenodd" fill="#FFFFFF" d="M123.9,72l-1,1.9c0.8,0.1,0.6-0.2,1.1-0.1l0.6-1.7l0.1-0.1c-0.5-0.1-0.2,0-0.5,0
		c0,0-0.2,0.1-0.2,0C124.1,71.9,124,72,123.9,72"/>
	<path fill-rule="evenodd" fill="#2E2C1A" d="M143.9,60.2c1.2,0.5,2.2,1.3,2.2,2.3l0.4-0.4c0.3-0.4,0.1-0.2,0.6-0.7l-0.6,0.2
		c-0.3-0.5-0.4-0.5-0.4-1c-0.8-0.1-0.3,0.1-0.9-0.2C144.4,60.1,144.9,60,143.9,60.2"/>
	<path fill-rule="evenodd" fill="#714F15" d="M181.3,93l-1.6,3.1c-0.1,0.1-0.2,0.3-0.3,0.5c-0.4,0.4,0,0.2-0.5,0.2l0.2,0.6
		c0.7-0.8,0.8-1,1.3-1.8c0.5-0.8,0.4-1.5,1.1-1.8c0.1-0.2,0.3-0.5,0.3-0.7c0.2-0.8,0.1-0.2,0-0.6L181.3,93z"/>
	<path fill-rule="evenodd" fill="#D1B48A" d="M138.9,91.1c0.1-0.3,0.2,0.1,0.1-0.3c-0.2-0.4-0.1-0.2-0.2-0.6c0-0.1,0-0.2,0-0.3
		c0-0.3,0-0.1,0-0.5l-0.9-0.7l-0.4,0.7c0.3,0.3,0.6,0.5,0.9,0.7C138.6,90.7,138.2,90.7,138.9,91.1"/>
	<path fill-rule="evenodd" fill="#402113" d="M124.6,72l-0.6,1.7c1,0.4,0.4,0.3,1.3-0.3c-0.3-0.5-0.1,0,0-0.6c0.1-0.4-0.1,0,0.3-0.5
		c-0.7,0.1-0.1-0.7-0.6,0.2L124.6,72z"/>
	<path fill-rule="evenodd" fill="#E3C091" d="M117,103.7c0.5,0.8,0.7,1.3,1.4,1.8c0-0.8,0-0.2-0.4-1.1l-0.5-1.1
		c-0.6-0.7-0.4-0.4-0.7-0.3c-0.1,0.2-0.1,0.1,0,0.5C116.9,103.7,116.6,103.6,117,103.7"/>
	<path fill-rule="evenodd" fill="#7C6547" d="M126,93.2c0,0,0.4,0,0.4,0c0.4-0.1,0.1,0,0.5-0.1l-0.1-0.8c0,0,0-0.1-0.1-0.1
		c-0.2-0.4-0.7-0.6-1.1-0.9c0,0.1,0,0.1,0,0.2L126,93.2z"/>
	<path fill-rule="evenodd" fill="#FFFFFF" d="M174.8,88.1c-0.5,0.1-0.6-0.3-1-0.6l0.1,1.3c0.1,0.4,0.2,0.7,0.4,1
		C174.8,89.2,175.2,88.7,174.8,88.1"/>
	<path fill-rule="evenodd" fill="#FFFFFF" d="M173.4,85.1c-0.4,0.3,0,0.6-0.7-0.2c-0.6-0.8-1-1.5-0.8-2.5l0.7,0.5
		c-0.3-0.6-0.4-0.5-0.7-0.7c-0.7,0.5-0.4,1.3-0.1,2c0.3,0.6,0.9,1.4,1.3,1.9C173.9,84.8,173.4,85.5,173.4,85.1"/>
	<path fill-rule="evenodd" fill="#FFFFFF" d="M175.8,92.4c0.1-1.1,0.1-1.7,0-2.7c-0.8,0.9-0.5,0.8-0.7,2.1c0.5,0.6-0.2-0.2,0.4,0.3
		C175.8,92.3,175.6,92,175.8,92.4"/>
	<path fill-rule="evenodd" fill="#FFFFFF" d="M162.5,74.2l2,1.2c0-0.6-0.1-0.7-0.7-1c-0.7-0.7-0.6-0.7-1.6-0.9L162.5,74.2z"/>
	<path fill-rule="evenodd" fill="#D4AC79" d="M150.6,124.5c0.9,0.4,1.6,0,2.2-0.5l-2.9-0.1L150.6,124.5z"/>
	<path fill-rule="evenodd" fill="#846B48" d="M134.4,112.1c-0.3-0.8-0.4-0.6-0.9-1c-0.3-0.2-0.4-0.3-0.7-0.6
		c0.5-0.6,0.1-0.6,0.6-0.8c-0.6-0.4-0.4-0.4-0.8-0.8c-0.1,0.8,0.1,1-0.2,1.8L134.4,112.1z"/>
	<path fill-rule="evenodd" fill="#D1B48A" d="M139.9,93.1l0.3-0.7c-0.4-0.5-0.5-1-1.3-1.3l-0.2,0.6C140,92.7,139.2,92.3,139.9,93.1"
		/>
	<path fill-rule="evenodd" fill="#683413" d="M119.6,72.5c0.4-0.2,0.3-0.2,0.7-0.6c0.3-0.3,0.3-0.3,0.6-0.5c0.5-0.4,1-0.7,1.5-1.1
		c-0.3,0-0.8,0.1-1,0.1c-0.5,0.2-0.3,0-0.7,0.6C120.5,71.3,119.9,72,119.6,72.5"/>
	<path fill-rule="evenodd" fill="#FFFFFF" d="M121.7,75.9c0.2-0.1,0.3-0.3,0.5-0.4c0.5-0.4,0.7-0.5,1.1-1.1c-1.1,0-1.7,0.6-2.2,1.8
		L121.7,75.9z"/>
	<path fill-rule="evenodd" fill="#6B5335" d="M160.3,94.8c-0.9-0.7-0.4-0.5-1-0.1c0.4,0.8,1.2,1.2,2,1.1L160.3,94.8z"/>
	<path fill-rule="evenodd" fill="#FFFFFF" d="M123.3,66.2c-0.2,0.7-0.3-0.1,0,0.6c0.5-0.6,0.8-0.5,1.4-0.6c2.1-0.3,1-0.7,1-0.7
		c-0.4,0.1-0.7,0.1-1.1,0.3C124.1,65.9,123.7,66.1,123.3,66.2"/>
	<path fill-rule="evenodd" fill="#FFFFFF" d="M176.3,93.8c-0.1-0.4,0,0-0.2-0.5l-0.4-0.8c-0.5,1-0.7,1.4-0.1,2.3
		c0.4-0.6,0.1-0.8,0.2-1.5L176.3,93.8z"/>
	<path fill-rule="evenodd" fill="#714F15" d="M140.1,67.1l0.7,0.3c-0.3,0.4-0.5,0.6-0.8,0.8c1,0,1.2,0.1,2.2-0.3l-0.5-0.2l0.2-0.4
		c-0.4,0.2-0.5,0.5-1,0.7c0-0.1,0.2-0.4,0.1-0.6C140.4,66.5,140.1,67.1,140.1,67.1"/>
	<path fill-rule="evenodd" fill="#683413" d="M116.7,77.8l-0.2,0.3l0.6,0.3l-0.1,0.5c0.2-0.1,0,0.4,0.6-0.5l0.1,0.4l0.9-1.6
		c-0.5,0.1-0.5,0.5-0.8,0.9L116.7,77.8z"/>
	<path fill-rule="evenodd" fill="#684E33" d="M156.6,95.6c0,0.7,0.1,0.8,0.7,1.3c1-0.7,0.1,0.2,0.7-0.6
		C157.5,95.8,157.2,95.8,156.6,95.6"/>
	<path fill-rule="evenodd" fill="#FFFFFF" d="M127.7,71.3c0.6,0,1.2-0.4,1.6-0.6l0-0.4c-0.6,0.1-0.5,0-1,0.2
		c-0.5,0.2-0.3,0.3-0.9,0.5L127.7,71.3z"/>
	<path fill-rule="evenodd" fill="#1D2A19" d="M141.3,59.3c0.3,0.7,0.7,0.9,1.6,1.3c0,0,0-0.2-0.1-0.1c0,0-0.1-0.1-0.1-0.1l-0.9-0.7
		c0.7,0,0.7,0.2,1.2,0c-0.7-0.2-0.5-0.1-0.5-0.5l-0.4-0.2l-0.6,0.2C141.5,59.2,141.4,59.3,141.3,59.3"/>
	<path fill-rule="evenodd" fill="#7C6547" d="M150.6,101.9c-0.6-0.6-0.5-0.1-1-0.8l-0.6,0.7C150,102.4,149.9,102.7,150.6,101.9"/>
	<path fill-rule="evenodd" fill="#FFFFFF" d="M126,71.4c-0.2,0.3,0,0.3-0.4,0.1c-0.3,0.2-0.1,0-0.4,0.5l0.3,0.3
		c0.2,0.1,0.1,0.3,0.2,0l0.9-0.2c0.2-0.5,0.1-0.2,0.1-0.5l0-0.4L126,71.4z"/>
	<path fill-rule="evenodd" fill="#FFFFFF" d="M149.3,67.3c0.2,0.4,0.2,0.3,0.1,0.8c0.4,0.6,0.4,0.5,1.1,0.5c0.1-0.5,0.5,0-0.2-0.8
		C149.9,67.4,149.8,67.5,149.3,67.3"/>
	<path fill-rule="evenodd" fill="#FFFFFF" d="M126.9,65.4c0,0.3-0.3,0,0.2,0.4c0.4-0.1,0.7-0.3,1.2-0.3c0.5,0,0.8,0.1,1-0.3
		c-0.7-0.2-0.5-0.1-1.2-0.1c-0.4,0-0.3,0-0.6,0C127,65.2,127.2,65.1,126.9,65.4"/>
	<path fill-rule="evenodd" fill="#352515" d="M158.7,64.7l-0.2,0c0,0.3,0,0.2,0.1,0.5c0.1,0.2,0.1,0.2,0.2,0.4l-0.4,0.7
		c0.4-0.1,0.3,0.1,0.6-0.2l0.3-0.1l0.8-0.9l0-0.1c-0.3,0.1,0-0.1-0.6,0.3c-0.2,0.1-0.1,0.2-0.5,0.3C158.9,65,158.9,65.3,158.7,64.7"
		/>
	<path fill-rule="evenodd" fill="#FFFFFF" d="M160.1,64l-0.2,0.5l-0.5,0.1c-0.5,0.3,0.1,0-0.8,0c0.3,0.5,0.2,0.3,0.3,0.8
		c0.3-0.2,0.2-0.2,0.5-0.3c0.6-0.4,0.2-0.2,0.6-0.3l0.8-1C160.1,64.1,160.6,64.1,160.1,64"/>
	<path fill-rule="evenodd" fill="#621D0F" d="M174.7,106.9l0.2-0.2c0,0.4,0.1,0.8,0.1,1l0.6,0.2c0-0.5-0.1-1-0.5-1.5
		c-0.1-0.2-0.2-0.1-0.3-0.3C174.4,106.8,174.6,106.4,174.7,106.9"/>
	<path fill-rule="evenodd" fill="#8B7250" d="M136.7,115.6c0.4-0.5,0.6-0.3,0.4-1.1l-0.9-0.4C136.1,115.1,136.2,114.9,136.7,115.6"
		/>
	<path fill-rule="evenodd" fill="#361B12" d="M179.1,106.9l0.8-1.6l-0.5-0.5C179.3,105.7,178.7,105.7,179.1,106.9"/>
	<path fill-rule="evenodd" fill="#FFFFFF" d="M173,75.4c0.7,0.4,1.4,0.6,2.2,0.7l0-0.3l-2-0.6L173,75.4z"/>
	<path fill-rule="evenodd" fill="#FFFFFF" d="M173.1,114.3l-0.4,1c0.8,0.3,0.2,0.1,0.5,0l0.3-0.3c0,0,0.1,0,0.1,0l-0.2-0.3
		c0.4-0.7,0.5-0.6,0.5-1.3c-0.1,0.2-0.2,0.5-0.4,0.7C173.2,114.5,173.6,114.3,173.1,114.3"/>
	<path fill-rule="evenodd" fill="#846B48" d="M124.8,92.4c-0.1-0.5-0.2-0.3,0.3-0.3c-0.3-0.4-0.4-0.2-0.3-0.7c0-0.7,0.3-0.3-0.1-0.9
		l-0.5,0.9l0.1,0.6L124.8,92.4z"/>
	<path fill-rule="evenodd" fill="#846B48" d="M131.1,96c0,0.4,0.2,0.9,0.9,1c0.5,0.1,0.3,0,0.6-0.1C132.1,96.6,131.7,95.9,131.1,96"
		/>
	<path fill-rule="evenodd" fill="#552B17" d="M170.8,79.8c0.1,0.5,0,0.4,0.3,0.8c0.2-0.3-0.1-0.1,0.3-0.3l0.6,0.4
		c0-0.4,0-0.1-0.1-0.5c0-0.1-0.1-0.2-0.1-0.3c-0.1-0.4-0.4,0.1,0.1-0.5c-0.1,0-0.3-0.2-0.6,0.2c-0.4,0.4-0.2,0.1-0.1,0.5L170.8,79.8
		z"/>
	<path fill-rule="evenodd" fill="#381F12" d="M177.1,80.2c0.4,1.2-0.7,0.3,0.4,1.6c0.2-0.7-0.1-0.1,0.4-0.6
		c-0.3-0.3-0.3-0.7-0.5-1.1L177.1,80.2z"/>
	<path fill-rule="evenodd" fill="#482D16" d="M165.9,69.2l-0.6-0.2c-0.1-0.7-0.1-0.7-0.5-1.2l-0.3,0.8C165,69.1,165,69.5,165.9,69.2
		"/>
	<path fill-rule="evenodd" fill="#7C6547" d="M151.3,104.7c-0.7-0.5-0.6-0.7-1.4-0.7c0,0,0.2,0.6,0.4,0.8
		C150.9,105.2,150.7,105,151.3,104.7"/>
	<path fill-rule="evenodd" fill="#4E3324" d="M169.6,84.5c0.1,0.3,0.2,1.1,0.5,1.3c0.4,0.3,0,0.1,0.4,0.1c0-0.3,0.2,0,0-0.6
		C170.5,85.2,170.1,84.5,169.6,84.5"/>
	<path fill-rule="evenodd" fill="#361B12" d="M177.9,101.5l0.7-0.2c0.2,0.5,0.2,0.6,0.5,1l-0.1-0.9c0,0,0-0.1,0-0.1
		c-0.2-0.6,0.2-0.2-0.7-0.8L177.9,101.5z"/>
	<path fill-rule="evenodd" fill="#FFFFFF" d="M158.7,64.7c0.8,0,0.3,0.3,0.8,0l0.5-0.1l-1.4-0.9L158.7,64.7z"/>
	<path fill-rule="evenodd" fill="#7C6547" d="M128.3,100.7c0,0.5,0,0.4,0.6,0.7c0.3-0.1,0.5,0,0.7-0.5l-0.6-0.4
		C128.2,100.6,129.3,100.8,128.3,100.7"/>
	<path fill-rule="evenodd" fill="#CCB28A" d="M140.4,95.8c0.2,0.1,0.7,0.4,0.9,0.4c0.7,0,0.2,0,0.5-0.3l-0.8-0.8
		c-0.2,0.6-0.2,0.2,0.1,0.5c-0.1,0-0.1,0-0.2,0L140.4,95.8z"/>
	<path fill-rule="evenodd" fill="#FFFFFF" d="M138.7,66.7c0.4,0.1,0.4,0.1,0.8,0.1c0.8-0.1,0.5-0.2,0.7-0.4
		C139.6,65.9,139.4,65.9,138.7,66.7"/>
	<path fill-rule="evenodd" fill="#683413" d="M152.4,59.5l-0.2,0.1l1.4,0.6c0-0.6,0-0.2-0.4-0.7l0.9,0.6c-0.1-0.4,0.1,0-0.3-0.5
		c0,0-0.3-0.2-0.4-0.3c0,0-0.1,0-0.1,0.1L152.4,59.5z"/>
	<path fill-rule="evenodd" fill="#FFFFFF" d="M179.2,95.2c0.3-1.1,0.5-1.1,1.1-2.1C179.6,93.4,178.9,93.9,179.2,95.2"/>
	<path fill-rule="evenodd" fill="#FFFFFF" d="M166.1,65.4L166.1,65.4c0.2-0.2,0.5-0.7,0.6-0.9c0.3-0.8,0.3-0.5-0.2-0.9
		C166.3,64.2,166,64.8,166.1,65.4"/>
	<path fill-rule="evenodd" fill="#714F15" d="M176.5,101.3l0.4-0.9c-0.2-0.4-0.2-0.4-0.3-0.9c0-0.2,0-0.3-0.1-0.4
		c-0.1-0.5,0-0.1-0.1-0.4c-0.2,0.7-0.1,0.8,0,1.5c0.1,0.6,0,0.2,0,0.6L176.5,101.3z"/>
	<path fill-rule="evenodd" fill="#714F15" d="M162.5,74.2l-0.3-0.6c1,0.2,0.9,0.1,1.6,0.9c0,0,0.3-0.5-0.8-0.9c-0.8-0.4-1.2,0-1.2,0
		L162.5,74.2z"/>
	<path fill-rule="evenodd" fill="#552B17" d="M159.6,71c-0.2-0.5,0.1-0.1-0.6-0.6l0.4-0.6l-0.5-0.1l-0.4,0.7
		C159.4,71.1,158.6,70.5,159.6,71"/>
	<path fill-rule="evenodd" fill="#A48866" d="M119.5,109.2c0.2,0.7,0.4,0.9,0.9,1.4c-0.1-0.6,0-0.6,0-1.1
		C119.8,109.4,120,109.4,119.5,109.2"/>
	<path fill-rule="evenodd" fill="#714F15" d="M165.9,76.3c0.5,0.2,0.6,0.4,1,0.6c0.8,0.4,0.5,0.1,0.8,0c-0.9-0.3-0.5-0.3-0.9-0.5
		c-0.2-0.1,0.1-0.1-0.4-0.2C165.9,76.2,166.2,76.2,165.9,76.3"/>
	<path fill-rule="evenodd" fill="#3A2415" d="M139.8,62l0.4,0.1c0.7-0.5,0.6-0.2,1.2-0.4c-1-0.4-0.4,0-0.8-0.6
		C140.2,61.8,140.3,61.4,139.8,62"/>
	<path fill-rule="evenodd" fill="#846B48" d="M136.3,110.2c0.2,0.3,0,0.5,0.8,0.3c0,0,0.1,0,0.1,0l0.5-0.2c-0.7-0.3-0.2-0.2-0.8-0.3
		C136.6,110,136.4,110.1,136.3,110.2"/>
	<path fill-rule="evenodd" fill="#281910" d="M124.7,71.9l-0.1,0.1l0.4,0.5c0.5-0.8-0.1,0,0.6-0.2l0.1,0l-0.3-0.3
		c0.2-0.5,0-0.3,0.4-0.5l-0.3-0.2c0,0-0.2,0.3-0.3,0.4C124.6,72.2,125.3,71.7,124.7,71.9"/>
	<path fill-rule="evenodd" fill="#FFFFFF" d="M125.6,72.3L125.6,72.3c-0.5,0.5-0.3,0.1-0.4,0.5c-0.1,0.6-0.2,0.1,0,0.6
		c0.1-0.1,0.5-0.5,0.5-0.5c0.3-0.6,0.3-0.1-0.1-0.6C125.7,72.6,125.8,72.4,125.6,72.3"/>
	<path fill-rule="evenodd" fill="#504D1C" d="M175.8,77.8l-0.6-0.3l0.9-0.8l-0.9,0.3c-0.3,0.2-0.2,0.2-0.5,0.4
		C175.2,77.8,175.3,78,175.8,77.8"/>
	<path fill-rule="evenodd" fill="#301D13" d="M152.4,59.5l0.8-0.1c0,0,0.1,0,0.1-0.1l-0.1-0.5l-0.9,0.2
		C152.7,59.7,152.4,58.9,152.4,59.5"/>
	<path fill-rule="evenodd" fill="#C3922B" d="M172.2,77.9c1.3-0.1-0.1,0.7,0.3-0.1c0.1-0.1,0.1-0.1,0.1-0.2c0-0.1-0.4-0.6-0.4-0.7
		c-0.4-0.6-0.1-0.3-0.6-0.3L172.2,77.9z"/>
	<path fill-rule="evenodd" fill="#B18919" d="M158.5,67.2l0.7,0.2l0.3-0.3l-0.9-0.1l0.7-1l-0.3,0.1l-0.5,0.7
		C158.5,67.1,158.3,66.7,158.5,67.2"/>
	<path fill-rule="evenodd" fill="#49351A" d="M172.2,90.7c0,0.7,0.3,0.8,0.7,1.3C172.9,91.7,172.8,90.2,172.2,90.7"/>
	<path fill-rule="evenodd" fill="#C3922B" d="M177.5,95.5c0.2-0.1,0.3,0.6,0.2-0.3c0-0.1-0.1-0.3-0.2-0.4c-0.2-0.3-0.3-0.5-0.6-0.3
		L177.5,95.5z"/>
	<path fill-rule="evenodd" fill="#FFFFFF" d="M140.4,59.2c0.4,0.1,0.6,0.1,0.9,0.1c0,0,0.1-0.1,0.1-0.1l0.6-0.2
		C141.4,58.7,141.1,58.9,140.4,59.2"/>
	<path fill-rule="evenodd" fill="#59371B" d="M176.5,103.8c0.1-0.3,0.2-0.2,0.2-0.5c0.1-0.4,0-0.2-0.1-0.5
		C175.6,103.5,176.2,103.9,176.5,103.8"/>
	<path fill-rule="evenodd" fill="#482D16" d="M148.5,62.7c-0.2,0.7-0.1,0.2,0.1,0.5c0.7-0.1,0.6,0,1.2-0.2c-0.5-0.2-0.2-0.1-0.7-0.1
		C148.5,62.7,149.3,62.9,148.5,62.7"/>
	<path fill-rule="evenodd" fill="#683413" d="M170.9,70.9c0,0,0.1-0.5,0.1-0.6c0-0.3,0-0.3,0-0.5c0,0-0.1,0-0.1,0c0,0-0.1,0-0.1,0
		l-0.3,0c0,0-0.1,0-0.1,0L170.9,70.9z"/>
	<path fill-rule="evenodd" fill="#59371B" d="M178.6,98.6l0.7-1c-0.4,0.1-0.1-0.5-0.4,0.3c0,0,0,0,0,0c-0.5,0.5,0.3-0.2-0.4-0.2
		C178.6,98.1,178.6,98.1,178.6,98.6"/>
	<path fill-rule="evenodd" fill="#AE926F" d="M142.9,86.2c0-0.2,0.1-0.4,0.1-0.5l0-0.5l-1.3-0.4l1.1,0.4c0,0.1,0,0.1,0,0.1l-0.3,0.4
		c0,0,0,0,0,0.1L142.9,86.2z"/>
	<path fill-rule="evenodd" fill="#973C15" d="M166.7,65.8l0.5,0.3c-0.4-1.3,0.1-0.7,0.1-1.9L166.7,65.8z"/>
	<path fill-rule="evenodd" fill="#352515" d="M178.3,100.5l0.4-0.3c-0.4-0.7-0.2-0.2-0.4-0.9C178.1,99.9,178.1,99.9,178.3,100.5"/>
	<path fill-rule="evenodd" fill="#683413" d="M138,66l0,0.1c0,0.4-0.3,0.1,0.2,0.4c0.1,0,0.6,0.2,0.3-0.4
		C138.2,65.5,138.5,66,138,66"/>
	<path fill-rule="evenodd" fill="#916F14" d="M135.3,62.4c1-0.4,1-0.6,0.5-1.2l-0.2,0.1c0.6,0.3,0.2,0.1,0.3,0.3L135.3,62.4z"/>
	<path fill-rule="evenodd" fill="#8F5016" d="M157.2,65.7c-0.1-0.1-0.1-0.2-0.3-0.4c-0.1,0-0.2-0.2-0.3-0.2
		c-0.2-0.2-0.4-0.3-0.7-0.4C156.2,65.3,156.6,65.3,157.2,65.7"/>
	<path fill-rule="evenodd" fill="#C64F17" d="M173.7,111.5c0.4,0.2,0.1-0.1,0.3,0.2c0,0,0.1,0.2,0.2,0.3l0.3-0.6l-0.4-0.3
		L173.7,111.5z"/>
	<path fill-rule="evenodd" fill="#947958" d="M138.9,90.8c0.2-0.6,0.2-0.9-0.3-1.3c0,0.3,0,0.2,0,0.5c0,0.1,0,0.2,0,0.3
		C138.8,90.6,138.8,90.4,138.9,90.8"/>
	<path fill-rule="evenodd" fill="#AA7329" d="M170.5,81.7c0.1,0.7,0,0.3,0.6,0.9l-0.1-1L171,82L170.5,81.7z"/>
	<path fill-rule="evenodd" fill="#AA7329" d="M149.4,68.1c0.1-0.5,0.1-0.4-0.1-0.8l-0.6,0.1C149,67.7,149.1,67.8,149.4,68.1"/>
	<path fill-rule="evenodd" fill="#AE926F" d="M134.9,113.3l0.2-0.7l-0.8-0.5l0.4,0.5c0,0,0,0.1,0.1,0.1l0.1,0.3c0,0,0,0.2,0,0.1
		C134.9,113.2,134.9,113.3,134.9,113.3"/>
	<path fill-rule="evenodd" fill="#FFFFFF" d="M130,64.4c0.7-0.1,0.7-0.2,1-0.9l-0.4,0.2c0,0-0.1,0.1-0.1,0.1
		C130.2,64.1,130.3,64.2,130,64.4"/>
	<path fill-rule="evenodd" fill="#763E25" d="M175.7,105.6c0.1-0.7,0.1,0-0.1-0.5c-0.3,0.7-0.2,0.2-0.2,0.9
		C175.4,105.9,175.5,106.3,175.7,105.6"/>
	<path fill-rule="evenodd" fill="#8D6D2E" d="M148.3,61.6l0.1-0.5l-0.8,0.7C148.6,61.9,147.7,61.8,148.3,61.6"/>
	<path fill-rule="evenodd" fill="#683719" d="M179.4,104.7c0-0.3,0-0.3,0-0.6c0-0.1-0.1-0.2-0.1-0.3c-0.1-0.3-0.1-0.2-0.2-0.4
		c0,0.3-0.1,0.3,0,0.6C179.1,104.5,179.2,104.5,179.4,104.7"/>
	<path fill-rule="evenodd" fill="#793410" d="M134,59.6l-0.2-1.1C133.4,59.2,133.5,59.1,134,59.6"/>
	<path fill-rule="evenodd" fill="#FFFFFF" d="M134.3,61.1l-0.1,0.2c0.1,0,0.2-0.1,0.2,0c0,0,0.2,0,0.3-0.1c0,0,0.3-0.1,0.4-0.1
		c0.2-0.2,0.3-0.1-0.1-0.2L134.3,61.1z"/>
	<path fill-rule="evenodd" fill="#FFFFFF" d="M180,92.4l-0.4-0.2l-0.2,0.7C179.9,92.8,179.8,92.6,180,92.4"/>
	<path fill-rule="evenodd" fill="#AE926F" d="M152,111c0-0.3,0-0.2,0.3-0.6l-0.6,0c0,0-0.1,0-0.2,0.1L152,111z"/>
	<path fill-rule="evenodd" fill="#543323" d="M147.6,60l0.4,0l-0.3,0.4c0.2-0.1,0.1,0.4,0.4-0.3c0.2-0.5,0.1-0.1,0-0.4
		C147.9,59.8,147.8,59.9,147.6,60"/>
	<path fill-rule="evenodd" fill="#9B8263" d="M143,87.2c-0.3-0.5-0.1-0.3-0.2-0.6c-0.7-0.1-0.2-0.2-0.6,0.1L143,87.2z"/>
	<path fill-rule="evenodd" fill="#714F15" d="M176.2,95.8l0.3-0.6l0.3,0.2c-0.1-0.3,0.5-0.1-0.3-0.4
		C176.2,95.4,176.2,95.4,176.2,95.8"/>
	<path fill-rule="evenodd" fill="#984B19" d="M133.8,58.5l0.2-0.3c-0.1-0.1-0.3-0.3-0.3-0.4l-0.1,0.5
		C133.3,58.7,133.5,58.3,133.8,58.5"/>
	<polygon fill-rule="evenodd" fill="#714F15" points="177,104 176.5,103.8 176.5,104.4 	"/>
	<path fill-rule="evenodd" fill="#8D6D2E" d="M117.6,80.3l-0.3-0.3l-0.1,0.5C117.5,80.5,117,80.9,117.6,80.3"/>
	<path fill-rule="evenodd" fill="#9C805D" d="M142.5,100.4c0.3-0.4,0.1-0.2,0.4-0.4l-0.6,0L142.5,100.4z"/>
	<path fill-rule="evenodd" fill="#C3922B" d="M175.2,85.2c0.3-0.1,0.2,0.6,0.3-0.2c-0.5-0.6-0.1-0.2-0.4,0L175.2,85.2z"/>
	<polygon fill-rule="evenodd" fill="#462814" points="179.1,81.9 178.6,81.6 178.7,82.1 	"/>
	<path fill-rule="evenodd" fill="#AE926F" d="M149.7,98.6c0.2,0,0.2,0.1,0.4-0.1c0.4-0.4,0.3,0.1,0.2-0.4
		C149.8,98.4,150,98.3,149.7,98.6"/>
	<path fill-rule="evenodd" fill="#916F14" d="M176.7,102.1c0-0.5,0-0.1-0.1-0.5c-0.2-1,0.5,0.7-0.2-0.2
		C176.3,101.8,176.3,101.6,176.7,102.1"/>
	<polygon fill-rule="evenodd" fill="#B89468" points="122.9,88.5 122.9,88 122.5,88.1 	"/>
	<polygon fill-rule="evenodd" fill="#B18C2B" points="135.4,60.9 136.1,60.7 135.7,60.6 	"/>
	<path fill-rule="evenodd" fill="#873514" d="M174.1,111.1l0.4,0.3c0.3-0.8-0.1,0.7,0.1-0.4L174.1,111.1z"/>
	<polygon fill-rule="evenodd" fill="#FFFFFF" points="176.5,98 176.3,97.3 176.2,97.7 	"/>
	<image width="142" height="51" xlink:href="432025DA.png"  transform="matrix(1 0 0 1 11 80)">
	</image>
	<path fill-rule="evenodd" fill="#FFFFFF" d="M25.9,99.2v-3c0-0.5,0-1.7-0.3-2.1c-0.1-0.1-0.5-0.1-0.6-0.1c-1.1,0-1.1,1.4-1.1,2.2v3
		H25.9z M24,111.9v8.7H10.1V95.8c0-4.3,1-8.4,4.1-11.5c3.1-3.1,7.2-4.2,11.4-4.2c3.9,0,7.9,0.9,10.6,3.9c2.8,3.1,3.5,7.5,3.5,11.5
		v25.1H25.9v-8.7H24z M73,108.8c0.4,0.5,0.9,0.7,1.6,0.7c0.6,0,1.1-0.4,1.5-0.7H73z M60.3,98.8c0.7-1.5,1.7-2.8,3-4.1
		c3.1-3,6.8-4.5,11.1-4.5c4.2,0,7.9,1.4,10.8,4.4c3,3,4.4,6.6,4.4,10.8c0,0.7-0.1,1.4-0.1,2l-0.1,1.4H78.8l6.5,7.8l-1.2,1
		c-2.9,2.3-6.2,3.5-9.8,3.5c-4.3,0-8-1.4-11.1-4.4c-3-3-4.5-6.7-4.5-11c0-0.4,0-0.8,0-1.2l-0.7-0.4c-0.3-0.2-0.8-0.4-1.2-0.4
		c-1.2,0-1.2,1.8-1.2,2.6v14.2H42.6v-16.1c0-3.8,1-7.4,3.6-10.2c2.5-2.8,5.8-3.9,9.5-3.9c1.1,0,2.2,0.1,3.3,0.3l1.3,0.2V98.8z
		 M138.7,107.2v-0.6c0-0.8-0.1-1.7-0.7-2.4c-0.4-0.5-0.9-0.7-1.6-0.7c-0.7,0-1.2,0.2-1.6,0.7c-0.5,0.5-0.7,1-0.7,1.7
		c0,0.6,0.2,1.2,0.6,1.7c0.4,0.4,0.9,0.6,1.5,0.6c0.6,0,1.1-0.1,1.6-0.5L138.7,107.2z M103,106.5l0.9,0.7c0.4,0.3,1,0.6,1.5,0.6
		c0.6,0,1.1-0.2,1.6-0.7c0.5-0.5,0.7-1,0.7-1.7c0-0.6-0.2-1.2-0.7-1.6c-0.5-0.5-1-0.7-1.7-0.7C103.4,103.2,103.1,104.9,103,106.5
		 M120.9,104.4c0.3-3.7,1.8-6.9,4.5-9.6c3-3,6.7-4.5,10.9-4.5c4.3,0,8.2,1.2,11.3,4.2c3,3.1,4.2,7.2,4.2,11.4v14.6h-11.6v0.1
		l-1.3,0.2c-0.8,0.1-1.7,0.2-2.5,0.2c-4.3,0-8-1.4-11.1-4.4c-2.7-2.7-4.2-6-4.4-9.7c-0.3,3.7-1.8,6.9-4.5,9.6
		c-2.9,3-6.5,4.6-10.7,4.6c-0.9,0-1.8-0.1-2.7-0.2v9.5H90v-23.8c0-4,1-7.9,3.6-11c1.4-1.7,3.2-3,5.2-3.9c2.1-0.9,4.2-1.5,6.5-1.5
		c4.3,0,8.1,1.4,11.1,4.5C119.1,97.4,120.6,100.7,120.9,104.4"/>
	<path d="M25.7,100.7v9.6h-3.1v8.7H11.7V95.8c0-4.5,1.2-8,3.7-10.5c2.5-2.5,5.9-3.7,10.3-3.7c4.3,0,7.5,1.1,9.5,3.4
		c2.1,2.3,3.1,5.7,3.1,10.5v23.6H27.4V96.2c0-1.4-0.2-2.4-0.5-3c-0.3-0.6-0.9-0.8-1.8-0.8c-1.7,0-2.5,1.3-2.5,3.8v4.6H25.7z"/>
	<path d="M58.8,92.1v10.7c-0.7-0.4-1.3-0.6-1.9-0.6c-1.8,0-2.7,1.4-2.7,4.2v12.7h-10v-14.6c0-3.9,1.1-6.9,3.2-9.2
		c2.1-2.3,4.9-3.4,8.4-3.4C56.5,91.8,57.5,91.9,58.8,92.1"/>
	<path d="M87.9,107.3H72.8c-0.2-0.8-0.3-1.5-0.3-2.1c0-0.9,0.2-1.8,0.5-2.6H78c-0.4-2-1.5-3-3.3-3c-1.2,0-2.3,0.5-3.1,1.6
		c-0.8,1.1-1.2,2.4-1.2,4.1c0,1.7,0.4,3.1,1.1,4.2c0.8,1.1,1.8,1.6,3,1.6c1,0,2-0.5,2.9-1.5l5.7,6.9c-2.7,2.1-5.6,3.1-8.9,3.1
		c-4,0-7.3-1.3-10-4c-2.7-2.7-4-6-4-9.9c0-3.9,1.4-7.2,4.1-9.9c2.7-2.7,6.1-4,10-4c3.9,0,7.1,1.3,9.8,3.9c2.6,2.6,3.9,5.9,3.9,9.7
		C88,105.8,88,106.5,87.9,107.3"/>
	<path d="M101.5,128.9h-10v-22.3c0-4.1,1.1-7.4,3.2-10c1.2-1.5,2.8-2.7,4.7-3.5c1.9-0.9,3.9-1.3,5.8-1.3c4,0,7.3,1.3,10.1,4
		c2.7,2.7,4.1,6,4.1,9.9c0,3.8-1.4,7-4.1,9.8c-2.7,2.7-5.9,4.1-9.6,4.1c-0.6,0-1.5-0.1-2.7-0.2v-11c0.8,0.7,1.6,1,2.5,1
		c1,0,1.9-0.4,2.7-1.2c0.7-0.8,1.1-1.7,1.1-2.7c0-1.1-0.4-1.9-1.2-2.7c-0.8-0.7-1.7-1.1-2.8-1.1c-2.6,0-3.9,1.8-3.9,5.3V128.9z"/>
	<path d="M138.6,109v10.4c-0.8,0.1-1.6,0.2-2.2,0.2c-4,0-7.4-1.3-10-4c-2.7-2.6-4-6-4-9.9c0-3.9,1.4-7.2,4.1-9.9c2.7-2.7,6-4,9.9-4
		c4.3,0,7.7,1.3,10.2,3.8c2.5,2.5,3.7,6,3.7,10.3v13.1h-10v-12.4c0-1.4-0.3-2.5-1-3.4c-0.7-0.8-1.6-1.3-2.8-1.3
		c-1.1,0-2,0.4-2.7,1.2c-0.8,0.8-1.2,1.7-1.2,2.7c0,1.1,0.3,2,1,2.7c0.7,0.7,1.6,1.1,2.7,1.1C137.1,109.7,137.9,109.5,138.6,109"/>
	<image width="83" height="19" xlink:href="432025EA.png"  transform="matrix(1 0 0 1 37 72)">
	</image>
	<path fill-rule="evenodd" fill="#FFFFFF" d="M107.9,83.5c0.7-0.2,1.2-0.6,1.2-1.5c0-0.2,0-1-0.2-1.1c0,0-0.1,0-0.1,0
		C108.2,80.8,107.9,82.5,107.9,83.5 M95.8,84.3c-1.1-0.1-2.1-0.7-2.5-1.9c-0.1-0.3-0.2-0.7-0.2-1c-0.5,0.7-0.6,2-0.6,2.7
		c0,1.1,0.2,3.3,1.7,3.3C95.5,87.4,95.8,85.4,95.8,84.3 M65.4,84.3c-1.1-0.1-2.1-0.7-2.5-1.9c-0.1-0.3-0.2-0.7-0.2-1
		c-0.5,0.7-0.6,2-0.6,2.7c0,1.1,0.2,3.3,1.7,3.3C65.1,87.4,65.3,85.4,65.4,84.3 M115.5,73.9c0.4-0.5,1-0.6,1.6-0.6
		c0.3,0,0.6,0,0.9,0.1c0.2,0,0.4,0.1,0.6,0.2c1.2,1-1.2,3.8-2.1,4.5c-0.4,0.3-0.9,0.5-1.4,0.5c-0.6,0-1.1-0.4-1.2-1.1
		C113.8,76.6,114.9,74.6,115.5,73.9 M108.2,86c0.3,0.7,0.9,1.2,1.8,1.2c3,0,3.4-4,5.1-4c0.2,0,0.5,0.1,0.7,0.2
		c1.2,0.8,0,2.9-0.6,3.7c-1.3,1.6-3.1,2.5-5.2,2.5c-3.4,0-6.5-2.1-6-5.7c0.3-3.1,2.6-5.6,5.8-5.6c2.2,0,3.4,1.3,3.4,3.5
		C113.1,84.7,110.6,85.7,108.2,86 M69.4,83.4c0,0.2,0,0.5,0,0.7c-0.3,3.1-3.1,5.6-6.2,5.6c-1.3,0-2.5-0.4-3.5-1.3
		c-0.8,0.8-1.7,1.2-2.9,1.2c-2.9,0-3.2-3.5-3-5.6c0-0.3,0.1-1.2,0.2-1.7c-0.3,0-0.6,0-0.9,0c0.1,0.7,0.1,1.4,0.1,2
		c0,1.3-0.9,2.5-2.2,2.5c-0.6,0-1.1-0.3-1.1-1v-0.1l0-0.1c0.1-0.8,0.2-2.7-0.1-3.6c-0.9-0.4-1.2-1.8-0.9-2.7
		c0.3-0.9,0.7-1.6,1.8-1.6c0.9,0,2.1,0.5,2.2,1.4c0.9-0.1,1.9-0.4,2.8-0.6c0.2-0.1,0.5-0.1,0.7-0.1c0.7,0,1.4,0.4,1.6,1.1
		c0.3,1-0.3,3.6-0.5,4.7c0,0.3-0.2,2.5,0.4,2.5c0.2,0,0.3-0.1,0.4-0.3c-0.4-0.9-0.5-1.8-0.4-2.7c0.3-3.1,3-5.6,6.2-5.6
		c1.9,0,3.6,0.9,4.5,2.5c0.4-0.7,1.8-1.5,2.3-2c0.3-0.3,0.6-0.4,0.9-0.4c0.8,0,1.2,0.7,1.2,1.4c0.6-0.9,1.4-1.5,2.4-1.5
		c3.7,0,3.6,3.2,3.3,6c0,0.3-0.2,2.5,0.4,2.5c0.2,0,0.4-0.1,0.5-0.3c-0.4-0.8-0.4-1.7-0.3-2.6c0.3-3.1,2.6-5.6,5.8-5.6
		c2.5,0,3.6,1.4,3.6,3.8c0,1.5-0.7,2.2-2.2,2.2c-0.8,0-1.8-0.2-1.8-1.2c0-0.4,0.2-0.7,0.2-1.3c0-0.2,0-1-0.2-1.1c0,0-0.1,0-0.2,0
		c-1.4,0-1.3,2.4-1.3,3.3c0,1.2,0.5,3.1,2,3.1c1.5,0,2.4-0.7,3.3-1.7c-0.1-0.5-0.1-1,0-1.5c0.3-3.1,3-5.6,6.2-5.6c2,0,3.7,1,4.6,2.7
		c0.4-0.3,0.8-0.5,1.2-0.5c0.8,0,1.2,1,0.8,1.7c-0.3,0.4-0.9,0.9-1.5,1.2c0,0.2,0,0.5,0,0.7c-0.3,3.1-3.1,5.6-6.2,5.6
		c-1.4,0-2.8-0.5-3.7-1.5c-1.3,1-3,1.5-4.7,1.5c-1.5,0-3-0.4-4.2-1.3c-0.8,0.8-1.8,1.3-3,1.3c-2.9,0-3.2-3.5-3-5.6
		c0-0.4,0.2-1.9,0.1-2.4c0,0,0,0,0,0c-0.7,0.2-1.6,2.9-1.8,3.5c-0.2,0.7-0.3,1.5-0.3,2.2v0c0,0,0,0.1,0,0.1h0.3l0.2,0.6
		c0.3,1.1-0.6,1.6-1.5,1.6c-1.3,0-2.3-0.4-2.6-1.8c-0.2-0.9-0.1-2.4-0.1-3.3L69.4,83.4C69.4,83.4,69.4,83.4,69.4,83.4 M51.8,75.9
		c-2.8,0.6-3.7,1.5-3.7,4.6c0,2,0,4,0,6c0,0.2,0.1,0.7,0.2,0.9h0.4l0.2,0.5c0.4,1.1-0.5,1.7-1.5,1.7c-1.5,0-3.4-0.6-3.4-2.5l0-2
		c0-1.7-0.1-3.3-0.1-5c0-2.1,0.6-3.8,2-4.9c-0.2,0-0.4-0.1-0.6-0.1c-0.7-0.2-1.4-0.3-2.1-0.3c-0.4,0-0.8,0.1-1.2,0.2l-0.2,0.1
		c-0.5,0.5-0.2,1.8,0,2.4c0.5,0.8-0.2,1.7-1,1.9c-0.4,0.2-0.9,0.3-1.3,0.3c-0.5,0-1.1-0.2-1.4-0.6c-0.7-0.7-0.6-1.9-0.4-2.8
		c0.4-1.3,1.3-2.3,2.3-3.1c0.3-0.2,0.6-0.5,1-0.6c0.9-0.5,1.9-0.7,3-0.7c0.9,0,1.8,0.2,2.7,0.4c1,0.3,2.1,0.5,3.1,0.5
		c0.6,0,1.5-0.1,2-0.5l0.2-0.2h0.3C54.3,72.2,53.9,75.9,51.8,75.9L51.8,75.9z"/>
	<path d="M51.7,75.1c-2.2,0.5-4.4,1.1-4.4,5.4c0,3.9,0,4.7,0,6c0,0.5,0.2,1.7,0.8,1.7c0.2,0.5-0.3,0.6-0.7,0.6
		c-1.1,0-2.6-0.3-2.6-1.7l0-2c0-1.4-0.1-2.5-0.1-5c0-3.4,1.8-4.7,3.6-5.3c-0.8-0.1-1.7-0.3-2.7-0.5c-0.8-0.2-1.5-0.4-2.3-0.4
		c-0.6,0-1.1,0.1-1.6,0.3l-0.2,0.1c-1.3,1-0.2,3.4-0.2,3.4c0.2,0.3-0.1,0.7-0.6,0.8c0,0-0.5,0.3-1,0.3c-0.3,0-0.6-0.1-0.9-0.3
		c-0.7-0.7-0.4-3,1.8-4.7c0.3-0.3,0.6-0.4,0.8-0.5c0.6-0.3,1.4-0.6,2.7-0.6c0.7,0,1.5,0.1,2.5,0.4c0.9,0.3,2.2,0.5,3.3,0.5
		c1,0,1.9-0.2,2.5-0.7C53.2,73,52.9,75.1,51.7,75.1L51.7,75.1z"/>
	<path d="M54.7,81.6c-0.3-0.1-1.5-0.1-2.4-0.1c0,0,0.2,1.7,0.2,2.8c0,1.3-0.9,1.7-1.4,1.7c-0.2,0-0.3-0.1-0.3-0.2
		c0.3-2.4-0.1-4.4-0.3-4.4c-0.7,0-1-1.1-0.7-1.8c0.2-0.7,0.4-1,1.1-1c0.7,0,1.4,0.3,1.4,0.8v0.7c1.2,0,2.6-0.3,3.8-0.7
		c0.2,0,0.3-0.1,0.5-0.1c0.4,0,0.7,0.2,0.8,0.6c0.2,0.7-0.3,2.4-0.5,4.4c-0.3,2.8,0.5,3.4,1.1,3.4c1.8,0,1.6-3.5,2.2-3.5
		c0.3,0,0.9,0.2,0.7,0.9c-1.1,2.3-2.1,3.8-4.1,3.8c-1.6,0-2.5-1.6-2.2-4.8C54.7,82.9,54.9,81.7,54.7,81.6"/>
	<path d="M64.2,79.2c2.1,0,3.7,1.3,4.2,3.1c0.7-0.4,1.2-0.9,1.6-0.9c0.2,0,0.2,0.3,0.2,0.5c-0.1,0.1-0.6,0.7-1.6,1.1
		c0,0.4,0,0.7,0,1.1c-0.3,2.7-2.7,4.9-5.4,4.9c-2.7,0-4.7-2.2-4.3-4.9C59.1,81.3,61.5,79.2,64.2,79.2 M63.7,88.2
		c1.7,0,2.5-1.7,2.5-4.1c0-0.2,0-0.4,0-0.6h-0.4c-2.4,0-2.7-2.5-2.1-3.5c-1.7,0-2.4,1.7-2.4,4.1C61.2,86.5,62,88.2,63.7,88.2
		 M66.1,82.9c-0.2-1.3-0.7-2.3-1.6-2.7C64.5,80.8,65.1,82.7,66.1,82.9"/>
	<path d="M75.8,84.1c0.3-3.2-0.1-3.3-0.8-3.3c-1.3,0-2.8,3.8-2.8,6.5v0c0,0.6,0.2,0.8,0.6,0.8c0.2,0.5-0.3,0.6-0.8,0.6
		c-1.1,0-1.6-0.3-1.8-1.2c-0.1-0.6-0.1-1.5,0-3.1v-2c0-1-0.8-0.9-0.8-1.2c0-0.3,1.2-0.9,2.2-1.9c0.1-0.1,0.3-0.2,0.4-0.2
		c0.3,0,0.4,0.3,0.4,0.7l0,3.4c0.6-2,1.8-4.2,3.1-4.2c2.4,0,2.9,1.3,2.5,5.2c-0.3,2.8,0.5,3.4,1.2,3.4c1.8,0,1.9-3.7,2.5-3.7
		c0.3,0,0.9,0.2,0.7,0.9c-1.1,2.3-2.5,4-4.4,4C76.4,88.9,75.4,87.3,75.8,84.1"/>
	<path d="M86.4,83.6c-0.6,0-1-0.1-1-0.4c0-0.3,0.2-0.2,0.2-1.3c0-1.2-0.2-1.9-1.1-1.9c-1.7,0-2.1,1.7-2.1,4.1c0,2.4,1.2,3.9,2.8,3.9
		c3.8,0,4.7-4,5.7-4c0.1,0,0.1,0,0.2,0.1c0.8,0.5-0.9,4.8-6,4.8c-3.6,0-5.4-2.2-5.1-4.9c0.3-2.7,2.3-4.9,5-4.9c2.3,0,2.8,1.3,2.8,3
		C87.9,83.3,87.6,83.6,86.4,83.6"/>
	<path d="M94.7,79.2c2.1,0,3.7,1.3,4.2,3.1c0.7-0.4,1.2-0.9,1.6-0.9c0.2,0,0.2,0.3,0.2,0.5c-0.1,0.1-0.6,0.7-1.6,1.1
		c0,0.4,0,0.7,0,1.1c-0.3,2.7-2.7,4.9-5.4,4.9c-2.7,0-4.7-2.2-4.3-4.9C89.6,81.3,92,79.2,94.7,79.2 M94.1,88.2
		c1.7,0,2.5-1.7,2.5-4.1c0-0.2,0-0.4,0-0.6h-0.4c-2.4,0-2.7-2.5-2.1-3.5c-1.7,0-2.4,1.7-2.4,4.1C91.7,86.5,92.5,88.2,94.1,88.2
		 M96.6,82.9c-0.2-1.3-0.7-2.3-1.6-2.7C95,80.8,95.6,82.7,96.6,82.9"/>
	<path d="M110,88.9c-3.6,0-5.6-2.2-5.3-4.9c0.3-2.7,2.3-4.9,5-4.9c1.8,0,2.6,1,2.6,2.7c0,2.8-3.4,3.3-5.1,3.3
		c0.3,1.7,1.5,2.7,2.8,2.7c3.3,0,4.2-4,5.1-4c0.1,0,0.2,0,0.2,0.1C116.1,84.6,114.2,88.9,110,88.9 M107.1,84.4
		c1.2,0,2.8-0.4,2.8-2.4c0-1.3-0.3-1.9-1.1-1.9c-1.1,0-1.7,1.7-1.7,4.1V84.4z"/>
	<path d="M116,77.4c-0.2,0.2-0.6,0.3-0.9,0.3c-0.2,0-0.4-0.1-0.4-0.3c0-0.3,0.5-1.8,1.4-3c0.1-0.2,0.6-0.3,1-0.3
		c0.4,0,0.9,0.1,0.9,0.1C118.6,74.2,117.3,76.5,116,77.4"/>
	<image width="68" height="20" xlink:href="432025EB.png"  transform="matrix(1 0 0 1 104 116)">
	</image>
	<path fill-rule="evenodd" fill="#FCFCFC" d="M139.7,128.6c0.8-0.2,1.4-0.6,1.4-1.7c0-0.3,0.1-1.3-0.4-1.3
		C140,125.6,139.8,127.6,139.7,128.6 M117.9,128.6c0.8-0.2,1.4-0.6,1.4-1.7c0-0.3,0.1-1.3-0.4-1.3
		C118.3,125.6,118,127.6,117.9,128.6 M162.5,125.7c-0.2-0.1-0.4-0.2-0.5-0.2c0,0-0.1,0-0.2,0c-1.3,0.5-1.5,2.4-1.5,3.5
		c0,0.9,0,3,1.2,3c0.8-0.5,1-4.3,1-5.6C162.5,126.3,162.5,126,162.5,125.7 M145.2,127c-0.1,2.8-2.8,3.7-5.2,4c0.4,0.8,1,1.5,2,1.5
		c1.7,0,2.7-1.2,3.5-2.5l0-0.4v-2.2C145.6,127.2,145.4,127.1,145.2,127 M130,123c-0.4,2.2-1.2,4.6-2.3,6.2c0,0.9,0.1,3.1,1,3.1
		c0.6,0,1.2-1,1.4-1.7c-0.1-0.7-0.1-1.3-0.1-2C130.1,126.7,130,124.8,130,123 M131.1,133.3c-1,0.9-2.2,1.6-3.6,1.6
		c-1.3,0-2.1-0.7-2.7-1.7c-1.2,1.1-2.8,1.7-4.6,1.7c-1.6,0-3.3-0.4-4.5-1.5c-0.8,0.9-1.8,1.4-3.1,1.4c-3,0-3.3-3.6-3.1-5.8
		c0-0.4,0.2-1.4,0.2-1.9c-0.3,0-0.7,0-1.1-0.1c0.1,0.7,0.1,1.5,0.1,2.2c0,1.3-0.9,2.5-2.2,2.5c-0.5,0-1.1-0.3-1.1-0.9v0l0,0
		c0.1-0.8,0.2-2.9-0.1-3.9c-1-0.4-1.2-1.9-0.9-2.8c0.3-1,0.7-1.6,1.9-1.6c0.9,0,2.2,0.5,2.3,1.5c1-0.1,2.1-0.4,3-0.6
		c0.2-0.1,0.5-0.1,0.7-0.1c0.7,0,1.4,0.4,1.6,1.1c0.3,1-0.4,3.8-0.5,5c0,0.3-0.3,2.8,0.5,2.8c0.3,0,0.4-0.2,0.6-0.4
		c-0.4-0.9-0.6-1.9-0.4-2.8c0.3-3.2,2.7-5.8,6-5.8c2.3,0,3.5,1.4,3.5,3.6c0,2.9-2.7,3.9-5.2,4.2c0.4,0.8,1,1.5,2,1.5
		c1.8,0,2.7-1.3,3.6-2.6c0-0.5-0.1-1-0.1-1.4c0-2.3-0.1-4.6-0.1-6.9c0-2.5,0.4-5,3.6-5c1.8,0,2.6,1.4,2.8,2.9
		c0.3-1.6,1.2-2.9,3.4-2.9c2.2,0,2.9,2,2.9,3.9c0,2.6-0.9,6.5-2.5,8.7c0,0.9,0.1,3.1,1,3.1c0.4,0,0.8-0.4,1-0.8
		c-0.3-0.8-0.4-1.6-0.3-2.4c0.3-3.2,2.7-5.8,6-5.8c1.8,0,2.9,0.8,3.3,2.3c0.6-0.7,1.7-1.4,2.2-1.8c0.3-0.2,0.6-0.4,0.9-0.4
		c0.8,0,1.2,0.8,1.2,1.5l0,0.2c0.7-1,1.5-1.8,2.6-1.8c3.9,0,3.7,3.3,3.4,6.3c0,0.3-0.2,2.8,0.5,2.8c0.4,0,0.6-0.4,0.8-0.7
		c-0.3-0.8-0.4-1.7-0.3-2.5c0.4-3.2,3.2-5.8,6.4-5.8c1,0,1.4,0.7,1.4,1.3c0.2,0,0.4,0,0.6,0c0.8,0,2,0.1,2,1.2c0.1,1.2,0,2.4,0,3.6
		c0,0.4,0.1,2.6,0.5,2.8c1.4,0,1.1-4,2.7-4c1,0,1.8,0.9,1.5,1.9l0,0.1l0,0.1c-1,2.1-2.7,4.6-5.3,4.6c-1.1,0-1.9-0.5-2.4-1.3
		c-0.4,0.8-1.1,1.3-2.1,1.3c-1.4,0-2.7-0.5-3.7-1.5c-0.9,0.9-1.9,1.5-3.2,1.5c-3,0-3.3-3.6-3-5.9c0-0.4,0.2-2.2,0-2.6
		c0,0-0.1,0-0.1,0c-0.8,0.1-1.8,3.1-1.9,3.8c-0.2,0.8-0.3,1.6-0.3,2.4v0c0,0,0,0.1,0,0.2h0.4l0.2,0.5c0.3,1.1-0.6,1.6-1.5,1.6
		c-1.1,0-2-0.2-2.4-1.1c-1.1,0.8-2.5,1.2-3.9,1.2c-1.7,0-3.4-0.4-4.7-1.6c-1,0.9-2.2,1.6-3.6,1.6
		C132.5,134.9,131.7,134.3,131.1,133.3"/>
	<path d="M110.3,126.5c-0.3-0.1-1.6-0.1-2.5-0.1c0,0,0.2,1.7,0.2,3c0,1.3-1,1.8-1.5,1.8c-0.2,0-0.3-0.1-0.3-0.2
		c0.3-2.6-0.1-4.6-0.3-4.6c-0.7,0-1-1.2-0.8-1.9c0.2-0.7,0.4-1.1,1.2-1.1c0.8,0,1.5,0.4,1.5,0.9v0.7c1.3,0,2.8-0.4,4-0.7
		c0.2,0,0.3-0.1,0.5-0.1c0.4,0,0.8,0.2,0.9,0.6c0.2,0.8-0.3,2.5-0.5,4.6c-0.3,2.9,0.5,3.6,1.2,3.6c1.9,0,1.7-3.7,2.3-3.7
		c0.3,0,1,0.2,0.8,1c-1.2,2.4-2.3,4-4.3,4c-1.7,0-2.7-1.7-2.3-5C110.4,127.9,110.6,126.6,110.3,126.5"/>
	<path d="M120.2,134.2c-3.8,0-5.9-2.3-5.6-5.1c0.3-2.8,2.4-5.1,5.3-5.1c1.9,0,2.8,1,2.8,2.9c0,3-3.6,3.5-5.4,3.5
		c0.4,1.8,1.6,2.9,3,2.9c3.5,0,4.4-4.2,5.4-4.2c0.1,0,0.2,0,0.2,0.1C126.7,129.7,124.8,134.2,120.2,134.2 M117.2,129.4
		c1.3,0,2.9-0.4,2.9-2.6c0-1.4-0.3-2-1.1-2c-1.2,0-1.8,1.8-1.8,4.3V129.4z"/>
	<path d="M124.5,121.6c0-0.8-0.3-4.3,2.8-4.3c1.2,0,2.1,0.9,2.1,3.1c0,1.9-0.7,6.1-2.5,8.5c0,2.9,0.6,4.1,1.8,4.1c1.9,0,2.5-4,3.1-4
		c0.3,0,1,0.2,0.8,1c-1.2,2.4-3.1,4.2-5.1,4.2c-2,0-2.9-2.4-2.9-5.7C124.6,127.8,124.5,122.3,124.5,121.6 M127,121.1l0,5.9
		c0.8-2.3,1-5,1-6.1c0-1.1-0.1-2.4-0.5-2.4C126.9,118.5,127,119.8,127,121.1"/>
	<path d="M130.7,121.6c0-0.8-0.3-4.3,2.8-4.3c1.2,0,2.1,0.9,2.1,3.1c0,1.9-0.7,6.1-2.5,8.5c0,2.9,0.6,4.1,1.8,4.1c1.9,0,2.5-4,3.1-4
		c0.3,0,1,0.2,0.8,1c-1.2,2.4-3.1,4.2-5.1,4.2c-2,0-2.9-2.4-2.9-5.7C130.8,127.8,130.7,122.3,130.7,121.6 M133.2,121.1l0,5.9
		c0.8-2.3,1-5,1-6.1c0-1.1-0.1-2.4-0.5-2.4C133.1,118.5,133.2,119.8,133.2,121.1"/>
	<path d="M142,134.2c-3.8,0-5.9-2.3-5.6-5.1c0.3-2.8,2.4-5.1,5.3-5.1c1.9,0,2.8,1,2.8,2.9c0,3-3.6,3.5-5.4,3.5
		c0.4,1.8,1.6,2.9,3,2.9c3.5,0,4.4-4.2,5.4-4.2c0.1,0,0.2,0,0.2,0.1C148.5,129.7,146.5,134.2,142,134.2 M138.9,129.4
		c1.3,0,2.9-0.4,2.9-2.6c0-1.4-0.3-2-1.1-2c-1.2,0-1.8,1.8-1.8,4.3V129.4z"/>
	<path d="M152.3,129.1c0.4-3.3-0.1-3.5-0.8-3.5c-1.3,0-3,4.1-3,6.9v0c0,0.6,0.2,0.9,0.6,0.9c0.2,0.6-0.3,0.7-0.8,0.7
		c-1.2,0-1.7-0.3-1.9-1.2c-0.1-0.7-0.1-1.6,0-3.3v-2.2c0-1-0.9-0.9-0.9-1.3c0-0.3,1.3-1,2.3-2c0.1-0.1,0.3-0.2,0.4-0.2
		c0.3,0,0.5,0.3,0.5,0.7l0,3.6c0.6-2.2,1.9-4.4,3.3-4.4c2.5,0,3.1,1.4,2.6,5.5c-0.3,2.9,0.5,3.6,1.2,3.6c1.9,0,2-4,2.7-4
		c0.3,0,1,0.2,0.8,1c-1.2,2.4-2.6,4.2-4.6,4.2C153,134.2,151.9,132.5,152.3,129.1"/>
	<path d="M163.1,125.1c-0.6,0-0.7-0.3-1.1-0.3c-0.1,0-0.2,0-0.4,0.1c-1.2,0.4-2,1.8-2,4.2c0,3.1,0.9,3.8,2,3.8
		c1.2,0,1.7-3.8,1.7-6.6c-0.1,0-0.3-1,0.7-1c0.1,0,0.4,0,0.7,0c0.6,0,1.3,0.1,1.3,0.5c0,0.8,0,2.2,0,3.6c0,2.7,0.5,3.6,1.2,3.6
		c1.9,0,2-4,2.7-4c0.3,0,1,0.2,0.8,1c-1.2,2.4-2.6,4.2-4.7,4.2c-1.3,0-2.2-1-2.4-2.9c-0.3,1.7-1,2.9-2.1,2.9c-2.7,0-4.8-2.2-4.4-5.1
		c0.3-2.9,2.8-5.1,5.7-5.1C163.9,124,163.4,125.1,163.1,125.1"/>
</g>
</svg>
