<?xml version="1.0" encoding="utf-8"?>
<!-- Generator: Adobe Illustrator 26.1.0, SVG Export Plug-In . SVG Version: 6.00 Build 0)  -->
<svg version="1.2" baseProfile="tiny" id="Capa_1" xmlns="http://www.w3.org/2000/svg" xmlns:xlink="http://www.w3.org/1999/xlink"
	 x="0px" y="0px" viewBox="0 0 190 190" overflow="visible" xml:space="preserve">
<g>
	<polygon points="95.1,76.7 97.9,76.7 109.9,105.1 123.9,76.7 126.9,76.7 110,110.6 	"/>
	<image width="15" height="17" xlink:href="4EBCCA49.png"  transform="matrix(1 0 0 1 103 85)">
	</image>
	<path d="M73.5,77l0,24.4h4.3V86.9c0,0,0-8.6,7.3-5.2l1.5-3.7c0,0-3.1-2.2-5.8-1.3c0,0-2.5,1.1-3.5,4.1l0-3.8L73.5,77z"/>
	<path d="M128.5,77v24.4h4.3V85.7c0,0,0.1-5.3,4.9-5.5c1.5-0.1,4.2,0.7,4.5,4.4l0,16.8h4.4l0.2-17c0,0,0.9-4,5-4.2
		c1.4-0.1,3.2,0.7,4.2,3.6v17.6h4V83.9c0,0-0.1-7.9-7.4-7.6c0,0-4.5,0.2-6.7,4.4c0,0-2.4-4.8-7.1-4.3c0,0-4.7,0.1-6.5,3.5v-3
		L128.5,77z"/>
	<path d="M91.1,65.6c-1,0-1.8-0.3-2.4-0.8c-0.6-0.5-0.9-1.2-0.9-1.9c0-0.8,0.3-1.5,1-1.9c0.6-0.5,1.5-0.7,2.4-0.7
		c1,0,1.8,0.3,2.4,0.8c0.6,0.5,0.9,1.1,0.9,1.9c0,0.8-0.3,1.4-1,1.9C92.9,65.3,92.1,65.6,91.1,65.6 M91.2,64.9
		c0.6,0,1.1-0.2,1.5-0.5c0.4-0.3,0.6-0.9,0.6-1.6c0-0.7-0.2-1.2-0.6-1.5c-0.4-0.3-0.9-0.5-1.5-0.5c-0.6,0-1.1,0.2-1.5,0.5
		c-0.4,0.3-0.6,0.8-0.6,1.5c0,0.7,0.2,1.3,0.6,1.6C90.1,64.8,90.6,64.9,91.2,64.9"/>
	<path d="M136.7,64.1l0.7,0.1c-0.1,0.4-0.4,0.7-0.7,1c-0.4,0.3-0.8,0.4-1.3,0.4c-0.7,0-1.2-0.2-1.6-0.7c-0.4-0.5-0.6-1.1-0.6-1.8
		c0-0.8,0.2-1.4,0.6-1.9c0.4-0.5,1-0.7,1.6-0.7c0.6,0,1.1,0.2,1.5,0.7c0.4,0.4,0.6,1.1,0.6,2H134c0,0.7,0.2,1.2,0.5,1.5
		c0.3,0.3,0.6,0.4,1,0.4C136,65,136.4,64.7,136.7,64.1 M136.7,62.6c0-0.3-0.1-0.5-0.1-0.7c-0.1-0.2-0.2-0.4-0.4-0.5
		c-0.2-0.1-0.4-0.2-0.7-0.2c-0.4,0-0.7,0.1-0.9,0.4c-0.3,0.3-0.4,0.6-0.4,1.1H136.7z"/>
	<rect x="157.5" y="59" width="0.9" height="6.7"/>
	<path d="M113.7,64.9v0.7c-0.2,0-0.2,0-0.4,0c-0.8,0-1.3-0.5-1.3-1.5l0-2.8l-0.6,0l0-0.7l0.6,0v-1.2l0.8-0.5l0,1.7h0.8l0,0.7h-0.8
		l0,2.9c0,0.5,0.1,0.6,0.5,0.6C113.6,64.9,113.7,64.9,113.7,64.9"/>
	<polyline points="66.7,65.7 66,65.7 66,62.7 62.2,62.7 62.2,65.7 61.5,65.7 61.5,59.2 62.2,59.2 62.2,62 66,62 66,59.2 66.7,59.2 	
		"/>
	<path d="M130.3,118.3c-0.2,2.3-0.8,4.8-1.9,7.4c-1,2.5-2,4.2-3,5c-0.6,0.5-1.1,0.8-1.7,0.8c-0.6,0-1.7-0.5-3.2-1.5
		c-0.3-0.2-0.4-0.4-0.4-0.6c0-0.3,0.2-0.4,0.6-0.4c0.2,0,0.4,0,0.7,0.1c0.3,0.1,0.5,0.1,0.7,0.1c1,0,1.9-0.6,2.7-1.9
		c0.7-1.1,1.3-2.6,2-4.4c0.7-2.3,1.1-4.3,1-5.9c0-0.8-0.3-1.2-0.8-1.2c-0.4,0-1,0.3-1.6,0.9c-4.5,4.2-7.7,9.3-9.6,15.2
		c-1,3.3-1.7,6.4-2.1,9.3c0,0.1-0.2,2.5-0.6,7.1c-0.1,0.7-0.2,1-0.5,1c-0.3,0-0.8-0.3-1.6-1c-0.5-0.5-0.8-1.1-0.6-1.8
		c0.6-6.8,2.3-14.4,5.1-22.7c2.2-6.5,3.9-10.8,5.1-12.7c0.8-1.1,1.4-1.7,2-1.7c0.6,0,1.7,0.5,3.3,1.5c0.2,0.1,0.3,0.3,0.3,0.4
		c0,0.2-0.2,0.3-0.5,0.3c-0.1,0-0.2,0-0.4-0.1c-0.2,0-0.3-0.1-0.4-0.1c-0.9,0-1.8,0.7-2.7,2.2c-0.6,0.8-1.3,2.2-2.1,4.2
		c-0.9,2-1.5,3.6-1.8,4.8c2.1-3.3,4.4-6.1,7.2-8.4c0.4-0.4,0.8-0.5,1.1-0.5c0.2,0,0.5,0.2,1.1,0.6
		C129.5,115.2,130.4,116.5,130.3,118.3"/>
	<path d="M148.2,99.1c0.2,0.1,0.3,0.3,0.3,0.4c0,0.3-0.2,0.4-0.5,0.4c-0.1,0-0.3,0-0.4-0.1c-0.6-0.3-1.1-0.5-1.4-0.5
		c-0.9,0-1.8,0.8-2.9,2.5c-3.8,6-6.5,13.8-8.1,23.4c0,0.3-0.1,0.6-0.2,1c0.3-0.3,0.8-0.9,1.4-1.6c0.4-0.4,0.6-0.6,0.8-0.6
		c0.4,0,0.4,0.2,0.1,0.6c-1.3,1.9-2.2,3.8-2.6,5.9c-0.2,0.5-0.3,0.8-0.6,0.8c-0.1,0-0.3-0.1-0.4-0.2c-0.7-0.5-1.1-0.7-1.2-0.8
		c-0.3-0.3-0.4-0.6-0.4-1.1c0-0.2,0-0.5,0.1-0.8c1.6-8.7,3.7-16.1,6.2-22.2c1.9-4.6,3.6-7.6,5.1-8.9c0.4-0.4,0.8-0.6,1.2-0.6
		c0.4,0,0.9,0.2,1.5,0.7C146.9,98,147.6,98.5,148.2,99.1"/>
	<path d="M154.2,117.1c-1.3,3.5-2.2,6.5-2.7,8.8c0.2-0.2,0.5-0.5,0.8-0.9c0.3-0.4,0.6-0.6,0.6-0.7c0.2-0.2,0.4-0.4,0.6-0.4
		c0.2,0,0.3,0.1,0.3,0.3c0,0.1-0.1,0.3-0.2,0.4c-1.3,1.9-2.2,3.9-2.6,5.8c-0.1,0.6-0.3,0.8-0.6,0.8c-0.2,0-0.7-0.2-1.3-0.7
		c-0.4-0.2-0.6-0.5-0.6-0.6c-0.1-0.2-0.1-0.5,0-0.9c0.6-3.5,1.3-6.4,2.2-8.7c-1.2,1.9-2.9,4.1-4.9,6.5c-1.8,2-3.1,3.4-3.9,3.9
		c-0.6,0.4-1,0.6-1.3,0.6c-0.3,0-0.6-0.2-1.2-0.6c-0.7-0.4-1.1-1.1-1.1-1.8c0-0.1,0-0.3,0-0.5c0.2-2,1.2-4.4,2.7-7.1
		c1.6-2.7,3.3-5,5.4-6.9c0.7-0.6,1.2-0.9,1.8-0.9c0.5,0,1.5,0.7,2.9,2c0.1,0.1,0.2,0.2,0.2,0.4c0,0.2-0.1,0.3-0.4,0.3
		c-0.1,0-0.2,0-0.3-0.1c-1-0.4-1.8-0.4-2.4,0c-1.3,0.9-2.7,2.6-4.3,5c-1.8,2.8-2.9,5.2-3.3,7.4c0,0.1,0,0.2,0,0.3
		c0,0.3,0.1,0.5,0.4,0.5c0.5,0,1-0.3,1.7-1c1.6-1.5,3.2-3.4,5-5.7c1.8-2.4,3-4.1,3.5-5.3c0.4-0.9,0.6-1.5,0.7-1.9
		c0.2-0.6,0.4-0.9,0.6-0.9c0.2,0,0.7,0.3,1.5,0.8c0.3,0.2,0.5,0.5,0.5,0.6C154.4,116.4,154.4,116.7,154.2,117.1"/>
	<path d="M169.2,115c0,0.4-0.2,1-0.6,1.9c-0.2,0.5-0.5,0.7-0.9,0.7c-0.2,0-0.6-0.1-1.2-0.2c-1.1,1.1-2.3,2.4-3.5,4.1
		c0.4,0,1,0,1.7-0.1c0.7,0,1.2-0.1,1.3-0.1c0.4,0,0.5,0.1,0.5,0.3c0,0.2-0.2,0.3-0.5,0.4c-1.3,0.3-2.9,0.8-4.8,1.4
		c-1.6,2.1-2.7,3.6-3.1,4.6c0.5,0,1.6,0.1,3.3,0.3c1.7,0.2,2.8,0.3,3.5,0.3c0.8,0,1.5-0.4,2-1.2c0.1-0.2,0.3-0.3,0.4-0.3
		c0.3,0,0.3,0.2,0.2,0.7c-0.2,0.4-0.6,1.2-1.2,2.4c-0.5,0.9-1.2,1.3-2.1,1.3c-0.6,0-1.7-0.2-3.3-0.7c-1.6-0.5-2.8-0.7-3.6-0.7
		c-0.3,0-0.6,0-0.9,0c-0.4,0.8-0.8,1.3-1.3,1.3c-0.3,0-0.6-0.2-0.8-0.6c-0.3-0.5-0.4-0.9-0.4-1.2c0-0.3,0.1-0.7,0.4-1
		c0.5-0.6,1.2-0.9,2-0.9c1.2-1.4,2.1-2.5,2.6-3.3c0-0.3-0.1-0.6-0.2-1.1c-0.1-0.4-0.1-0.7-0.1-0.8c0-0.2,0-0.3,0.1-0.4
		c0.3-0.4,1.1-0.6,2.6-0.6c1.2-1.6,2.5-3.1,3.6-4.5c-1.2-0.3-2.5-0.5-3.8-0.5c-0.9,0-1.6,0.2-2.1,0.5c-0.5,0.3-1,1-1.5,1.9
		c-0.2,0.3-0.4,0.5-0.6,0.5c-0.2,0-0.2-0.1-0.2-0.3c0-0.1,0-0.3,0.1-0.4c0.5-1.5,1-2.7,1.5-3.6c0.3-0.5,0.5-0.8,0.7-0.9
		c0.3-0.2,0.8-0.3,1.6-0.3c1.2,0,3.4,0.4,6.4,1.1c0.6-0.5,1-0.7,1.2-0.7c0.1,0,0.3,0,0.5,0.1C169,114.6,169.2,114.8,169.2,115"/>
	<path d="M184.2,117.1c-1.3,3.5-2.2,6.5-2.6,8.9c0.2-0.2,0.5-0.5,0.8-0.9c0.3-0.4,0.6-0.6,0.6-0.7c0.2-0.3,0.4-0.4,0.6-0.4
		c0.2,0,0.3,0.1,0.3,0.3c0,0.1-0.1,0.3-0.2,0.4c-1.3,1.9-2.2,3.9-2.6,5.8c-0.1,0.6-0.3,0.8-0.6,0.8c-0.2,0-0.7-0.2-1.3-0.7
		c-0.4-0.2-0.6-0.4-0.7-0.6c-0.1-0.2-0.1-0.5,0-0.9c0.6-3.5,1.3-6.4,2.2-8.7c-1.2,1.9-2.9,4.1-4.9,6.5c-1.8,2.1-3.1,3.4-3.9,3.9
		c-0.6,0.4-1,0.6-1.3,0.6c-0.3,0-0.6-0.2-1.1-0.6c-0.7-0.4-1.1-1.1-1.1-1.8c0-0.1,0-0.3,0-0.5c0.2-2,1.2-4.4,2.7-7.1
		c1.6-2.7,3.3-5,5.4-6.9c0.7-0.6,1.2-0.9,1.8-0.9c0.5,0,1.5,0.7,2.9,2c0.1,0.1,0.2,0.2,0.2,0.3c0,0.2-0.2,0.3-0.4,0.3
		c-0.1,0-0.2,0-0.3-0.1c-1-0.4-1.8-0.4-2.4,0c-1.3,1-2.8,2.6-4.3,5c-1.8,2.8-2.9,5.2-3.3,7.4c0,0.1,0,0.2,0,0.3
		c0,0.3,0.1,0.5,0.4,0.5c0.5,0,1-0.3,1.7-1c1.6-1.5,3.2-3.4,5-5.7c1.8-2.4,3-4.1,3.5-5.3c0.4-0.9,0.6-1.5,0.7-1.9
		c0.2-0.6,0.4-0.9,0.6-0.9c0.2,0,0.7,0.3,1.5,0.9c0.3,0.2,0.5,0.4,0.5,0.6C184.4,116.4,184.3,116.7,184.2,117.1"/>
	<path d="M69.8,97.6l0,3.5c-1.1,0.2-1.2,0.2-2,0.2c-3.8,0-6.3-2.4-6.3-7.3l0-14l-3,0.1l0-3.3l3,0v-5.9l4-2.4l0,8.2h4l0,3.3h-4.1
		l0,14.7c0,2.5,0.5,2.9,2.6,2.9C69.1,97.6,69.8,97.6,69.8,97.6"/>
	<rect x="89.1" y="77.1" width="4.3" height="24.3"/>
	<polygon points="31.1,40.6 56.3,101 50.6,101 31,52.6 11.5,101 5.6,101 	"/>
</g>
</svg>
