<?xml version="1.0" encoding="utf-8"?>
<!-- Generator: Adobe Illustrator 26.1.0, SVG Export Plug-In . SVG Version: 6.00 Build 0)  -->
<svg version="1.2" baseProfile="tiny" id="Capa_1" xmlns="http://www.w3.org/2000/svg" xmlns:xlink="http://www.w3.org/1999/xlink"
	 x="0px" y="0px" viewBox="0 0 190 190" overflow="visible" xml:space="preserve">
<g>
	<path d="M1.3,85.9v-8.8h30.3v8.8h-10v28.5H11.3V85.9H1.3z"/>
	<path d="M43.9,77.1H33.7v37.2h10.2V77.1z"/>
	<path d="M46.1,114.4V77.1h11.4l12,20.7h0.3V77.1h9.8v37.2H68.3l-12-20.7h-0.3v20.7H46.1z"/>
	<path d="M81.7,114.4V77.1h11.4l12,20.7h0.3V77.1h9.8v37.2h-11.4l-12-20.7h-0.3v20.7H81.7z"/>
	<path fill-rule="evenodd" d="M158.7,92.6h-9.7c1-10.6,9.5-17.8,19.9-17.8c11.1,0,19.9,8.2,19.9,19.9c0,11.7-8.9,19.9-19.9,19.9
		c-2.9,0-5.7-0.6-8.2-1.7v-11c1.8,2.5,4.6,4,8.2,4c6.2,0,10.2-4.5,10.2-11.3c0-6.9-4-11.3-10.2-11.3
		C163.2,83.3,159.4,86.9,158.7,92.6z"/>
	<path fill-rule="evenodd" d="M137.2,115.2c-11.6,0-19.8-8.1-19.8-19.8s8.1-19.8,19.8-19.9c0.1,0,0.3,0,0.4,0c0.1,0,0.3,0,0.4,0
		c0.1,0,0.2,0,0.3,0c0.1,0,0.2,0,0.3,0c0.1,0,0.2,0,0.3,0c0.1,0,0.1,0,0.2,0c0.1,0,0.1,0,0.2,0l0.5,0c0,0,0.1,0,0.1,0
		c0,0,0.1,0,0.1,0c0.1,0,0.2,0,0.3,0c0.1,0,0.2,0,0.3,0c0,0,0,0,0,0c0,0,0,0,0,0c3.6,0.5,6.7,1.6,9.2,3.4c1.1,0.8,1.6,1.4,1.6,1.4
		l-4.3,7c-2.9-2.5-6.2-3.2-8.2-3.3c-0.6,0-1.2,0-1.9,0l0,0c-6.1,0-10.1,4.3-10.1,11.1c0,7.2,4.1,11.4,10.9,11.4
		c4.3,0,7.5-2.1,9.1-5.9h-7.3v-6.3h18.6v18.7h-6.3v-4.5C148.6,112.6,143.6,115.2,137.2,115.2z"/>
</g>
</svg>
