<?xml version="1.0" encoding="utf-8"?>
<!-- Generator: Adobe Illustrator 26.1.0, SVG Export Plug-In . SVG Version: 6.00 Build 0)  -->
<svg version="1.2" baseProfile="tiny" id="Capa_1" xmlns="http://www.w3.org/2000/svg" xmlns:xlink="http://www.w3.org/1999/xlink"
	 x="0px" y="0px" viewBox="0 0 190 190" overflow="visible" xml:space="preserve">
<g transform="translate(0.000000,389.000000) scale(0.100000,-0.100000)">
	<path d="M297.8,3146.2v-76H184.5c-107,0-113.9-0.2-126.4-4.2c-27.5-8.5-45.4-30.4-49.8-60.4c-2.7-18.7-2.7-262,0.2-279.1
		c4.4-28.5,20.4-51.4,43.3-62.3l11.7-5.4l123.7-0.6c118.7-0.6,124.5-0.4,137.7,3.5c28.3,8.7,45.8,27.5,51.9,56
		c1.7,7.7,2.3,83.1,2.3,257.6v246.8h-40.6h-40.6V3146.2z M297.8,2879.2c0-102.5-0.4-110.6-4-118.5c-9.4-20.4-17.7-22.1-107-21.2
		c-66.9,0.6-69.3,0.8-77.9,5.2c-10,5.4-15.8,12.9-19.2,24.6c-3.5,13.1-2.9,184.9,0.6,195.3c3.7,10.4,8.7,15.8,19,20.4
		c7.7,3.5,15.4,4,98.5,4h90V2879.2z"/>
	<path d="M974.6,2940v-282.2h39.6h39.6l0.4,80.6l0.6,80.8l6.7,0.6c5.6,0.6,8.1-0.8,15.6-8.7c5-5.4,38.9-41.9,75.6-81.2l66.6-71.6
		l53.9-0.2l53.7-0.2l-15.4,17.3c-132.5,147-168.5,187.6-167.9,189.9c0.4,1.7,39.2,45.8,86.2,98.3c47.1,52.5,88.3,98.5,91.4,102.3
		l5.6,6.7h-51h-51.2l-78.5-85.6c-73.7-80.2-78.9-85.4-85-84.8l-6.5,0.6l-0.6,159.9l-0.4,159.7h-39.6h-39.6V2940z"/>
	<path d="M1817,3175.6c-25.4-11.9-37.7-38.9-30.2-66.2c3.3-11.9,14.6-25,26.9-31.7c9.2-4.8,14-6,25-6c32.5-0.2,55.2,22.5,55,55
		C1893.5,3166.2,1852.6,3192.4,1817,3175.6z M1850.4,3170c11.5-2.9,25.4-14.6,30.4-25.6c13.7-30-9.4-63.9-43.1-63.7
		c-19,0.2-38.1,16.5-42.7,36.4c-2.1,9.2-1.9,12.5,1.2,21.9c4.6,14.2,16.2,25.8,29.6,30C1838.3,3172.7,1839.1,3172.7,1850.4,3170z"/>
	<path d="M1820.2,3126.4c0-22.9,0-22.9,5-22.9c4.6,0,5.2,1,5.8,8.7c0.8,12.7,6.2,13.1,13.5,0.8c5-8.1,6.9-9.4,12.7-9.6h6.9l-6.2,9.2
		l-6.5,9.2l5.2,3.3c3.5,2.3,5.2,5.4,5.2,9.2c0,11.2-6.9,15-26.9,15h-14.8V3126.4z M1849.5,3137.7c2.3-2.9,2.1-3.7-1.2-6.2
		c-2.1-1.7-7.1-2.9-10.8-2.9c-6.2,0-6.9,0.6-6.9,6.2c0,5.8,0.4,6.2,8.1,6.2C1843.5,3141,1847.9,3139.8,1849.5,3137.7z"/>
	<path d="M1485.7,3070.2c-16.7-2.5-31-7.9-44.4-16.9c-13.5-9-19.8-16.2-28.1-32.5c-11.5-22.9-11.7-24.6-11.7-155.2
		c0-80.8,0.8-123.7,2.3-131.2c5.8-27.7,23.1-52.1,45.2-63.7c23.7-12.7,29.4-13.1,142.9-12.5l102.3,0.6l14.4,5.6
		c26.2,10.2,40.8,22.5,51.6,44.4c9.6,19,10,25.2,10,156.8c0,105.2-0.4,126.4-3.1,136.8c-8.5,32.3-29.4,52.9-65.6,64.8
		c-10.2,3.3-21.5,3.7-108.3,4.2C1539.8,3071.7,1491.5,3071.2,1485.7,3070.2z M1666.7,2986.1c9.8-4,17.5-14,20-26.2
		c3.1-14.4,3.1-175.1,0-189.5c-2.5-12.3-10.2-22.3-20-26.2c-8.3-3.5-146.8-4.2-159.3-0.8c-9.2,2.7-19.4,13.7-22.3,24.4
		c-1.5,5-2.3,41-2.3,96.6c0,72.1,0.6,90.6,3.1,98.9c3.1,10.8,10.8,20,19.8,23.5c3.1,1.2,35.6,2.1,79.8,2.1
		C1644,2989,1661.5,2988.4,1666.7,2986.1z"/>
	<path d="M551,3065.8c-33.5-11.5-53.5-35.4-59.6-70.6c-1.5-9.2-2.1-55-1.7-143.7l0.6-130.2l5.2-12.9c10-25.8,29.2-43.3,52.5-48.3
		c16-3.5,231-2.9,244.3,0.6c21.9,5.8,43.7,21.9,54.4,39.8c7.3,12.7,13.3,31.7,13.3,42.5v9.6l-36.9,12.3
		c-20.4,6.7-38.1,12.7-39.6,13.1c-1.5,0.6-3.5-2.5-5-7.5c-3.1-10.6-13.3-22.9-21.9-26.4c-5.4-2.3-23.1-2.9-83.5-2.9
		c-75.4,0-76.8,0.2-84.8,4.8c-5.2,2.9-10,8.1-13.1,13.7c-4.2,8.1-4.8,12.1-4.8,33.9v24.6H666c52.5,0,118.1,0.6,145.8,1.5l50.4,1.2
		v79.3c0,43.7-1,85.4-2.1,92.9c-5.8,36.9-33.1,66.6-68.9,74.8c-5.6,1.5-52.1,2.1-118.5,2.1C568.3,3070,562.7,3069.8,551,3065.8z
		 M762.2,2984.2c14.8-7.9,17.5-15.4,18.3-51.9l0.6-30.8H676H570.6v29.8c0,26.7,0.4,30.6,4.8,38.9c3.3,6.9,7.1,10.6,14,14.2
		c9.2,4.6,10.4,4.6,86.6,4.6C752.4,2989,753.3,2989,762.2,2984.2z"/>
</g>
</svg>
