<?xml version="1.0" encoding="utf-8"?>
<!-- Generator: Adobe Illustrator 26.1.0, SVG Export Plug-In . SVG Version: 6.00 Build 0)  -->
<svg version="1.2" baseProfile="tiny" id="Capa_1" xmlns="http://www.w3.org/2000/svg" xmlns:xlink="http://www.w3.org/1999/xlink"
	 x="0px" y="0px" viewBox="0 0 190 190" overflow="visible" xml:space="preserve">
<g transform="translate(0.000000,188.000000) scale(0.100000,-0.100000)">
	<path d="M478.7,1470.4c-17.7-4.8-41-12.1-52.3-16.1c-20.1-8-20.1-8,8.9-17.7c63.6-21.7,101.4-70,125.6-157.8
		c12.1-45.9,12.9-165,1.6-228.6c-12.9-71.6-40.2-183.5-49.1-199.6c-11.3-22.5-22.5-16.9-22.5,12.1c0,37-20.9,148.1-36.2,194.8
		c-45.9,140.9-101.4,205.2-173.9,205.2c-37.8-0.8-55.5-8-92.6-40.2c-45.1-39.4-45.9-44.3-6.4-41c29,1.6,41-1.6,64.4-19.3
		c36.2-27.4,63.6-69.2,84.5-129.6c27.4-76.5,32.2-117.5,38.6-313.1c7.2-199.6,14.5-241.5,45.1-255.1c16.9-7.2,24.1-4.8,55.5,18.5
		c37,29,87.7,99,116.7,162.6c9.7,20.9,24.1,53.9,33,74c19.3,43.5,62.8,171.4,74,217.3c18.5,80.5,24.1,108.7,30.6,162.6
		c3.2,32.2,8.9,70,12.1,83.7c5.6,25.8-8,142.5-20.9,174.7c-17.7,44.3-29,62-52.3,80.5C613.9,1476.9,551.1,1488.1,478.7,1470.4z"/>
	<path d="M1619.2,1461.6c-22.5-24.1-29.8-99.8-18.5-198.8c8-67.6,12.9-97.4,29.8-177.1c5.6-25.8,45.9-46.7,62.8-33
		c5.6,4.8,12.9,26.6,16.1,47.5c4.8,39.4,15.3,96.6,29.8,166.6c4.8,22.5,10.5,62.8,12.9,90.1c3.2,45.9,1.6,51.5-16.9,70.8
		c-11.3,11.3-23.3,20.1-26.6,20.1s-15.3,7.2-26.6,16.1C1655.4,1484.9,1640.1,1484.1,1619.2,1461.6z"/>
	<path d="M1317.3,1296.6c-10.5-11.3-12.9-36.2-12.1-144.1c0-119.9-7.2-183.5-26.6-234.2c-4-10.5-7.2-24.1-7.2-30.6
		c0-6.4-7.2-27.4-16.1-45.1c-8.9-18.5-16.1-38.6-16.1-44.3c0-5.6-2.4-10.5-6.4-10.5c-3.2,0-10.5-9.7-16.1-21.7
		c-20.1-45.1-90.1-107-120.7-107c-69.2,0,36.2-74,108.7-75.7c35.4-0.8,45.1,2.4,66,22.5c13.7,13.7,25,29,25,34.6
		c0,5.6,2.4,10.5,6.4,10.5c5.6,0,16.9,23.3,29,58.8c4,12.9,9.7,14.5,38.6,9.7c18.5-3.2,48.3-10.5,66.8-15.3l32.2-9.7l-1.6-46.7
		c-3.2-90.1-16.9-132-54.7-169.8c-18.5-19.3-45.1-37-59.6-40.2c-53.9-11.3-36.2-37.8,36.2-52.3c49.1-10.5,86.9-3.2,128,25.8
		c50.7,34.6,68.4,80.5,75.7,199.6c4.8,82.9,5.6,84.5,25,86.9c66,7.2,165,45.9,187.5,73.2c19.3,23.3,17.7,77.3-2.4,106.2l-16.9,22.5
		l-43.5-42.7c-29.8-29.8-55.5-47.5-83.7-57.1c-67.6-22.5-74-17.7-90.1,56.3c-34.6,162.6-116.7,354.1-180.3,420.1
		C1351.9,1314.3,1336.6,1318.3,1317.3,1296.6z M1413.9,982.7c10.5-6.4,42.7-128.8,42.7-160.2c0-15.3-4-18.5-26.6-18.5
		c-44.3,0-57.1,15.3-51.5,61.2c3.2,21.7,7.2,58.8,10.5,82.1C1394.6,989.9,1397,993.9,1413.9,982.7z"/>
	<path d="M1121.7,1255.5c-46.7-11.3-57.1-30.6-28.2-50.7c35.4-25,51.5-68.4,51.5-139.2c0-79.7-14.5-124.8-61.2-194.8
		c-13.7-20.9-29-34.6-37.8-34.6c-20.1,0-20.9,35.4-4,126.4c6.4,34.6,12.1,82.9,12.1,107.9c0,37-3.2,47.5-20.1,63.6
		c-18.5,17.7-21.7,18.5-53.1,8c-38.6-12.9-46.7-26.6-27.4-48.3c16.9-18.5,13.7-75.7-8-173c-17.7-79.7-13.7-164.2,9.7-195.6
		c22.5-30.6,51.5-45.1,76.5-39.4c22.5,5.6,89.3,69.2,105.4,101.4c30.6,57.1,49.1,95,53.9,109.5c3.2,8.9,9.7,25,14.5,36.2
		c4,11.3,12.1,36.2,17.7,56.3c4.8,20.1,12.9,47.5,16.9,61.2c10.5,35.4,8.9,140.9-2.4,166.6
		C1222.4,1248.3,1168.4,1266.8,1121.7,1255.5z"/>
	<path d="M852.1,1234.6c-35.4-19.3-41-108.7-7.2-108.7c27.4,0,41,9.7,56.3,41C934.2,1230.6,908.5,1265.2,852.1,1234.6z"/>
	<path d="M840.8,1075.2c-33-11.3-41.9-18.5-46.7-44.3c-3.2-12.1-8.9-39.4-13.7-62c-11.3-50.7-22.5-142.5-29-227l-4.8-66.8l20.9-8
		c13.7-4.8,33.8-5.6,54.7-0.8C865,676,873,684.9,861,708.2c-10.5,18.5-7.2,90.1,8,178.7c15.3,89.3,22.5,138.4,23.3,160.2
		C893.2,1075.2,873,1086.5,840.8,1075.2z"/>
	<path d="M139.8,1053.5c-24.1-9.7-45.9-46.7-40.2-69.2c6.4-23.3,35.4-51.5,53.9-51.5c8,0,25,11.3,38.6,25
		c29.8,29,32.2,60.4,8.9,86.1C183.3,1062.3,168,1064.8,139.8,1053.5z"/>
	<path d="M1635.3,986.7c-30.6-32.2-20.9-78.9,20.9-101.4c62.8-33,100.6,62,41.9,103.8C1669.1,1010,1656.2,1009.2,1635.3,986.7z"/>
	<path d="M135,876.4c-13.7-10.5-22.5-27.4-25.8-49.9c-3.2-19.3-9.7-52.3-13.7-74.9c-4.8-21.7-10.5-82.9-12.9-134.4
		c-4.8-103,2.4-134.4,35.4-152.1c14.5-8,22.5-6.4,52.3,11.3c19.3,11.3,45.1,31.4,58,45.1c21.7,22.5,22.5,25.8,14.5,58.8
		c-4.8,19.3-11.3,47.5-13.7,62.8c-2.4,15.3-8,44.3-12.1,64.4c-3.2,20.1-10.5,58-15.3,84.5s-11.3,60.4-13.7,74.9
		C182.5,897.3,164.8,900.6,135,876.4z"/>
</g>
</svg>
