<?xml version="1.0" encoding="utf-8"?>
<!-- Generator: Adobe Illustrator 26.1.0, SVG Export Plug-In . SVG Version: 6.00 Build 0)  -->
<svg version="1.1" id="Capa_1" xmlns="http://www.w3.org/2000/svg" xmlns:xlink="http://www.w3.org/1999/xlink" x="0px" y="0px"
	 viewBox="0 0 627 894" style="enable-background:new 0 0 627 894;" xml:space="preserve">
<style type="text/css">
	.st0{fill:url(#SVGID_1_);}
	.st1{fill:url(#SVGID_00000083804992330186774060000017529994113782886056_);}
</style>
<g>
	
		<linearGradient id="SVGID_1_" gradientUnits="userSpaceOnUse" x1="198.345" y1="128.6911" x2="889.7076" y2="820.0536" gradientTransform="matrix(1 0 0 -1 0 896)">
		<stop  offset="0" style="stop-color:#EC4899"/>
		<stop  offset="1" style="stop-color:#6366F1"/>
	</linearGradient>
	<path class="st0" d="M405.1,676.6c11.4,13.9,17.4,32.5,14.2,52.4c-10.4-41.1-36-67-77.4-77.4c17.1-2.5,33.5,1.6,46.8,10.1
		c-3.8-7-7.3-13.9-10.1-20.9c-27.8-66.4-13.6-121-2.2-148.5l-55.6-23.1c-28.4,68.2-86.9,98.6-139.3,112.2
		c15.2,6,28.1,17.4,35.4,33.5c-31.6-28.1-67.3-35.4-107.4-20.9c15.2-13.9,35.4-19.3,54.3-17.1c-14.2-9.8-31.6-15.8-50.2-15.8
		c-49,0-88.8,39.8-88.8,88.8c0,46.8,36,85,81.8,88.5c2.2,0.3,4.7,0.3,7,0.3c3.2,0,6.3-0.3,9.5-0.6c10.4,20.5,28.4,36.3,50.2,43.9
		c-7.9-13-11.7-28.4-8.8-44.9c10.4,41.1,36,67,77.4,77.4c-23.4,3.5-46.1-6-61-22.1c-0.6,4.1-0.9,8.2-0.9,12.6
		c0,46.4,35.7,84.7,81.5,88.5c2.5,0.3,4.7,0.3,7.3,0.3c37.6,0,69.5-23.1,82.5-55.9c14.5,10.1,31.9,16.1,51.2,16.1
		c49,0,88.8-39.8,88.8-88.8C491.1,717.4,452.9,678.2,405.1,676.6z M228.5,753.7c-35.7-26.5-37.3-83.1,0-109.3
		C206.7,680.7,206.7,717.1,228.5,753.7z"/>
	
		<linearGradient id="SVGID_00000034811839219477964950000003742854174704399756_" gradientUnits="userSpaceOnUse" x1="89.6045" y1="237.4312" x2="780.9667" y2="928.7935" gradientTransform="matrix(1 0 0 -1 0 896)">
		<stop  offset="0" style="stop-color:#EC4899"/>
		<stop  offset="1" style="stop-color:#6366F1"/>
	</linearGradient>
	<path style="fill:url(#SVGID_00000034811839219477964950000003742854174704399756_);" d="M556.5,13.4C551.8,2.4,539.1-3,528.1,1.7
		c-72.4,30-140.9,61.9-183.9,124.8c-22.7,33.2-36.7,72-44.6,112.2C250.6,262.7,202,361,202,361s29.1,9.2,56.2,16.4
		c14.9,4.1,29.1,7.6,37.9,8.8c1.9,14.9,4.4,29.1,7.3,42.3c1.6,7,6.3,12.6,13,15.5l77.4,31.9c5.4,2.2,11.4,2.2,16.7,0
		c1.3-0.3,26.5-17.4,38.2-26.5c3.5,2.8,8.5,6,14.5,9.5c26.9,16.4,69.8,39.2,69.8,39.2s35.4-104,17.4-155.5
		c23.1-33.8,40.8-71.4,48-110.6C612.4,156.9,585.2,82.9,556.5,13.4z M462,240.3c-22.4,0-40.8-18.3-40.8-40.8
		c0-22.4,18.3-40.8,40.8-40.8c22.4,0,40.8,18.3,40.8,40.8C503.1,222,484.8,240.3,462,240.3z"/>
</g>
</svg>
